M48
; DRILL file {KiCad (6.0.7)} date Sat Feb  4 14:27:24 2023
; FORMAT={-:-/ absolute / inch / decimal}
; #@! TF.CreationDate,2023-02-04T14:27:24-06:00
; #@! TF.GenerationSoftware,Kicad,Pcbnew,(6.0.7)
; #@! TF.FileFunction,MixedPlating,1,2
FMAT,2
INCH
; #@! TA.AperFunction,Plated,PTH,ViaDrill
T1C0.0157
; #@! TA.AperFunction,Plated,PTH,ComponentDrill
T2C0.0394
; #@! TA.AperFunction,Plated,PTH,ComponentDrill
T3C0.0402
; #@! TA.AperFunction,Plated,PTH,ComponentDrill
T4C0.0472
; #@! TA.AperFunction,Plated,PTH,ComponentDrill
T5C0.0591
; #@! TA.AperFunction,Plated,PTH,ComponentDrill
T6C0.0669
; #@! TA.AperFunction,NonPlated,NPTH,ComponentDrill
T7C0.0394
; #@! TA.AperFunction,NonPlated,NPTH,ComponentDrill
T8C0.0500
; #@! TA.AperFunction,NonPlated,NPTH,ComponentDrill
T9C0.1260
%
G90
G05
T1
X4.439Y-2.7461
X4.439Y-2.8346
X6.8209Y-5.7087
X6.8898Y-5.4035
T2
X6.0827Y-2.1457
X6.0827Y-2.2638
X6.2008Y-2.1457
X6.2008Y-2.2638
X6.3189Y-2.1457
X6.3189Y-2.2638
X6.437Y-2.1457
X6.437Y-2.2638
X6.5551Y-2.1457
X6.5551Y-2.2638
X6.6732Y-2.1457
X6.6732Y-2.2638
X6.7913Y-2.1457
X6.7913Y-2.2638
X7.1063Y-2.1423
X7.1063Y-2.2604
X7.2244Y-2.1423
X7.2244Y-2.2604
X7.3425Y-2.1423
X7.3425Y-2.2604
X7.5984Y-2.5787
X7.5984Y-2.6969
X7.5984Y-2.815
X7.7165Y-2.5787
X7.7165Y-2.6969
X7.7165Y-2.815
T3
X4.5866Y-2.1423
X4.7047Y-2.1423
X4.8228Y-2.1423
X4.9409Y-2.1423
X5.3346Y-2.1457
X5.4528Y-2.1457
X5.5709Y-2.1457
X5.689Y-2.1457
T4
X7.4902Y-3.1201
X7.628Y-3.1201
X7.628Y-5.4232
T5
X5.2008Y-3.8465
X5.2008Y-4.3031
X5.4252Y-3.4567
X5.4252Y-4.6929
X5.815Y-3.2323
X5.8189Y-4.9213
X5.8287Y-4.2894
X6.2579Y-3.8602
X6.2717Y-3.2323
X6.2717Y-4.9213
X6.6614Y-3.4567
X6.6614Y-4.6929
X6.8858Y-4.2992
X6.8898Y-3.8504
T6
X7.3917Y-3.2835
X7.3917Y-5.2598
X7.7264Y-3.3307
X7.7264Y-5.2126
T7
X5.9646Y-2.1087
X6.9094Y-2.1087
X6.9882Y-2.1053
X7.4606Y-2.1053
X7.7535Y-2.4606
X7.7535Y-2.9331
T8
X4.4685Y-2.2195
X5.0591Y-2.2195
X5.2165Y-2.2228
X5.8071Y-2.2228
T9
X4.0945Y-2.126
X4.0945Y-5.748
X7.7165Y-2.126
X7.7165Y-5.748
T0
M30
