%TF.GenerationSoftware,KiCad,Pcbnew,7.0.5*%
%TF.CreationDate,2023-09-23T15:40:50-05:00*%
%TF.ProjectId,ControlsSim,436f6e74-726f-46c7-9353-696d2e6b6963,rev?*%
%TF.SameCoordinates,Original*%
%TF.FileFunction,Copper,L2,Bot*%
%TF.FilePolarity,Positive*%
%FSLAX46Y46*%
G04 Gerber Fmt 4.6, Leading zero omitted, Abs format (unit mm)*
G04 Created by KiCad (PCBNEW 7.0.5) date 2023-09-23 15:40:50*
%MOMM*%
%LPD*%
G01*
G04 APERTURE LIST*
G04 Aperture macros list*
%AMRoundRect*
0 Rectangle with rounded corners*
0 $1 Rounding radius*
0 $2 $3 $4 $5 $6 $7 $8 $9 X,Y pos of 4 corners*
0 Add a 4 corners polygon primitive as box body*
4,1,4,$2,$3,$4,$5,$6,$7,$8,$9,$2,$3,0*
0 Add four circle primitives for the rounded corners*
1,1,$1+$1,$2,$3*
1,1,$1+$1,$4,$5*
1,1,$1+$1,$6,$7*
1,1,$1+$1,$8,$9*
0 Add four rect primitives between the rounded corners*
20,1,$1+$1,$2,$3,$4,$5,0*
20,1,$1+$1,$4,$5,$6,$7,0*
20,1,$1+$1,$6,$7,$8,$9,0*
20,1,$1+$1,$8,$9,$2,$3,0*%
G04 Aperture macros list end*
%TA.AperFunction,ComponentPad*%
%ADD10RoundRect,0.250001X0.499999X0.499999X-0.499999X0.499999X-0.499999X-0.499999X0.499999X-0.499999X0*%
%TD*%
%TA.AperFunction,ComponentPad*%
%ADD11C,1.500000*%
%TD*%
%TA.AperFunction,ComponentPad*%
%ADD12RoundRect,0.250001X0.499999X0.759999X-0.499999X0.759999X-0.499999X-0.759999X0.499999X-0.759999X0*%
%TD*%
%TA.AperFunction,ComponentPad*%
%ADD13O,1.500000X2.020000*%
%TD*%
%TA.AperFunction,ComponentPad*%
%ADD14R,1.800000X1.800000*%
%TD*%
%TA.AperFunction,ComponentPad*%
%ADD15C,1.800000*%
%TD*%
%TA.AperFunction,ComponentPad*%
%ADD16C,2.550000*%
%TD*%
%TA.AperFunction,ComponentPad*%
%ADD17C,2.006600*%
%TD*%
%TA.AperFunction,ComponentPad*%
%ADD18RoundRect,0.250001X0.499999X-0.499999X0.499999X0.499999X-0.499999X0.499999X-0.499999X-0.499999X0*%
%TD*%
%TA.AperFunction,SMDPad,CuDef*%
%ADD19RoundRect,0.250000X-0.262500X-0.450000X0.262500X-0.450000X0.262500X0.450000X-0.262500X0.450000X0*%
%TD*%
%TA.AperFunction,ViaPad*%
%ADD20C,0.800000*%
%TD*%
%TA.AperFunction,Conductor*%
%ADD21C,0.400000*%
%TD*%
%TA.AperFunction,Conductor*%
%ADD22C,0.750000*%
%TD*%
%TA.AperFunction,Conductor*%
%ADD23C,0.500000*%
%TD*%
G04 APERTURE END LIST*
D10*
%TO.P,J7,1,Pin_1*%
%TO.N,/Rot1*%
X172500000Y-57500000D03*
D11*
%TO.P,J7,2,Pin_2*%
%TO.N,/Rot2*%
X169500000Y-57500000D03*
%TO.P,J7,3,Pin_3*%
%TO.N,/Rot3*%
X166500000Y-57500000D03*
%TO.P,J7,4,Pin_4*%
%TO.N,/Rot4*%
X163500000Y-57500000D03*
%TO.P,J7,5,Pin_5*%
%TO.N,/Rot5*%
X160500000Y-57500000D03*
%TO.P,J7,6,Pin_6*%
%TO.N,unconnected-(J7-Pin_6-Pad6)*%
X157500000Y-57500000D03*
%TO.P,J7,7,Pin_7*%
%TO.N,/Rot7*%
X154500000Y-57500000D03*
%TO.P,J7,8,Pin_8*%
%TO.N,/Rot8*%
X172500000Y-54500000D03*
%TO.P,J7,9,Pin_9*%
%TO.N,/Rot9*%
X169500000Y-54500000D03*
%TO.P,J7,10,Pin_10*%
%TO.N,/Rot10*%
X166500000Y-54500000D03*
%TO.P,J7,11,Pin_11*%
%TO.N,/Rot11*%
X163500000Y-54500000D03*
%TO.P,J7,12,Pin_12*%
%TO.N,unconnected-(J7-Pin_12-Pad12)*%
X160500000Y-54500000D03*
%TO.P,J7,13,Pin_13*%
%TO.N,/RotV+*%
X157500000Y-54500000D03*
%TO.P,J7,14,Pin_14*%
X154500000Y-54500000D03*
%TD*%
D12*
%TO.P,J6,1,Pin_1*%
%TO.N,/A_D_Mn2*%
X144500000Y-54500000D03*
D13*
%TO.P,J6,2,Pin_2*%
%TO.N,GND*%
X141500000Y-54500000D03*
%TO.P,J6,3,Pin_3*%
%TO.N,/A_D_Pre2*%
X138500000Y-54500000D03*
%TO.P,J6,4,Pin_4*%
%TO.N,GND*%
X135500000Y-54500000D03*
%TD*%
D14*
%TO.P,RV1,1,1*%
%TO.N,+3V3*%
X193750000Y-79250000D03*
D15*
%TO.P,RV1,2,2*%
%TO.N,Acc_Pot_Vo*%
X190250000Y-79250000D03*
%TO.P,RV1,3,3*%
%TO.N,GND*%
X193750000Y-137750000D03*
D16*
%TO.P,RV1,S1*%
%TO.N,N/C*%
X196250000Y-84600000D03*
%TO.P,RV1,S2*%
X187750000Y-83400000D03*
%TO.P,RV1,S3*%
X196250000Y-132400000D03*
%TO.P,RV1,S4*%
X187750000Y-133600000D03*
%TD*%
D10*
%TO.P,J3,1,Pin_1*%
%TO.N,+3V3*%
X186500000Y-57415000D03*
D11*
%TO.P,J3,2,Pin_2*%
%TO.N,Brk_Signal*%
X183500000Y-57415000D03*
%TO.P,J3,3,Pin_3*%
%TO.N,GND*%
X180500000Y-57415000D03*
%TO.P,J3,4,Pin_4*%
%TO.N,unconnected-(J3-Pin_4-Pad4)*%
X186500000Y-54415000D03*
%TO.P,J3,5,Pin_5*%
%TO.N,unconnected-(J3-Pin_5-Pad5)*%
X183500000Y-54415000D03*
%TO.P,J3,6,Pin_6*%
%TO.N,unconnected-(J3-Pin_6-Pad6)*%
X180500000Y-54415000D03*
%TD*%
D17*
%TO.P,SW2,1,1*%
%TO.N,/Rot1*%
X153499999Y-103500000D03*
%TO.P,SW2,2,2*%
%TO.N,/Rot2*%
X158475905Y-106372839D03*
%TO.P,SW2,3,3*%
%TO.N,/Rot3*%
X161348744Y-111348744D03*
%TO.P,SW2,4,4*%
%TO.N,/Rot4*%
X161348744Y-117094423D03*
%TO.P,SW2,5,5*%
%TO.N,/Rot5*%
X158475905Y-122070328D03*
%TO.P,SW2,6,6*%
%TO.N,unconnected-(SW2-Pad6)*%
X153499999Y-124943167D03*
%TO.P,SW2,7,7*%
%TO.N,/Rot7*%
X147754321Y-124943167D03*
%TO.P,SW2,8,8*%
%TO.N,/Rot8*%
X142778416Y-122070328D03*
%TO.P,SW2,9,9*%
%TO.N,/Rot9*%
X139905577Y-117094423D03*
%TO.P,SW2,10,10*%
%TO.N,/Rot10*%
X139905577Y-111348744D03*
%TO.P,SW2,11,11*%
%TO.N,/Rot11*%
X142778416Y-106372839D03*
%TO.P,SW2,12,12*%
%TO.N,unconnected-(SW2-Pad12)*%
X147754321Y-103500000D03*
%TO.P,SW2,13,13*%
%TO.N,/RotV+*%
X153357158Y-111491586D03*
%TO.P,SW2,14,14*%
X147785000Y-116809600D03*
%TD*%
D18*
%TO.P,J2,1,Pin_1*%
%TO.N,+3V3*%
X193000000Y-71500000D03*
D11*
%TO.P,J2,2,Pin_2*%
%TO.N,Acc_Pot_Vo*%
X193000000Y-68500000D03*
%TO.P,J2,3,Pin_3*%
%TO.N,GND*%
X193000000Y-65500000D03*
%TO.P,J2,4,Pin_4*%
%TO.N,unconnected-(J2-Pin_4-Pad4)*%
X196000000Y-71500000D03*
%TO.P,J2,5,Pin_5*%
%TO.N,unconnected-(J2-Pin_5-Pad5)*%
X196000000Y-68500000D03*
%TO.P,J2,6,Pin_6*%
%TO.N,unconnected-(J2-Pin_6-Pad6)*%
X196000000Y-65500000D03*
%TD*%
D12*
%TO.P,J5,1,Pin_1*%
%TO.N,/M_D_Mn2*%
X125500000Y-54415000D03*
D13*
%TO.P,J5,2,Pin_2*%
%TO.N,GND*%
X122500000Y-54415000D03*
%TO.P,J5,3,Pin_3*%
%TO.N,/M_D_Pre2*%
X119500000Y-54415000D03*
%TO.P,J5,4,Pin_4*%
%TO.N,GND*%
X116500000Y-54415000D03*
%TD*%
D19*
%TO.P,R8,1*%
%TO.N,Brk_Signal*%
X173087500Y-140000000D03*
%TO.P,R8,2*%
%TO.N,GND*%
X174912500Y-140000000D03*
%TD*%
D20*
%TO.N,GND*%
X175000000Y-137250000D03*
%TO.N,/Rot2*%
X161290000Y-78740000D03*
X167640000Y-72390000D03*
%TO.N,Brk_Signal*%
X173250000Y-145000000D03*
%TO.N,/M_D_Pre2*%
X116078000Y-69750000D03*
%TO.N,/M_D_Mn2*%
X116078000Y-72000000D03*
%TD*%
D21*
%TO.N,GND*%
X175000000Y-137250000D02*
X175000000Y-139912500D01*
D22*
X178181120Y-52000000D02*
X144000000Y-52000000D01*
X180500000Y-57415000D02*
X178750000Y-55665000D01*
X178750000Y-55665000D02*
X178750000Y-52568880D01*
X188585000Y-65500000D02*
X193000000Y-65500000D01*
D21*
X175000000Y-139912500D02*
X174912500Y-140000000D01*
D22*
X144000000Y-52000000D02*
X141500000Y-54500000D01*
X180500000Y-57415000D02*
X188585000Y-65500000D01*
X178750000Y-52568880D02*
X178181120Y-52000000D01*
D21*
%TO.N,/Rot2*%
X160020000Y-99060000D02*
X160020000Y-80010000D01*
X158475905Y-106372839D02*
X158475905Y-100604095D01*
X167640000Y-72390000D02*
X169500000Y-70530000D01*
X158475905Y-100604095D02*
X160020000Y-99060000D01*
X160020000Y-80010000D02*
X161290000Y-78740000D01*
X169500000Y-70530000D02*
X169500000Y-57500000D01*
%TO.N,/Rot3*%
X165000000Y-59000000D02*
X166500000Y-57500000D01*
X161348744Y-111348744D02*
X165000000Y-107697488D01*
X165000000Y-107697488D02*
X165000000Y-59000000D01*
%TO.N,/Rot4*%
X159945444Y-115691123D02*
X159945444Y-104214556D01*
X163500000Y-100660000D02*
X163500000Y-57500000D01*
X159945444Y-104214556D02*
X163500000Y-100660000D01*
X161348744Y-117094423D02*
X159945444Y-115691123D01*
%TO.N,/Rot5*%
X158475905Y-122070328D02*
X157072605Y-120667028D01*
X157072605Y-77927395D02*
X160500000Y-74500000D01*
X160500000Y-57500000D02*
X160500000Y-74500000D01*
X157072605Y-120667028D02*
X157072605Y-77927395D01*
%TO.N,/Rot7*%
X147754321Y-124894321D02*
X144780000Y-121920000D01*
X147754321Y-124943167D02*
X147754321Y-124894321D01*
X144780000Y-121920000D02*
X144780000Y-104489755D01*
X144780000Y-104489755D02*
X151500000Y-97769755D01*
X151500000Y-97769755D02*
X151500000Y-60500000D01*
X151500000Y-60500000D02*
X154500000Y-57500000D01*
%TO.N,/RotV+*%
X147785000Y-116375000D02*
X152668414Y-111491586D01*
X153670000Y-99060000D02*
X153670000Y-64770000D01*
X156210000Y-104140000D02*
X156210000Y-101600000D01*
X152668414Y-111491586D02*
X153357158Y-111491586D01*
X156000000Y-62440000D02*
X156000000Y-56000000D01*
X154940000Y-105410000D02*
X156210000Y-104140000D01*
X153357158Y-111491586D02*
X154940000Y-109908744D01*
X156000000Y-56000000D02*
X157500000Y-54500000D01*
X154940000Y-109908744D02*
X154940000Y-105410000D01*
X154500000Y-54500000D02*
X156000000Y-56000000D01*
X147785000Y-116809600D02*
X147785000Y-116375000D01*
X153670000Y-64770000D02*
X156000000Y-62440000D01*
X156210000Y-101600000D02*
X153670000Y-99060000D01*
%TO.N,Brk_Signal*%
X173250000Y-145000000D02*
X173250000Y-140162500D01*
X173250000Y-140162500D02*
X173087500Y-140000000D01*
D23*
%TO.N,/M_D_Pre2*%
X121500000Y-69750000D02*
X123500000Y-67750000D01*
X119500000Y-55000000D02*
X119500000Y-54415000D01*
X123500000Y-67750000D02*
X123500000Y-59000000D01*
X123500000Y-59000000D02*
X119500000Y-55000000D01*
X116078000Y-69750000D02*
X121500000Y-69750000D01*
%TO.N,/M_D_Mn2*%
X125500000Y-68250000D02*
X125500000Y-54415000D01*
X121750000Y-72000000D02*
X125500000Y-68250000D01*
X116078000Y-72000000D02*
X121750000Y-72000000D01*
%TD*%
M02*
