%TF.GenerationSoftware,KiCad,Pcbnew,7.0.5*%
%TF.CreationDate,2023-09-23T15:40:50-05:00*%
%TF.ProjectId,ControlsSim,436f6e74-726f-46c7-9353-696d2e6b6963,rev?*%
%TF.SameCoordinates,Original*%
%TF.FileFunction,Legend,Top*%
%TF.FilePolarity,Positive*%
%FSLAX46Y46*%
G04 Gerber Fmt 4.6, Leading zero omitted, Abs format (unit mm)*
G04 Created by KiCad (PCBNEW 7.0.5) date 2023-09-23 15:40:50*
%MOMM*%
%LPD*%
G01*
G04 APERTURE LIST*
%ADD10C,0.150000*%
%ADD11C,0.300000*%
%ADD12C,0.254000*%
%ADD13C,0.120000*%
%ADD14C,0.127000*%
%ADD15C,0.200000*%
%ADD16C,0.100000*%
%ADD17C,0.152400*%
%ADD18C,0.010000*%
G04 APERTURE END LIST*
D10*
X181311779Y-81657819D02*
X181311779Y-80657819D01*
X181311779Y-80657819D02*
X181645112Y-81372104D01*
X181645112Y-81372104D02*
X181978445Y-80657819D01*
X181978445Y-80657819D02*
X181978445Y-81657819D01*
X182407017Y-81372104D02*
X182883207Y-81372104D01*
X182311779Y-81657819D02*
X182645112Y-80657819D01*
X182645112Y-80657819D02*
X182978445Y-81657819D01*
X183216541Y-80657819D02*
X183883207Y-81657819D01*
X183883207Y-80657819D02*
X183216541Y-81657819D01*
X164531607Y-106082062D02*
X164531607Y-105082062D01*
X165531606Y-105129681D02*
X165436368Y-105082062D01*
X165436368Y-105082062D02*
X165293511Y-105082062D01*
X165293511Y-105082062D02*
X165150654Y-105129681D01*
X165150654Y-105129681D02*
X165055416Y-105224919D01*
X165055416Y-105224919D02*
X165007797Y-105320157D01*
X165007797Y-105320157D02*
X164960178Y-105510633D01*
X164960178Y-105510633D02*
X164960178Y-105653490D01*
X164960178Y-105653490D02*
X165007797Y-105843966D01*
X165007797Y-105843966D02*
X165055416Y-105939204D01*
X165055416Y-105939204D02*
X165150654Y-106034443D01*
X165150654Y-106034443D02*
X165293511Y-106082062D01*
X165293511Y-106082062D02*
X165388749Y-106082062D01*
X165388749Y-106082062D02*
X165531606Y-106034443D01*
X165531606Y-106034443D02*
X165579225Y-105986823D01*
X165579225Y-105986823D02*
X165579225Y-105653490D01*
X165579225Y-105653490D02*
X165388749Y-105653490D01*
X166007797Y-106082062D02*
X166007797Y-105082062D01*
X166007797Y-105082062D02*
X166579225Y-106082062D01*
X166579225Y-106082062D02*
X166579225Y-105082062D01*
X166817321Y-106177300D02*
X167579225Y-106177300D01*
X167769702Y-105177300D02*
X167817321Y-105129681D01*
X167817321Y-105129681D02*
X167912559Y-105082062D01*
X167912559Y-105082062D02*
X168150654Y-105082062D01*
X168150654Y-105082062D02*
X168245892Y-105129681D01*
X168245892Y-105129681D02*
X168293511Y-105177300D01*
X168293511Y-105177300D02*
X168341130Y-105272538D01*
X168341130Y-105272538D02*
X168341130Y-105367776D01*
X168341130Y-105367776D02*
X168293511Y-105510633D01*
X168293511Y-105510633D02*
X167722083Y-106082062D01*
X167722083Y-106082062D02*
X168341130Y-106082062D01*
X121750001Y-68007557D02*
X122464287Y-68007557D01*
X121607144Y-68436128D02*
X122107144Y-66936128D01*
X122107144Y-66936128D02*
X122607144Y-68436128D01*
X123107143Y-68436128D02*
X123107143Y-67436128D01*
X123107143Y-67721842D02*
X123178572Y-67578985D01*
X123178572Y-67578985D02*
X123250001Y-67507557D01*
X123250001Y-67507557D02*
X123392858Y-67436128D01*
X123392858Y-67436128D02*
X123535715Y-67436128D01*
X124035714Y-68436128D02*
X124035714Y-67436128D01*
X124035714Y-67721842D02*
X124107143Y-67578985D01*
X124107143Y-67578985D02*
X124178572Y-67507557D01*
X124178572Y-67507557D02*
X124321429Y-67436128D01*
X124321429Y-67436128D02*
X124464286Y-67436128D01*
X125607143Y-68436128D02*
X125607143Y-67650414D01*
X125607143Y-67650414D02*
X125535714Y-67507557D01*
X125535714Y-67507557D02*
X125392857Y-67436128D01*
X125392857Y-67436128D02*
X125107143Y-67436128D01*
X125107143Y-67436128D02*
X124964285Y-67507557D01*
X125607143Y-68364700D02*
X125464285Y-68436128D01*
X125464285Y-68436128D02*
X125107143Y-68436128D01*
X125107143Y-68436128D02*
X124964285Y-68364700D01*
X124964285Y-68364700D02*
X124892857Y-68221842D01*
X124892857Y-68221842D02*
X124892857Y-68078985D01*
X124892857Y-68078985D02*
X124964285Y-67936128D01*
X124964285Y-67936128D02*
X125107143Y-67864700D01*
X125107143Y-67864700D02*
X125464285Y-67864700D01*
X125464285Y-67864700D02*
X125607143Y-67793271D01*
X126178571Y-67436128D02*
X126535714Y-68436128D01*
X126892857Y-67436128D02*
X126535714Y-68436128D01*
X126535714Y-68436128D02*
X126392857Y-68793271D01*
X126392857Y-68793271D02*
X126321428Y-68864700D01*
X126321428Y-68864700D02*
X126178571Y-68936128D01*
X128607142Y-68436128D02*
X128607142Y-66936128D01*
X128607142Y-66936128D02*
X129178571Y-66936128D01*
X129178571Y-66936128D02*
X129321428Y-67007557D01*
X129321428Y-67007557D02*
X129392857Y-67078985D01*
X129392857Y-67078985D02*
X129464285Y-67221842D01*
X129464285Y-67221842D02*
X129464285Y-67436128D01*
X129464285Y-67436128D02*
X129392857Y-67578985D01*
X129392857Y-67578985D02*
X129321428Y-67650414D01*
X129321428Y-67650414D02*
X129178571Y-67721842D01*
X129178571Y-67721842D02*
X128607142Y-67721842D01*
X130107142Y-68436128D02*
X130107142Y-67436128D01*
X130107142Y-67721842D02*
X130178571Y-67578985D01*
X130178571Y-67578985D02*
X130250000Y-67507557D01*
X130250000Y-67507557D02*
X130392857Y-67436128D01*
X130392857Y-67436128D02*
X130535714Y-67436128D01*
X131607142Y-68364700D02*
X131464285Y-68436128D01*
X131464285Y-68436128D02*
X131178571Y-68436128D01*
X131178571Y-68436128D02*
X131035713Y-68364700D01*
X131035713Y-68364700D02*
X130964285Y-68221842D01*
X130964285Y-68221842D02*
X130964285Y-67650414D01*
X130964285Y-67650414D02*
X131035713Y-67507557D01*
X131035713Y-67507557D02*
X131178571Y-67436128D01*
X131178571Y-67436128D02*
X131464285Y-67436128D01*
X131464285Y-67436128D02*
X131607142Y-67507557D01*
X131607142Y-67507557D02*
X131678571Y-67650414D01*
X131678571Y-67650414D02*
X131678571Y-67793271D01*
X131678571Y-67793271D02*
X130964285Y-67936128D01*
X132964285Y-68364700D02*
X132821427Y-68436128D01*
X132821427Y-68436128D02*
X132535713Y-68436128D01*
X132535713Y-68436128D02*
X132392856Y-68364700D01*
X132392856Y-68364700D02*
X132321427Y-68293271D01*
X132321427Y-68293271D02*
X132249999Y-68150414D01*
X132249999Y-68150414D02*
X132249999Y-67721842D01*
X132249999Y-67721842D02*
X132321427Y-67578985D01*
X132321427Y-67578985D02*
X132392856Y-67507557D01*
X132392856Y-67507557D02*
X132535713Y-67436128D01*
X132535713Y-67436128D02*
X132821427Y-67436128D01*
X132821427Y-67436128D02*
X132964285Y-67507557D01*
X133607141Y-68436128D02*
X133607141Y-66936128D01*
X134249999Y-68436128D02*
X134249999Y-67650414D01*
X134249999Y-67650414D02*
X134178570Y-67507557D01*
X134178570Y-67507557D02*
X134035713Y-67436128D01*
X134035713Y-67436128D02*
X133821427Y-67436128D01*
X133821427Y-67436128D02*
X133678570Y-67507557D01*
X133678570Y-67507557D02*
X133607141Y-67578985D01*
X135607142Y-68436128D02*
X135607142Y-67650414D01*
X135607142Y-67650414D02*
X135535713Y-67507557D01*
X135535713Y-67507557D02*
X135392856Y-67436128D01*
X135392856Y-67436128D02*
X135107142Y-67436128D01*
X135107142Y-67436128D02*
X134964284Y-67507557D01*
X135607142Y-68364700D02*
X135464284Y-68436128D01*
X135464284Y-68436128D02*
X135107142Y-68436128D01*
X135107142Y-68436128D02*
X134964284Y-68364700D01*
X134964284Y-68364700D02*
X134892856Y-68221842D01*
X134892856Y-68221842D02*
X134892856Y-68078985D01*
X134892856Y-68078985D02*
X134964284Y-67936128D01*
X134964284Y-67936128D02*
X135107142Y-67864700D01*
X135107142Y-67864700D02*
X135464284Y-67864700D01*
X135464284Y-67864700D02*
X135607142Y-67793271D01*
X136321427Y-68436128D02*
X136321427Y-67436128D01*
X136321427Y-67721842D02*
X136392856Y-67578985D01*
X136392856Y-67578985D02*
X136464285Y-67507557D01*
X136464285Y-67507557D02*
X136607142Y-67436128D01*
X136607142Y-67436128D02*
X136749999Y-67436128D01*
X137892856Y-67436128D02*
X137892856Y-68650414D01*
X137892856Y-68650414D02*
X137821427Y-68793271D01*
X137821427Y-68793271D02*
X137749998Y-68864700D01*
X137749998Y-68864700D02*
X137607141Y-68936128D01*
X137607141Y-68936128D02*
X137392856Y-68936128D01*
X137392856Y-68936128D02*
X137249998Y-68864700D01*
X137892856Y-68364700D02*
X137749998Y-68436128D01*
X137749998Y-68436128D02*
X137464284Y-68436128D01*
X137464284Y-68436128D02*
X137321427Y-68364700D01*
X137321427Y-68364700D02*
X137249998Y-68293271D01*
X137249998Y-68293271D02*
X137178570Y-68150414D01*
X137178570Y-68150414D02*
X137178570Y-67721842D01*
X137178570Y-67721842D02*
X137249998Y-67578985D01*
X137249998Y-67578985D02*
X137321427Y-67507557D01*
X137321427Y-67507557D02*
X137464284Y-67436128D01*
X137464284Y-67436128D02*
X137749998Y-67436128D01*
X137749998Y-67436128D02*
X137892856Y-67507557D01*
X139178570Y-68364700D02*
X139035713Y-68436128D01*
X139035713Y-68436128D02*
X138749999Y-68436128D01*
X138749999Y-68436128D02*
X138607141Y-68364700D01*
X138607141Y-68364700D02*
X138535713Y-68221842D01*
X138535713Y-68221842D02*
X138535713Y-67650414D01*
X138535713Y-67650414D02*
X138607141Y-67507557D01*
X138607141Y-67507557D02*
X138749999Y-67436128D01*
X138749999Y-67436128D02*
X139035713Y-67436128D01*
X139035713Y-67436128D02*
X139178570Y-67507557D01*
X139178570Y-67507557D02*
X139249999Y-67650414D01*
X139249999Y-67650414D02*
X139249999Y-67793271D01*
X139249999Y-67793271D02*
X138535713Y-67936128D01*
X165404740Y-122470353D02*
X164928550Y-122470353D01*
X164928550Y-122470353D02*
X164928550Y-121470353D01*
X165928550Y-121470353D02*
X166119026Y-121470353D01*
X166119026Y-121470353D02*
X166214264Y-121517972D01*
X166214264Y-121517972D02*
X166309502Y-121613210D01*
X166309502Y-121613210D02*
X166357121Y-121803686D01*
X166357121Y-121803686D02*
X166357121Y-122137019D01*
X166357121Y-122137019D02*
X166309502Y-122327495D01*
X166309502Y-122327495D02*
X166214264Y-122422734D01*
X166214264Y-122422734D02*
X166119026Y-122470353D01*
X166119026Y-122470353D02*
X165928550Y-122470353D01*
X165928550Y-122470353D02*
X165833312Y-122422734D01*
X165833312Y-122422734D02*
X165738074Y-122327495D01*
X165738074Y-122327495D02*
X165690455Y-122137019D01*
X165690455Y-122137019D02*
X165690455Y-121803686D01*
X165690455Y-121803686D02*
X165738074Y-121613210D01*
X165738074Y-121613210D02*
X165833312Y-121517972D01*
X165833312Y-121517972D02*
X165928550Y-121470353D01*
X166690455Y-121470353D02*
X166928550Y-122470353D01*
X166928550Y-122470353D02*
X167119026Y-121756067D01*
X167119026Y-121756067D02*
X167309502Y-122470353D01*
X167309502Y-122470353D02*
X167547598Y-121470353D01*
X167690455Y-122565591D02*
X168452359Y-122565591D01*
X168547598Y-121470353D02*
X168880931Y-122470353D01*
X168880931Y-122470353D02*
X169214264Y-121470353D01*
X157689755Y-127457319D02*
X157880231Y-127457319D01*
X157880231Y-127457319D02*
X157975469Y-127504938D01*
X157975469Y-127504938D02*
X158070707Y-127600176D01*
X158070707Y-127600176D02*
X158118326Y-127790652D01*
X158118326Y-127790652D02*
X158118326Y-128123985D01*
X158118326Y-128123985D02*
X158070707Y-128314461D01*
X158070707Y-128314461D02*
X157975469Y-128409700D01*
X157975469Y-128409700D02*
X157880231Y-128457319D01*
X157880231Y-128457319D02*
X157689755Y-128457319D01*
X157689755Y-128457319D02*
X157594517Y-128409700D01*
X157594517Y-128409700D02*
X157499279Y-128314461D01*
X157499279Y-128314461D02*
X157451660Y-128123985D01*
X157451660Y-128123985D02*
X157451660Y-127790652D01*
X157451660Y-127790652D02*
X157499279Y-127600176D01*
X157499279Y-127600176D02*
X157594517Y-127504938D01*
X157594517Y-127504938D02*
X157689755Y-127457319D01*
X158880231Y-127933509D02*
X158546898Y-127933509D01*
X158546898Y-128457319D02*
X158546898Y-127457319D01*
X158546898Y-127457319D02*
X159023088Y-127457319D01*
X159737374Y-127933509D02*
X159404041Y-127933509D01*
X159404041Y-128457319D02*
X159404041Y-127457319D01*
X159404041Y-127457319D02*
X159880231Y-127457319D01*
X102885117Y-85333331D02*
X102968451Y-85416664D01*
X102968451Y-85416664D02*
X103051784Y-85666664D01*
X103051784Y-85666664D02*
X103051784Y-85833331D01*
X103051784Y-85833331D02*
X102968451Y-86083331D01*
X102968451Y-86083331D02*
X102801784Y-86249998D01*
X102801784Y-86249998D02*
X102635117Y-86333331D01*
X102635117Y-86333331D02*
X102301784Y-86416664D01*
X102301784Y-86416664D02*
X102051784Y-86416664D01*
X102051784Y-86416664D02*
X101718451Y-86333331D01*
X101718451Y-86333331D02*
X101551784Y-86249998D01*
X101551784Y-86249998D02*
X101385117Y-86083331D01*
X101385117Y-86083331D02*
X101301784Y-85833331D01*
X101301784Y-85833331D02*
X101301784Y-85666664D01*
X101301784Y-85666664D02*
X101385117Y-85416664D01*
X101385117Y-85416664D02*
X101468451Y-85333331D01*
X103051784Y-84333331D02*
X102968451Y-84499998D01*
X102968451Y-84499998D02*
X102885117Y-84583331D01*
X102885117Y-84583331D02*
X102718451Y-84666664D01*
X102718451Y-84666664D02*
X102218451Y-84666664D01*
X102218451Y-84666664D02*
X102051784Y-84583331D01*
X102051784Y-84583331D02*
X101968451Y-84499998D01*
X101968451Y-84499998D02*
X101885117Y-84333331D01*
X101885117Y-84333331D02*
X101885117Y-84083331D01*
X101885117Y-84083331D02*
X101968451Y-83916664D01*
X101968451Y-83916664D02*
X102051784Y-83833331D01*
X102051784Y-83833331D02*
X102218451Y-83749998D01*
X102218451Y-83749998D02*
X102718451Y-83749998D01*
X102718451Y-83749998D02*
X102885117Y-83833331D01*
X102885117Y-83833331D02*
X102968451Y-83916664D01*
X102968451Y-83916664D02*
X103051784Y-84083331D01*
X103051784Y-84083331D02*
X103051784Y-84333331D01*
X101885117Y-82999998D02*
X103051784Y-82999998D01*
X102051784Y-82999998D02*
X101968451Y-82916665D01*
X101968451Y-82916665D02*
X101885117Y-82749998D01*
X101885117Y-82749998D02*
X101885117Y-82499998D01*
X101885117Y-82499998D02*
X101968451Y-82333331D01*
X101968451Y-82333331D02*
X102135117Y-82249998D01*
X102135117Y-82249998D02*
X103051784Y-82249998D01*
X101885117Y-81666665D02*
X101885117Y-80999998D01*
X101301784Y-81416665D02*
X102801784Y-81416665D01*
X102801784Y-81416665D02*
X102968451Y-81333332D01*
X102968451Y-81333332D02*
X103051784Y-81166665D01*
X103051784Y-81166665D02*
X103051784Y-80999998D01*
X103051784Y-79666665D02*
X102135117Y-79666665D01*
X102135117Y-79666665D02*
X101968451Y-79749998D01*
X101968451Y-79749998D02*
X101885117Y-79916665D01*
X101885117Y-79916665D02*
X101885117Y-80249998D01*
X101885117Y-80249998D02*
X101968451Y-80416665D01*
X102968451Y-79666665D02*
X103051784Y-79833332D01*
X103051784Y-79833332D02*
X103051784Y-80249998D01*
X103051784Y-80249998D02*
X102968451Y-80416665D01*
X102968451Y-80416665D02*
X102801784Y-80499998D01*
X102801784Y-80499998D02*
X102635117Y-80499998D01*
X102635117Y-80499998D02*
X102468451Y-80416665D01*
X102468451Y-80416665D02*
X102385117Y-80249998D01*
X102385117Y-80249998D02*
X102385117Y-79833332D01*
X102385117Y-79833332D02*
X102301784Y-79666665D01*
X102968451Y-78083332D02*
X103051784Y-78249999D01*
X103051784Y-78249999D02*
X103051784Y-78583332D01*
X103051784Y-78583332D02*
X102968451Y-78749999D01*
X102968451Y-78749999D02*
X102885117Y-78833332D01*
X102885117Y-78833332D02*
X102718451Y-78916665D01*
X102718451Y-78916665D02*
X102218451Y-78916665D01*
X102218451Y-78916665D02*
X102051784Y-78833332D01*
X102051784Y-78833332D02*
X101968451Y-78749999D01*
X101968451Y-78749999D02*
X101885117Y-78583332D01*
X101885117Y-78583332D02*
X101885117Y-78249999D01*
X101885117Y-78249999D02*
X101968451Y-78083332D01*
X101885117Y-77583332D02*
X101885117Y-76916665D01*
X101301784Y-77333332D02*
X102801784Y-77333332D01*
X102801784Y-77333332D02*
X102968451Y-77249999D01*
X102968451Y-77249999D02*
X103051784Y-77083332D01*
X103051784Y-77083332D02*
X103051784Y-76916665D01*
X103051784Y-76083332D02*
X102968451Y-76249999D01*
X102968451Y-76249999D02*
X102885117Y-76333332D01*
X102885117Y-76333332D02*
X102718451Y-76416665D01*
X102718451Y-76416665D02*
X102218451Y-76416665D01*
X102218451Y-76416665D02*
X102051784Y-76333332D01*
X102051784Y-76333332D02*
X101968451Y-76249999D01*
X101968451Y-76249999D02*
X101885117Y-76083332D01*
X101885117Y-76083332D02*
X101885117Y-75833332D01*
X101885117Y-75833332D02*
X101968451Y-75666665D01*
X101968451Y-75666665D02*
X102051784Y-75583332D01*
X102051784Y-75583332D02*
X102218451Y-75499999D01*
X102218451Y-75499999D02*
X102718451Y-75499999D01*
X102718451Y-75499999D02*
X102885117Y-75583332D01*
X102885117Y-75583332D02*
X102968451Y-75666665D01*
X102968451Y-75666665D02*
X103051784Y-75833332D01*
X103051784Y-75833332D02*
X103051784Y-76083332D01*
X103051784Y-74749999D02*
X101885117Y-74749999D01*
X102218451Y-74749999D02*
X102051784Y-74666666D01*
X102051784Y-74666666D02*
X101968451Y-74583332D01*
X101968451Y-74583332D02*
X101885117Y-74416666D01*
X101885117Y-74416666D02*
X101885117Y-74249999D01*
X103051784Y-72333333D02*
X101301784Y-72333333D01*
X101885117Y-71500000D02*
X103051784Y-71500000D01*
X102051784Y-71500000D02*
X101968451Y-71416667D01*
X101968451Y-71416667D02*
X101885117Y-71250000D01*
X101885117Y-71250000D02*
X101885117Y-71000000D01*
X101885117Y-71000000D02*
X101968451Y-70833333D01*
X101968451Y-70833333D02*
X102135117Y-70750000D01*
X102135117Y-70750000D02*
X103051784Y-70750000D01*
X103051784Y-69166667D02*
X101301784Y-69166667D01*
X102968451Y-69166667D02*
X103051784Y-69333334D01*
X103051784Y-69333334D02*
X103051784Y-69666667D01*
X103051784Y-69666667D02*
X102968451Y-69833334D01*
X102968451Y-69833334D02*
X102885117Y-69916667D01*
X102885117Y-69916667D02*
X102718451Y-70000000D01*
X102718451Y-70000000D02*
X102218451Y-70000000D01*
X102218451Y-70000000D02*
X102051784Y-69916667D01*
X102051784Y-69916667D02*
X101968451Y-69833334D01*
X101968451Y-69833334D02*
X101885117Y-69666667D01*
X101885117Y-69666667D02*
X101885117Y-69333334D01*
X101885117Y-69333334D02*
X101968451Y-69166667D01*
X103051784Y-68333334D02*
X101885117Y-68333334D01*
X101301784Y-68333334D02*
X101385117Y-68416667D01*
X101385117Y-68416667D02*
X101468451Y-68333334D01*
X101468451Y-68333334D02*
X101385117Y-68250001D01*
X101385117Y-68250001D02*
X101301784Y-68333334D01*
X101301784Y-68333334D02*
X101468451Y-68333334D01*
X102968451Y-66750001D02*
X103051784Y-66916668D01*
X103051784Y-66916668D02*
X103051784Y-67250001D01*
X103051784Y-67250001D02*
X102968451Y-67416668D01*
X102968451Y-67416668D02*
X102885117Y-67500001D01*
X102885117Y-67500001D02*
X102718451Y-67583334D01*
X102718451Y-67583334D02*
X102218451Y-67583334D01*
X102218451Y-67583334D02*
X102051784Y-67500001D01*
X102051784Y-67500001D02*
X101968451Y-67416668D01*
X101968451Y-67416668D02*
X101885117Y-67250001D01*
X101885117Y-67250001D02*
X101885117Y-66916668D01*
X101885117Y-66916668D02*
X101968451Y-66750001D01*
X103051784Y-65250001D02*
X102135117Y-65250001D01*
X102135117Y-65250001D02*
X101968451Y-65333334D01*
X101968451Y-65333334D02*
X101885117Y-65500001D01*
X101885117Y-65500001D02*
X101885117Y-65833334D01*
X101885117Y-65833334D02*
X101968451Y-66000001D01*
X102968451Y-65250001D02*
X103051784Y-65416668D01*
X103051784Y-65416668D02*
X103051784Y-65833334D01*
X103051784Y-65833334D02*
X102968451Y-66000001D01*
X102968451Y-66000001D02*
X102801784Y-66083334D01*
X102801784Y-66083334D02*
X102635117Y-66083334D01*
X102635117Y-66083334D02*
X102468451Y-66000001D01*
X102468451Y-66000001D02*
X102385117Y-65833334D01*
X102385117Y-65833334D02*
X102385117Y-65416668D01*
X102385117Y-65416668D02*
X102301784Y-65250001D01*
X101885117Y-64666668D02*
X101885117Y-64000001D01*
X101301784Y-64416668D02*
X102801784Y-64416668D01*
X102801784Y-64416668D02*
X102968451Y-64333335D01*
X102968451Y-64333335D02*
X103051784Y-64166668D01*
X103051784Y-64166668D02*
X103051784Y-64000001D01*
X103051784Y-63166668D02*
X102968451Y-63333335D01*
X102968451Y-63333335D02*
X102885117Y-63416668D01*
X102885117Y-63416668D02*
X102718451Y-63500001D01*
X102718451Y-63500001D02*
X102218451Y-63500001D01*
X102218451Y-63500001D02*
X102051784Y-63416668D01*
X102051784Y-63416668D02*
X101968451Y-63333335D01*
X101968451Y-63333335D02*
X101885117Y-63166668D01*
X101885117Y-63166668D02*
X101885117Y-62916668D01*
X101885117Y-62916668D02*
X101968451Y-62750001D01*
X101968451Y-62750001D02*
X102051784Y-62666668D01*
X102051784Y-62666668D02*
X102218451Y-62583335D01*
X102218451Y-62583335D02*
X102718451Y-62583335D01*
X102718451Y-62583335D02*
X102885117Y-62666668D01*
X102885117Y-62666668D02*
X102968451Y-62750001D01*
X102968451Y-62750001D02*
X103051784Y-62916668D01*
X103051784Y-62916668D02*
X103051784Y-63166668D01*
X103051784Y-61833335D02*
X101885117Y-61833335D01*
X102218451Y-61833335D02*
X102051784Y-61750002D01*
X102051784Y-61750002D02*
X101968451Y-61666668D01*
X101968451Y-61666668D02*
X101885117Y-61500002D01*
X101885117Y-61500002D02*
X101885117Y-61333335D01*
X102968451Y-60833335D02*
X103051784Y-60666669D01*
X103051784Y-60666669D02*
X103051784Y-60333335D01*
X103051784Y-60333335D02*
X102968451Y-60166669D01*
X102968451Y-60166669D02*
X102801784Y-60083335D01*
X102801784Y-60083335D02*
X102718451Y-60083335D01*
X102718451Y-60083335D02*
X102551784Y-60166669D01*
X102551784Y-60166669D02*
X102468451Y-60333335D01*
X102468451Y-60333335D02*
X102468451Y-60583335D01*
X102468451Y-60583335D02*
X102385117Y-60750002D01*
X102385117Y-60750002D02*
X102218451Y-60833335D01*
X102218451Y-60833335D02*
X102135117Y-60833335D01*
X102135117Y-60833335D02*
X101968451Y-60750002D01*
X101968451Y-60750002D02*
X101885117Y-60583335D01*
X101885117Y-60583335D02*
X101885117Y-60333335D01*
X101885117Y-60333335D02*
X101968451Y-60166669D01*
X121785714Y-78936128D02*
X121785714Y-77436128D01*
X121785714Y-77436128D02*
X122285714Y-78507557D01*
X122285714Y-78507557D02*
X122785714Y-77436128D01*
X122785714Y-77436128D02*
X122785714Y-78936128D01*
X123714286Y-78936128D02*
X123571429Y-78864700D01*
X123571429Y-78864700D02*
X123500000Y-78793271D01*
X123500000Y-78793271D02*
X123428572Y-78650414D01*
X123428572Y-78650414D02*
X123428572Y-78221842D01*
X123428572Y-78221842D02*
X123500000Y-78078985D01*
X123500000Y-78078985D02*
X123571429Y-78007557D01*
X123571429Y-78007557D02*
X123714286Y-77936128D01*
X123714286Y-77936128D02*
X123928572Y-77936128D01*
X123928572Y-77936128D02*
X124071429Y-78007557D01*
X124071429Y-78007557D02*
X124142858Y-78078985D01*
X124142858Y-78078985D02*
X124214286Y-78221842D01*
X124214286Y-78221842D02*
X124214286Y-78650414D01*
X124214286Y-78650414D02*
X124142858Y-78793271D01*
X124142858Y-78793271D02*
X124071429Y-78864700D01*
X124071429Y-78864700D02*
X123928572Y-78936128D01*
X123928572Y-78936128D02*
X123714286Y-78936128D01*
X124642858Y-77936128D02*
X125214286Y-77936128D01*
X124857143Y-77436128D02*
X124857143Y-78721842D01*
X124857143Y-78721842D02*
X124928572Y-78864700D01*
X124928572Y-78864700D02*
X125071429Y-78936128D01*
X125071429Y-78936128D02*
X125214286Y-78936128D01*
X125928572Y-78936128D02*
X125785715Y-78864700D01*
X125785715Y-78864700D02*
X125714286Y-78793271D01*
X125714286Y-78793271D02*
X125642858Y-78650414D01*
X125642858Y-78650414D02*
X125642858Y-78221842D01*
X125642858Y-78221842D02*
X125714286Y-78078985D01*
X125714286Y-78078985D02*
X125785715Y-78007557D01*
X125785715Y-78007557D02*
X125928572Y-77936128D01*
X125928572Y-77936128D02*
X126142858Y-77936128D01*
X126142858Y-77936128D02*
X126285715Y-78007557D01*
X126285715Y-78007557D02*
X126357144Y-78078985D01*
X126357144Y-78078985D02*
X126428572Y-78221842D01*
X126428572Y-78221842D02*
X126428572Y-78650414D01*
X126428572Y-78650414D02*
X126357144Y-78793271D01*
X126357144Y-78793271D02*
X126285715Y-78864700D01*
X126285715Y-78864700D02*
X126142858Y-78936128D01*
X126142858Y-78936128D02*
X125928572Y-78936128D01*
X127071429Y-78936128D02*
X127071429Y-77936128D01*
X127071429Y-78221842D02*
X127142858Y-78078985D01*
X127142858Y-78078985D02*
X127214287Y-78007557D01*
X127214287Y-78007557D02*
X127357144Y-77936128D01*
X127357144Y-77936128D02*
X127500001Y-77936128D01*
X129142857Y-78936128D02*
X129142857Y-77436128D01*
X129142857Y-77436128D02*
X129714286Y-77436128D01*
X129714286Y-77436128D02*
X129857143Y-77507557D01*
X129857143Y-77507557D02*
X129928572Y-77578985D01*
X129928572Y-77578985D02*
X130000000Y-77721842D01*
X130000000Y-77721842D02*
X130000000Y-77936128D01*
X130000000Y-77936128D02*
X129928572Y-78078985D01*
X129928572Y-78078985D02*
X129857143Y-78150414D01*
X129857143Y-78150414D02*
X129714286Y-78221842D01*
X129714286Y-78221842D02*
X129142857Y-78221842D01*
X130642857Y-78936128D02*
X130642857Y-77936128D01*
X130642857Y-78221842D02*
X130714286Y-78078985D01*
X130714286Y-78078985D02*
X130785715Y-78007557D01*
X130785715Y-78007557D02*
X130928572Y-77936128D01*
X130928572Y-77936128D02*
X131071429Y-77936128D01*
X132142857Y-78864700D02*
X132000000Y-78936128D01*
X132000000Y-78936128D02*
X131714286Y-78936128D01*
X131714286Y-78936128D02*
X131571428Y-78864700D01*
X131571428Y-78864700D02*
X131500000Y-78721842D01*
X131500000Y-78721842D02*
X131500000Y-78150414D01*
X131500000Y-78150414D02*
X131571428Y-78007557D01*
X131571428Y-78007557D02*
X131714286Y-77936128D01*
X131714286Y-77936128D02*
X132000000Y-77936128D01*
X132000000Y-77936128D02*
X132142857Y-78007557D01*
X132142857Y-78007557D02*
X132214286Y-78150414D01*
X132214286Y-78150414D02*
X132214286Y-78293271D01*
X132214286Y-78293271D02*
X131500000Y-78436128D01*
X133500000Y-78864700D02*
X133357142Y-78936128D01*
X133357142Y-78936128D02*
X133071428Y-78936128D01*
X133071428Y-78936128D02*
X132928571Y-78864700D01*
X132928571Y-78864700D02*
X132857142Y-78793271D01*
X132857142Y-78793271D02*
X132785714Y-78650414D01*
X132785714Y-78650414D02*
X132785714Y-78221842D01*
X132785714Y-78221842D02*
X132857142Y-78078985D01*
X132857142Y-78078985D02*
X132928571Y-78007557D01*
X132928571Y-78007557D02*
X133071428Y-77936128D01*
X133071428Y-77936128D02*
X133357142Y-77936128D01*
X133357142Y-77936128D02*
X133500000Y-78007557D01*
X134142856Y-78936128D02*
X134142856Y-77436128D01*
X134785714Y-78936128D02*
X134785714Y-78150414D01*
X134785714Y-78150414D02*
X134714285Y-78007557D01*
X134714285Y-78007557D02*
X134571428Y-77936128D01*
X134571428Y-77936128D02*
X134357142Y-77936128D01*
X134357142Y-77936128D02*
X134214285Y-78007557D01*
X134214285Y-78007557D02*
X134142856Y-78078985D01*
X136142857Y-78936128D02*
X136142857Y-78150414D01*
X136142857Y-78150414D02*
X136071428Y-78007557D01*
X136071428Y-78007557D02*
X135928571Y-77936128D01*
X135928571Y-77936128D02*
X135642857Y-77936128D01*
X135642857Y-77936128D02*
X135499999Y-78007557D01*
X136142857Y-78864700D02*
X135999999Y-78936128D01*
X135999999Y-78936128D02*
X135642857Y-78936128D01*
X135642857Y-78936128D02*
X135499999Y-78864700D01*
X135499999Y-78864700D02*
X135428571Y-78721842D01*
X135428571Y-78721842D02*
X135428571Y-78578985D01*
X135428571Y-78578985D02*
X135499999Y-78436128D01*
X135499999Y-78436128D02*
X135642857Y-78364700D01*
X135642857Y-78364700D02*
X135999999Y-78364700D01*
X135999999Y-78364700D02*
X136142857Y-78293271D01*
X136857142Y-78936128D02*
X136857142Y-77936128D01*
X136857142Y-78221842D02*
X136928571Y-78078985D01*
X136928571Y-78078985D02*
X137000000Y-78007557D01*
X137000000Y-78007557D02*
X137142857Y-77936128D01*
X137142857Y-77936128D02*
X137285714Y-77936128D01*
X138428571Y-77936128D02*
X138428571Y-79150414D01*
X138428571Y-79150414D02*
X138357142Y-79293271D01*
X138357142Y-79293271D02*
X138285713Y-79364700D01*
X138285713Y-79364700D02*
X138142856Y-79436128D01*
X138142856Y-79436128D02*
X137928571Y-79436128D01*
X137928571Y-79436128D02*
X137785713Y-79364700D01*
X138428571Y-78864700D02*
X138285713Y-78936128D01*
X138285713Y-78936128D02*
X137999999Y-78936128D01*
X137999999Y-78936128D02*
X137857142Y-78864700D01*
X137857142Y-78864700D02*
X137785713Y-78793271D01*
X137785713Y-78793271D02*
X137714285Y-78650414D01*
X137714285Y-78650414D02*
X137714285Y-78221842D01*
X137714285Y-78221842D02*
X137785713Y-78078985D01*
X137785713Y-78078985D02*
X137857142Y-78007557D01*
X137857142Y-78007557D02*
X137999999Y-77936128D01*
X137999999Y-77936128D02*
X138285713Y-77936128D01*
X138285713Y-77936128D02*
X138428571Y-78007557D01*
X139714285Y-78864700D02*
X139571428Y-78936128D01*
X139571428Y-78936128D02*
X139285714Y-78936128D01*
X139285714Y-78936128D02*
X139142856Y-78864700D01*
X139142856Y-78864700D02*
X139071428Y-78721842D01*
X139071428Y-78721842D02*
X139071428Y-78150414D01*
X139071428Y-78150414D02*
X139142856Y-78007557D01*
X139142856Y-78007557D02*
X139285714Y-77936128D01*
X139285714Y-77936128D02*
X139571428Y-77936128D01*
X139571428Y-77936128D02*
X139714285Y-78007557D01*
X139714285Y-78007557D02*
X139785714Y-78150414D01*
X139785714Y-78150414D02*
X139785714Y-78293271D01*
X139785714Y-78293271D02*
X139071428Y-78436128D01*
X121857142Y-75186128D02*
X121857142Y-73686128D01*
X121857142Y-73686128D02*
X122357142Y-74757557D01*
X122357142Y-74757557D02*
X122857142Y-73686128D01*
X122857142Y-73686128D02*
X122857142Y-75186128D01*
X123785714Y-75186128D02*
X123642857Y-75114700D01*
X123642857Y-75114700D02*
X123571428Y-75043271D01*
X123571428Y-75043271D02*
X123500000Y-74900414D01*
X123500000Y-74900414D02*
X123500000Y-74471842D01*
X123500000Y-74471842D02*
X123571428Y-74328985D01*
X123571428Y-74328985D02*
X123642857Y-74257557D01*
X123642857Y-74257557D02*
X123785714Y-74186128D01*
X123785714Y-74186128D02*
X124000000Y-74186128D01*
X124000000Y-74186128D02*
X124142857Y-74257557D01*
X124142857Y-74257557D02*
X124214286Y-74328985D01*
X124214286Y-74328985D02*
X124285714Y-74471842D01*
X124285714Y-74471842D02*
X124285714Y-74900414D01*
X124285714Y-74900414D02*
X124214286Y-75043271D01*
X124214286Y-75043271D02*
X124142857Y-75114700D01*
X124142857Y-75114700D02*
X124000000Y-75186128D01*
X124000000Y-75186128D02*
X123785714Y-75186128D01*
X124714286Y-74186128D02*
X125285714Y-74186128D01*
X124928571Y-73686128D02*
X124928571Y-74971842D01*
X124928571Y-74971842D02*
X125000000Y-75114700D01*
X125000000Y-75114700D02*
X125142857Y-75186128D01*
X125142857Y-75186128D02*
X125285714Y-75186128D01*
X126000000Y-75186128D02*
X125857143Y-75114700D01*
X125857143Y-75114700D02*
X125785714Y-75043271D01*
X125785714Y-75043271D02*
X125714286Y-74900414D01*
X125714286Y-74900414D02*
X125714286Y-74471842D01*
X125714286Y-74471842D02*
X125785714Y-74328985D01*
X125785714Y-74328985D02*
X125857143Y-74257557D01*
X125857143Y-74257557D02*
X126000000Y-74186128D01*
X126000000Y-74186128D02*
X126214286Y-74186128D01*
X126214286Y-74186128D02*
X126357143Y-74257557D01*
X126357143Y-74257557D02*
X126428572Y-74328985D01*
X126428572Y-74328985D02*
X126500000Y-74471842D01*
X126500000Y-74471842D02*
X126500000Y-74900414D01*
X126500000Y-74900414D02*
X126428572Y-75043271D01*
X126428572Y-75043271D02*
X126357143Y-75114700D01*
X126357143Y-75114700D02*
X126214286Y-75186128D01*
X126214286Y-75186128D02*
X126000000Y-75186128D01*
X127142857Y-75186128D02*
X127142857Y-74186128D01*
X127142857Y-74471842D02*
X127214286Y-74328985D01*
X127214286Y-74328985D02*
X127285715Y-74257557D01*
X127285715Y-74257557D02*
X127428572Y-74186128D01*
X127428572Y-74186128D02*
X127571429Y-74186128D01*
X129214285Y-75186128D02*
X129214285Y-73686128D01*
X129214285Y-73686128D02*
X129714285Y-74757557D01*
X129714285Y-74757557D02*
X130214285Y-73686128D01*
X130214285Y-73686128D02*
X130214285Y-75186128D01*
X131571429Y-75186128D02*
X131571429Y-74400414D01*
X131571429Y-74400414D02*
X131500000Y-74257557D01*
X131500000Y-74257557D02*
X131357143Y-74186128D01*
X131357143Y-74186128D02*
X131071429Y-74186128D01*
X131071429Y-74186128D02*
X130928571Y-74257557D01*
X131571429Y-75114700D02*
X131428571Y-75186128D01*
X131428571Y-75186128D02*
X131071429Y-75186128D01*
X131071429Y-75186128D02*
X130928571Y-75114700D01*
X130928571Y-75114700D02*
X130857143Y-74971842D01*
X130857143Y-74971842D02*
X130857143Y-74828985D01*
X130857143Y-74828985D02*
X130928571Y-74686128D01*
X130928571Y-74686128D02*
X131071429Y-74614700D01*
X131071429Y-74614700D02*
X131428571Y-74614700D01*
X131428571Y-74614700D02*
X131571429Y-74543271D01*
X132285714Y-75186128D02*
X132285714Y-74186128D01*
X132285714Y-73686128D02*
X132214286Y-73757557D01*
X132214286Y-73757557D02*
X132285714Y-73828985D01*
X132285714Y-73828985D02*
X132357143Y-73757557D01*
X132357143Y-73757557D02*
X132285714Y-73686128D01*
X132285714Y-73686128D02*
X132285714Y-73828985D01*
X133000000Y-74186128D02*
X133000000Y-75186128D01*
X133000000Y-74328985D02*
X133071429Y-74257557D01*
X133071429Y-74257557D02*
X133214286Y-74186128D01*
X133214286Y-74186128D02*
X133428572Y-74186128D01*
X133428572Y-74186128D02*
X133571429Y-74257557D01*
X133571429Y-74257557D02*
X133642858Y-74400414D01*
X133642858Y-74400414D02*
X133642858Y-75186128D01*
D11*
X110321427Y-144969161D02*
X110226189Y-145064400D01*
X110226189Y-145064400D02*
X109940475Y-145159638D01*
X109940475Y-145159638D02*
X109749999Y-145159638D01*
X109749999Y-145159638D02*
X109464284Y-145064400D01*
X109464284Y-145064400D02*
X109273808Y-144873923D01*
X109273808Y-144873923D02*
X109178570Y-144683447D01*
X109178570Y-144683447D02*
X109083332Y-144302495D01*
X109083332Y-144302495D02*
X109083332Y-144016780D01*
X109083332Y-144016780D02*
X109178570Y-143635828D01*
X109178570Y-143635828D02*
X109273808Y-143445352D01*
X109273808Y-143445352D02*
X109464284Y-143254876D01*
X109464284Y-143254876D02*
X109749999Y-143159638D01*
X109749999Y-143159638D02*
X109940475Y-143159638D01*
X109940475Y-143159638D02*
X110226189Y-143254876D01*
X110226189Y-143254876D02*
X110321427Y-143350114D01*
X111464284Y-145159638D02*
X111273808Y-145064400D01*
X111273808Y-145064400D02*
X111178570Y-144969161D01*
X111178570Y-144969161D02*
X111083332Y-144778685D01*
X111083332Y-144778685D02*
X111083332Y-144207257D01*
X111083332Y-144207257D02*
X111178570Y-144016780D01*
X111178570Y-144016780D02*
X111273808Y-143921542D01*
X111273808Y-143921542D02*
X111464284Y-143826304D01*
X111464284Y-143826304D02*
X111749999Y-143826304D01*
X111749999Y-143826304D02*
X111940475Y-143921542D01*
X111940475Y-143921542D02*
X112035713Y-144016780D01*
X112035713Y-144016780D02*
X112130951Y-144207257D01*
X112130951Y-144207257D02*
X112130951Y-144778685D01*
X112130951Y-144778685D02*
X112035713Y-144969161D01*
X112035713Y-144969161D02*
X111940475Y-145064400D01*
X111940475Y-145064400D02*
X111749999Y-145159638D01*
X111749999Y-145159638D02*
X111464284Y-145159638D01*
X112988094Y-143826304D02*
X112988094Y-145159638D01*
X112988094Y-144016780D02*
X113083332Y-143921542D01*
X113083332Y-143921542D02*
X113273808Y-143826304D01*
X113273808Y-143826304D02*
X113559523Y-143826304D01*
X113559523Y-143826304D02*
X113749999Y-143921542D01*
X113749999Y-143921542D02*
X113845237Y-144112019D01*
X113845237Y-144112019D02*
X113845237Y-145159638D01*
X114511904Y-143826304D02*
X115273808Y-143826304D01*
X114797618Y-143159638D02*
X114797618Y-144873923D01*
X114797618Y-144873923D02*
X114892856Y-145064400D01*
X114892856Y-145064400D02*
X115083332Y-145159638D01*
X115083332Y-145159638D02*
X115273808Y-145159638D01*
X115940475Y-145159638D02*
X115940475Y-143826304D01*
X115940475Y-144207257D02*
X116035713Y-144016780D01*
X116035713Y-144016780D02*
X116130951Y-143921542D01*
X116130951Y-143921542D02*
X116321427Y-143826304D01*
X116321427Y-143826304D02*
X116511904Y-143826304D01*
X117464284Y-145159638D02*
X117273808Y-145064400D01*
X117273808Y-145064400D02*
X117178570Y-144969161D01*
X117178570Y-144969161D02*
X117083332Y-144778685D01*
X117083332Y-144778685D02*
X117083332Y-144207257D01*
X117083332Y-144207257D02*
X117178570Y-144016780D01*
X117178570Y-144016780D02*
X117273808Y-143921542D01*
X117273808Y-143921542D02*
X117464284Y-143826304D01*
X117464284Y-143826304D02*
X117749999Y-143826304D01*
X117749999Y-143826304D02*
X117940475Y-143921542D01*
X117940475Y-143921542D02*
X118035713Y-144016780D01*
X118035713Y-144016780D02*
X118130951Y-144207257D01*
X118130951Y-144207257D02*
X118130951Y-144778685D01*
X118130951Y-144778685D02*
X118035713Y-144969161D01*
X118035713Y-144969161D02*
X117940475Y-145064400D01*
X117940475Y-145064400D02*
X117749999Y-145159638D01*
X117749999Y-145159638D02*
X117464284Y-145159638D01*
X119273808Y-145159638D02*
X119083332Y-145064400D01*
X119083332Y-145064400D02*
X118988094Y-144873923D01*
X118988094Y-144873923D02*
X118988094Y-143159638D01*
X119940475Y-145064400D02*
X120130951Y-145159638D01*
X120130951Y-145159638D02*
X120511903Y-145159638D01*
X120511903Y-145159638D02*
X120702380Y-145064400D01*
X120702380Y-145064400D02*
X120797618Y-144873923D01*
X120797618Y-144873923D02*
X120797618Y-144778685D01*
X120797618Y-144778685D02*
X120702380Y-144588209D01*
X120702380Y-144588209D02*
X120511903Y-144492971D01*
X120511903Y-144492971D02*
X120226189Y-144492971D01*
X120226189Y-144492971D02*
X120035713Y-144397733D01*
X120035713Y-144397733D02*
X119940475Y-144207257D01*
X119940475Y-144207257D02*
X119940475Y-144112019D01*
X119940475Y-144112019D02*
X120035713Y-143921542D01*
X120035713Y-143921542D02*
X120226189Y-143826304D01*
X120226189Y-143826304D02*
X120511903Y-143826304D01*
X120511903Y-143826304D02*
X120702380Y-143921542D01*
X123083333Y-145064400D02*
X123369047Y-145159638D01*
X123369047Y-145159638D02*
X123845238Y-145159638D01*
X123845238Y-145159638D02*
X124035714Y-145064400D01*
X124035714Y-145064400D02*
X124130952Y-144969161D01*
X124130952Y-144969161D02*
X124226190Y-144778685D01*
X124226190Y-144778685D02*
X124226190Y-144588209D01*
X124226190Y-144588209D02*
X124130952Y-144397733D01*
X124130952Y-144397733D02*
X124035714Y-144302495D01*
X124035714Y-144302495D02*
X123845238Y-144207257D01*
X123845238Y-144207257D02*
X123464285Y-144112019D01*
X123464285Y-144112019D02*
X123273809Y-144016780D01*
X123273809Y-144016780D02*
X123178571Y-143921542D01*
X123178571Y-143921542D02*
X123083333Y-143731066D01*
X123083333Y-143731066D02*
X123083333Y-143540590D01*
X123083333Y-143540590D02*
X123178571Y-143350114D01*
X123178571Y-143350114D02*
X123273809Y-143254876D01*
X123273809Y-143254876D02*
X123464285Y-143159638D01*
X123464285Y-143159638D02*
X123940476Y-143159638D01*
X123940476Y-143159638D02*
X124226190Y-143254876D01*
X125083333Y-145159638D02*
X125083333Y-143826304D01*
X125083333Y-143159638D02*
X124988095Y-143254876D01*
X124988095Y-143254876D02*
X125083333Y-143350114D01*
X125083333Y-143350114D02*
X125178571Y-143254876D01*
X125178571Y-143254876D02*
X125083333Y-143159638D01*
X125083333Y-143159638D02*
X125083333Y-143350114D01*
X126035714Y-145159638D02*
X126035714Y-143826304D01*
X126035714Y-144016780D02*
X126130952Y-143921542D01*
X126130952Y-143921542D02*
X126321428Y-143826304D01*
X126321428Y-143826304D02*
X126607143Y-143826304D01*
X126607143Y-143826304D02*
X126797619Y-143921542D01*
X126797619Y-143921542D02*
X126892857Y-144112019D01*
X126892857Y-144112019D02*
X126892857Y-145159638D01*
X126892857Y-144112019D02*
X126988095Y-143921542D01*
X126988095Y-143921542D02*
X127178571Y-143826304D01*
X127178571Y-143826304D02*
X127464285Y-143826304D01*
X127464285Y-143826304D02*
X127654762Y-143921542D01*
X127654762Y-143921542D02*
X127750000Y-144112019D01*
X127750000Y-144112019D02*
X127750000Y-145159638D01*
X129559524Y-143826304D02*
X129559524Y-145159638D01*
X128702381Y-143826304D02*
X128702381Y-144873923D01*
X128702381Y-144873923D02*
X128797619Y-145064400D01*
X128797619Y-145064400D02*
X128988095Y-145159638D01*
X128988095Y-145159638D02*
X129273810Y-145159638D01*
X129273810Y-145159638D02*
X129464286Y-145064400D01*
X129464286Y-145064400D02*
X129559524Y-144969161D01*
X130797619Y-145159638D02*
X130607143Y-145064400D01*
X130607143Y-145064400D02*
X130511905Y-144873923D01*
X130511905Y-144873923D02*
X130511905Y-143159638D01*
X132416667Y-145159638D02*
X132416667Y-144112019D01*
X132416667Y-144112019D02*
X132321429Y-143921542D01*
X132321429Y-143921542D02*
X132130953Y-143826304D01*
X132130953Y-143826304D02*
X131750000Y-143826304D01*
X131750000Y-143826304D02*
X131559524Y-143921542D01*
X132416667Y-145064400D02*
X132226191Y-145159638D01*
X132226191Y-145159638D02*
X131750000Y-145159638D01*
X131750000Y-145159638D02*
X131559524Y-145064400D01*
X131559524Y-145064400D02*
X131464286Y-144873923D01*
X131464286Y-144873923D02*
X131464286Y-144683447D01*
X131464286Y-144683447D02*
X131559524Y-144492971D01*
X131559524Y-144492971D02*
X131750000Y-144397733D01*
X131750000Y-144397733D02*
X132226191Y-144397733D01*
X132226191Y-144397733D02*
X132416667Y-144302495D01*
X133083334Y-143826304D02*
X133845238Y-143826304D01*
X133369048Y-143159638D02*
X133369048Y-144873923D01*
X133369048Y-144873923D02*
X133464286Y-145064400D01*
X133464286Y-145064400D02*
X133654762Y-145159638D01*
X133654762Y-145159638D02*
X133845238Y-145159638D01*
X134511905Y-145159638D02*
X134511905Y-143826304D01*
X134511905Y-143159638D02*
X134416667Y-143254876D01*
X134416667Y-143254876D02*
X134511905Y-143350114D01*
X134511905Y-143350114D02*
X134607143Y-143254876D01*
X134607143Y-143254876D02*
X134511905Y-143159638D01*
X134511905Y-143159638D02*
X134511905Y-143350114D01*
X135750000Y-145159638D02*
X135559524Y-145064400D01*
X135559524Y-145064400D02*
X135464286Y-144969161D01*
X135464286Y-144969161D02*
X135369048Y-144778685D01*
X135369048Y-144778685D02*
X135369048Y-144207257D01*
X135369048Y-144207257D02*
X135464286Y-144016780D01*
X135464286Y-144016780D02*
X135559524Y-143921542D01*
X135559524Y-143921542D02*
X135750000Y-143826304D01*
X135750000Y-143826304D02*
X136035715Y-143826304D01*
X136035715Y-143826304D02*
X136226191Y-143921542D01*
X136226191Y-143921542D02*
X136321429Y-144016780D01*
X136321429Y-144016780D02*
X136416667Y-144207257D01*
X136416667Y-144207257D02*
X136416667Y-144778685D01*
X136416667Y-144778685D02*
X136321429Y-144969161D01*
X136321429Y-144969161D02*
X136226191Y-145064400D01*
X136226191Y-145064400D02*
X136035715Y-145159638D01*
X136035715Y-145159638D02*
X135750000Y-145159638D01*
X137273810Y-143826304D02*
X137273810Y-145159638D01*
X137273810Y-144016780D02*
X137369048Y-143921542D01*
X137369048Y-143921542D02*
X137559524Y-143826304D01*
X137559524Y-143826304D02*
X137845239Y-143826304D01*
X137845239Y-143826304D02*
X138035715Y-143921542D01*
X138035715Y-143921542D02*
X138130953Y-144112019D01*
X138130953Y-144112019D02*
X138130953Y-145159638D01*
X141273811Y-144112019D02*
X141559525Y-144207257D01*
X141559525Y-144207257D02*
X141654763Y-144302495D01*
X141654763Y-144302495D02*
X141750001Y-144492971D01*
X141750001Y-144492971D02*
X141750001Y-144778685D01*
X141750001Y-144778685D02*
X141654763Y-144969161D01*
X141654763Y-144969161D02*
X141559525Y-145064400D01*
X141559525Y-145064400D02*
X141369049Y-145159638D01*
X141369049Y-145159638D02*
X140607144Y-145159638D01*
X140607144Y-145159638D02*
X140607144Y-143159638D01*
X140607144Y-143159638D02*
X141273811Y-143159638D01*
X141273811Y-143159638D02*
X141464287Y-143254876D01*
X141464287Y-143254876D02*
X141559525Y-143350114D01*
X141559525Y-143350114D02*
X141654763Y-143540590D01*
X141654763Y-143540590D02*
X141654763Y-143731066D01*
X141654763Y-143731066D02*
X141559525Y-143921542D01*
X141559525Y-143921542D02*
X141464287Y-144016780D01*
X141464287Y-144016780D02*
X141273811Y-144112019D01*
X141273811Y-144112019D02*
X140607144Y-144112019D01*
X142892858Y-145159638D02*
X142702382Y-145064400D01*
X142702382Y-145064400D02*
X142607144Y-144969161D01*
X142607144Y-144969161D02*
X142511906Y-144778685D01*
X142511906Y-144778685D02*
X142511906Y-144207257D01*
X142511906Y-144207257D02*
X142607144Y-144016780D01*
X142607144Y-144016780D02*
X142702382Y-143921542D01*
X142702382Y-143921542D02*
X142892858Y-143826304D01*
X142892858Y-143826304D02*
X143178573Y-143826304D01*
X143178573Y-143826304D02*
X143369049Y-143921542D01*
X143369049Y-143921542D02*
X143464287Y-144016780D01*
X143464287Y-144016780D02*
X143559525Y-144207257D01*
X143559525Y-144207257D02*
X143559525Y-144778685D01*
X143559525Y-144778685D02*
X143464287Y-144969161D01*
X143464287Y-144969161D02*
X143369049Y-145064400D01*
X143369049Y-145064400D02*
X143178573Y-145159638D01*
X143178573Y-145159638D02*
X142892858Y-145159638D01*
X145273811Y-145159638D02*
X145273811Y-144112019D01*
X145273811Y-144112019D02*
X145178573Y-143921542D01*
X145178573Y-143921542D02*
X144988097Y-143826304D01*
X144988097Y-143826304D02*
X144607144Y-143826304D01*
X144607144Y-143826304D02*
X144416668Y-143921542D01*
X145273811Y-145064400D02*
X145083335Y-145159638D01*
X145083335Y-145159638D02*
X144607144Y-145159638D01*
X144607144Y-145159638D02*
X144416668Y-145064400D01*
X144416668Y-145064400D02*
X144321430Y-144873923D01*
X144321430Y-144873923D02*
X144321430Y-144683447D01*
X144321430Y-144683447D02*
X144416668Y-144492971D01*
X144416668Y-144492971D02*
X144607144Y-144397733D01*
X144607144Y-144397733D02*
X145083335Y-144397733D01*
X145083335Y-144397733D02*
X145273811Y-144302495D01*
X146226192Y-145159638D02*
X146226192Y-143826304D01*
X146226192Y-144207257D02*
X146321430Y-144016780D01*
X146321430Y-144016780D02*
X146416668Y-143921542D01*
X146416668Y-143921542D02*
X146607144Y-143826304D01*
X146607144Y-143826304D02*
X146797621Y-143826304D01*
X148321430Y-145159638D02*
X148321430Y-143159638D01*
X148321430Y-145064400D02*
X148130954Y-145159638D01*
X148130954Y-145159638D02*
X147750001Y-145159638D01*
X147750001Y-145159638D02*
X147559525Y-145064400D01*
X147559525Y-145064400D02*
X147464287Y-144969161D01*
X147464287Y-144969161D02*
X147369049Y-144778685D01*
X147369049Y-144778685D02*
X147369049Y-144207257D01*
X147369049Y-144207257D02*
X147464287Y-144016780D01*
X147464287Y-144016780D02*
X147559525Y-143921542D01*
X147559525Y-143921542D02*
X147750001Y-143826304D01*
X147750001Y-143826304D02*
X148130954Y-143826304D01*
X148130954Y-143826304D02*
X148321430Y-143921542D01*
D10*
X121821429Y-64257557D02*
X122535715Y-64257557D01*
X121678572Y-64686128D02*
X122178572Y-63186128D01*
X122178572Y-63186128D02*
X122678572Y-64686128D01*
X123178571Y-64686128D02*
X123178571Y-63686128D01*
X123178571Y-63971842D02*
X123250000Y-63828985D01*
X123250000Y-63828985D02*
X123321429Y-63757557D01*
X123321429Y-63757557D02*
X123464286Y-63686128D01*
X123464286Y-63686128D02*
X123607143Y-63686128D01*
X124107142Y-64686128D02*
X124107142Y-63686128D01*
X124107142Y-63971842D02*
X124178571Y-63828985D01*
X124178571Y-63828985D02*
X124250000Y-63757557D01*
X124250000Y-63757557D02*
X124392857Y-63686128D01*
X124392857Y-63686128D02*
X124535714Y-63686128D01*
X125678571Y-64686128D02*
X125678571Y-63900414D01*
X125678571Y-63900414D02*
X125607142Y-63757557D01*
X125607142Y-63757557D02*
X125464285Y-63686128D01*
X125464285Y-63686128D02*
X125178571Y-63686128D01*
X125178571Y-63686128D02*
X125035713Y-63757557D01*
X125678571Y-64614700D02*
X125535713Y-64686128D01*
X125535713Y-64686128D02*
X125178571Y-64686128D01*
X125178571Y-64686128D02*
X125035713Y-64614700D01*
X125035713Y-64614700D02*
X124964285Y-64471842D01*
X124964285Y-64471842D02*
X124964285Y-64328985D01*
X124964285Y-64328985D02*
X125035713Y-64186128D01*
X125035713Y-64186128D02*
X125178571Y-64114700D01*
X125178571Y-64114700D02*
X125535713Y-64114700D01*
X125535713Y-64114700D02*
X125678571Y-64043271D01*
X126249999Y-63686128D02*
X126607142Y-64686128D01*
X126964285Y-63686128D02*
X126607142Y-64686128D01*
X126607142Y-64686128D02*
X126464285Y-65043271D01*
X126464285Y-65043271D02*
X126392856Y-65114700D01*
X126392856Y-65114700D02*
X126249999Y-65186128D01*
X128678570Y-64686128D02*
X128678570Y-63186128D01*
X128678570Y-63186128D02*
X129178570Y-64257557D01*
X129178570Y-64257557D02*
X129678570Y-63186128D01*
X129678570Y-63186128D02*
X129678570Y-64686128D01*
X131035714Y-64686128D02*
X131035714Y-63900414D01*
X131035714Y-63900414D02*
X130964285Y-63757557D01*
X130964285Y-63757557D02*
X130821428Y-63686128D01*
X130821428Y-63686128D02*
X130535714Y-63686128D01*
X130535714Y-63686128D02*
X130392856Y-63757557D01*
X131035714Y-64614700D02*
X130892856Y-64686128D01*
X130892856Y-64686128D02*
X130535714Y-64686128D01*
X130535714Y-64686128D02*
X130392856Y-64614700D01*
X130392856Y-64614700D02*
X130321428Y-64471842D01*
X130321428Y-64471842D02*
X130321428Y-64328985D01*
X130321428Y-64328985D02*
X130392856Y-64186128D01*
X130392856Y-64186128D02*
X130535714Y-64114700D01*
X130535714Y-64114700D02*
X130892856Y-64114700D01*
X130892856Y-64114700D02*
X131035714Y-64043271D01*
X131749999Y-64686128D02*
X131749999Y-63686128D01*
X131749999Y-63186128D02*
X131678571Y-63257557D01*
X131678571Y-63257557D02*
X131749999Y-63328985D01*
X131749999Y-63328985D02*
X131821428Y-63257557D01*
X131821428Y-63257557D02*
X131749999Y-63186128D01*
X131749999Y-63186128D02*
X131749999Y-63328985D01*
X132464285Y-63686128D02*
X132464285Y-64686128D01*
X132464285Y-63828985D02*
X132535714Y-63757557D01*
X132535714Y-63757557D02*
X132678571Y-63686128D01*
X132678571Y-63686128D02*
X132892857Y-63686128D01*
X132892857Y-63686128D02*
X133035714Y-63757557D01*
X133035714Y-63757557D02*
X133107143Y-63900414D01*
X133107143Y-63900414D02*
X133107143Y-64686128D01*
X109812969Y-146649819D02*
X109336779Y-146649819D01*
X109336779Y-146649819D02*
X109336779Y-145649819D01*
X110289160Y-146649819D02*
X110193922Y-146602200D01*
X110193922Y-146602200D02*
X110146303Y-146554580D01*
X110146303Y-146554580D02*
X110098684Y-146459342D01*
X110098684Y-146459342D02*
X110098684Y-146173628D01*
X110098684Y-146173628D02*
X110146303Y-146078390D01*
X110146303Y-146078390D02*
X110193922Y-146030771D01*
X110193922Y-146030771D02*
X110289160Y-145983152D01*
X110289160Y-145983152D02*
X110432017Y-145983152D01*
X110432017Y-145983152D02*
X110527255Y-146030771D01*
X110527255Y-146030771D02*
X110574874Y-146078390D01*
X110574874Y-146078390D02*
X110622493Y-146173628D01*
X110622493Y-146173628D02*
X110622493Y-146459342D01*
X110622493Y-146459342D02*
X110574874Y-146554580D01*
X110574874Y-146554580D02*
X110527255Y-146602200D01*
X110527255Y-146602200D02*
X110432017Y-146649819D01*
X110432017Y-146649819D02*
X110289160Y-146649819D01*
X111051065Y-145983152D02*
X111051065Y-146649819D01*
X111051065Y-146078390D02*
X111098684Y-146030771D01*
X111098684Y-146030771D02*
X111193922Y-145983152D01*
X111193922Y-145983152D02*
X111336779Y-145983152D01*
X111336779Y-145983152D02*
X111432017Y-146030771D01*
X111432017Y-146030771D02*
X111479636Y-146126009D01*
X111479636Y-146126009D02*
X111479636Y-146649819D01*
X112384398Y-145983152D02*
X112384398Y-146792676D01*
X112384398Y-146792676D02*
X112336779Y-146887914D01*
X112336779Y-146887914D02*
X112289160Y-146935533D01*
X112289160Y-146935533D02*
X112193922Y-146983152D01*
X112193922Y-146983152D02*
X112051065Y-146983152D01*
X112051065Y-146983152D02*
X111955827Y-146935533D01*
X112384398Y-146602200D02*
X112289160Y-146649819D01*
X112289160Y-146649819D02*
X112098684Y-146649819D01*
X112098684Y-146649819D02*
X112003446Y-146602200D01*
X112003446Y-146602200D02*
X111955827Y-146554580D01*
X111955827Y-146554580D02*
X111908208Y-146459342D01*
X111908208Y-146459342D02*
X111908208Y-146173628D01*
X111908208Y-146173628D02*
X111955827Y-146078390D01*
X111955827Y-146078390D02*
X112003446Y-146030771D01*
X112003446Y-146030771D02*
X112098684Y-145983152D01*
X112098684Y-145983152D02*
X112289160Y-145983152D01*
X112289160Y-145983152D02*
X112384398Y-146030771D01*
X112860589Y-146649819D02*
X112860589Y-145649819D01*
X113289160Y-146649819D02*
X113289160Y-146126009D01*
X113289160Y-146126009D02*
X113241541Y-146030771D01*
X113241541Y-146030771D02*
X113146303Y-145983152D01*
X113146303Y-145983152D02*
X113003446Y-145983152D01*
X113003446Y-145983152D02*
X112908208Y-146030771D01*
X112908208Y-146030771D02*
X112860589Y-146078390D01*
X113908208Y-146649819D02*
X113812970Y-146602200D01*
X113812970Y-146602200D02*
X113765351Y-146554580D01*
X113765351Y-146554580D02*
X113717732Y-146459342D01*
X113717732Y-146459342D02*
X113717732Y-146173628D01*
X113717732Y-146173628D02*
X113765351Y-146078390D01*
X113765351Y-146078390D02*
X113812970Y-146030771D01*
X113812970Y-146030771D02*
X113908208Y-145983152D01*
X113908208Y-145983152D02*
X114051065Y-145983152D01*
X114051065Y-145983152D02*
X114146303Y-146030771D01*
X114146303Y-146030771D02*
X114193922Y-146078390D01*
X114193922Y-146078390D02*
X114241541Y-146173628D01*
X114241541Y-146173628D02*
X114241541Y-146459342D01*
X114241541Y-146459342D02*
X114193922Y-146554580D01*
X114193922Y-146554580D02*
X114146303Y-146602200D01*
X114146303Y-146602200D02*
X114051065Y-146649819D01*
X114051065Y-146649819D02*
X113908208Y-146649819D01*
X114670113Y-146649819D02*
X114670113Y-145983152D01*
X114670113Y-146173628D02*
X114717732Y-146078390D01*
X114717732Y-146078390D02*
X114765351Y-146030771D01*
X114765351Y-146030771D02*
X114860589Y-145983152D01*
X114860589Y-145983152D02*
X114955827Y-145983152D01*
X115289161Y-145983152D02*
X115289161Y-146649819D01*
X115289161Y-146078390D02*
X115336780Y-146030771D01*
X115336780Y-146030771D02*
X115432018Y-145983152D01*
X115432018Y-145983152D02*
X115574875Y-145983152D01*
X115574875Y-145983152D02*
X115670113Y-146030771D01*
X115670113Y-146030771D02*
X115717732Y-146126009D01*
X115717732Y-146126009D02*
X115717732Y-146649819D01*
X117527256Y-146649819D02*
X117193923Y-146173628D01*
X116955828Y-146649819D02*
X116955828Y-145649819D01*
X116955828Y-145649819D02*
X117336780Y-145649819D01*
X117336780Y-145649819D02*
X117432018Y-145697438D01*
X117432018Y-145697438D02*
X117479637Y-145745057D01*
X117479637Y-145745057D02*
X117527256Y-145840295D01*
X117527256Y-145840295D02*
X117527256Y-145983152D01*
X117527256Y-145983152D02*
X117479637Y-146078390D01*
X117479637Y-146078390D02*
X117432018Y-146126009D01*
X117432018Y-146126009D02*
X117336780Y-146173628D01*
X117336780Y-146173628D02*
X116955828Y-146173628D01*
X118384399Y-146649819D02*
X118384399Y-146126009D01*
X118384399Y-146126009D02*
X118336780Y-146030771D01*
X118336780Y-146030771D02*
X118241542Y-145983152D01*
X118241542Y-145983152D02*
X118051066Y-145983152D01*
X118051066Y-145983152D02*
X117955828Y-146030771D01*
X118384399Y-146602200D02*
X118289161Y-146649819D01*
X118289161Y-146649819D02*
X118051066Y-146649819D01*
X118051066Y-146649819D02*
X117955828Y-146602200D01*
X117955828Y-146602200D02*
X117908209Y-146506961D01*
X117908209Y-146506961D02*
X117908209Y-146411723D01*
X117908209Y-146411723D02*
X117955828Y-146316485D01*
X117955828Y-146316485D02*
X118051066Y-146268866D01*
X118051066Y-146268866D02*
X118289161Y-146268866D01*
X118289161Y-146268866D02*
X118384399Y-146221247D01*
X119289161Y-146602200D02*
X119193923Y-146649819D01*
X119193923Y-146649819D02*
X119003447Y-146649819D01*
X119003447Y-146649819D02*
X118908209Y-146602200D01*
X118908209Y-146602200D02*
X118860590Y-146554580D01*
X118860590Y-146554580D02*
X118812971Y-146459342D01*
X118812971Y-146459342D02*
X118812971Y-146173628D01*
X118812971Y-146173628D02*
X118860590Y-146078390D01*
X118860590Y-146078390D02*
X118908209Y-146030771D01*
X118908209Y-146030771D02*
X119003447Y-145983152D01*
X119003447Y-145983152D02*
X119193923Y-145983152D01*
X119193923Y-145983152D02*
X119289161Y-146030771D01*
X119717733Y-146649819D02*
X119717733Y-145983152D01*
X119717733Y-145649819D02*
X119670114Y-145697438D01*
X119670114Y-145697438D02*
X119717733Y-145745057D01*
X119717733Y-145745057D02*
X119765352Y-145697438D01*
X119765352Y-145697438D02*
X119717733Y-145649819D01*
X119717733Y-145649819D02*
X119717733Y-145745057D01*
X120193923Y-145983152D02*
X120193923Y-146649819D01*
X120193923Y-146078390D02*
X120241542Y-146030771D01*
X120241542Y-146030771D02*
X120336780Y-145983152D01*
X120336780Y-145983152D02*
X120479637Y-145983152D01*
X120479637Y-145983152D02*
X120574875Y-146030771D01*
X120574875Y-146030771D02*
X120622494Y-146126009D01*
X120622494Y-146126009D02*
X120622494Y-146649819D01*
X121527256Y-145983152D02*
X121527256Y-146792676D01*
X121527256Y-146792676D02*
X121479637Y-146887914D01*
X121479637Y-146887914D02*
X121432018Y-146935533D01*
X121432018Y-146935533D02*
X121336780Y-146983152D01*
X121336780Y-146983152D02*
X121193923Y-146983152D01*
X121193923Y-146983152D02*
X121098685Y-146935533D01*
X121527256Y-146602200D02*
X121432018Y-146649819D01*
X121432018Y-146649819D02*
X121241542Y-146649819D01*
X121241542Y-146649819D02*
X121146304Y-146602200D01*
X121146304Y-146602200D02*
X121098685Y-146554580D01*
X121098685Y-146554580D02*
X121051066Y-146459342D01*
X121051066Y-146459342D02*
X121051066Y-146173628D01*
X121051066Y-146173628D02*
X121098685Y-146078390D01*
X121098685Y-146078390D02*
X121146304Y-146030771D01*
X121146304Y-146030771D02*
X121241542Y-145983152D01*
X121241542Y-145983152D02*
X121432018Y-145983152D01*
X121432018Y-145983152D02*
X121527256Y-146030771D01*
X122717733Y-146602200D02*
X122860590Y-146649819D01*
X122860590Y-146649819D02*
X123098685Y-146649819D01*
X123098685Y-146649819D02*
X123193923Y-146602200D01*
X123193923Y-146602200D02*
X123241542Y-146554580D01*
X123241542Y-146554580D02*
X123289161Y-146459342D01*
X123289161Y-146459342D02*
X123289161Y-146364104D01*
X123289161Y-146364104D02*
X123241542Y-146268866D01*
X123241542Y-146268866D02*
X123193923Y-146221247D01*
X123193923Y-146221247D02*
X123098685Y-146173628D01*
X123098685Y-146173628D02*
X122908209Y-146126009D01*
X122908209Y-146126009D02*
X122812971Y-146078390D01*
X122812971Y-146078390D02*
X122765352Y-146030771D01*
X122765352Y-146030771D02*
X122717733Y-145935533D01*
X122717733Y-145935533D02*
X122717733Y-145840295D01*
X122717733Y-145840295D02*
X122765352Y-145745057D01*
X122765352Y-145745057D02*
X122812971Y-145697438D01*
X122812971Y-145697438D02*
X122908209Y-145649819D01*
X122908209Y-145649819D02*
X123146304Y-145649819D01*
X123146304Y-145649819D02*
X123289161Y-145697438D01*
X123860590Y-146649819D02*
X123765352Y-146602200D01*
X123765352Y-146602200D02*
X123717733Y-146554580D01*
X123717733Y-146554580D02*
X123670114Y-146459342D01*
X123670114Y-146459342D02*
X123670114Y-146173628D01*
X123670114Y-146173628D02*
X123717733Y-146078390D01*
X123717733Y-146078390D02*
X123765352Y-146030771D01*
X123765352Y-146030771D02*
X123860590Y-145983152D01*
X123860590Y-145983152D02*
X124003447Y-145983152D01*
X124003447Y-145983152D02*
X124098685Y-146030771D01*
X124098685Y-146030771D02*
X124146304Y-146078390D01*
X124146304Y-146078390D02*
X124193923Y-146173628D01*
X124193923Y-146173628D02*
X124193923Y-146459342D01*
X124193923Y-146459342D02*
X124146304Y-146554580D01*
X124146304Y-146554580D02*
X124098685Y-146602200D01*
X124098685Y-146602200D02*
X124003447Y-146649819D01*
X124003447Y-146649819D02*
X123860590Y-146649819D01*
X124765352Y-146649819D02*
X124670114Y-146602200D01*
X124670114Y-146602200D02*
X124622495Y-146506961D01*
X124622495Y-146506961D02*
X124622495Y-145649819D01*
X125574876Y-146649819D02*
X125574876Y-146126009D01*
X125574876Y-146126009D02*
X125527257Y-146030771D01*
X125527257Y-146030771D02*
X125432019Y-145983152D01*
X125432019Y-145983152D02*
X125241543Y-145983152D01*
X125241543Y-145983152D02*
X125146305Y-146030771D01*
X125574876Y-146602200D02*
X125479638Y-146649819D01*
X125479638Y-146649819D02*
X125241543Y-146649819D01*
X125241543Y-146649819D02*
X125146305Y-146602200D01*
X125146305Y-146602200D02*
X125098686Y-146506961D01*
X125098686Y-146506961D02*
X125098686Y-146411723D01*
X125098686Y-146411723D02*
X125146305Y-146316485D01*
X125146305Y-146316485D02*
X125241543Y-146268866D01*
X125241543Y-146268866D02*
X125479638Y-146268866D01*
X125479638Y-146268866D02*
X125574876Y-146221247D01*
X126051067Y-146649819D02*
X126051067Y-145983152D01*
X126051067Y-146173628D02*
X126098686Y-146078390D01*
X126098686Y-146078390D02*
X126146305Y-146030771D01*
X126146305Y-146030771D02*
X126241543Y-145983152D01*
X126241543Y-145983152D02*
X126336781Y-145983152D01*
X109289160Y-147355057D02*
X109336779Y-147307438D01*
X109336779Y-147307438D02*
X109432017Y-147259819D01*
X109432017Y-147259819D02*
X109670112Y-147259819D01*
X109670112Y-147259819D02*
X109765350Y-147307438D01*
X109765350Y-147307438D02*
X109812969Y-147355057D01*
X109812969Y-147355057D02*
X109860588Y-147450295D01*
X109860588Y-147450295D02*
X109860588Y-147545533D01*
X109860588Y-147545533D02*
X109812969Y-147688390D01*
X109812969Y-147688390D02*
X109241541Y-148259819D01*
X109241541Y-148259819D02*
X109860588Y-148259819D01*
X110479636Y-147259819D02*
X110574874Y-147259819D01*
X110574874Y-147259819D02*
X110670112Y-147307438D01*
X110670112Y-147307438D02*
X110717731Y-147355057D01*
X110717731Y-147355057D02*
X110765350Y-147450295D01*
X110765350Y-147450295D02*
X110812969Y-147640771D01*
X110812969Y-147640771D02*
X110812969Y-147878866D01*
X110812969Y-147878866D02*
X110765350Y-148069342D01*
X110765350Y-148069342D02*
X110717731Y-148164580D01*
X110717731Y-148164580D02*
X110670112Y-148212200D01*
X110670112Y-148212200D02*
X110574874Y-148259819D01*
X110574874Y-148259819D02*
X110479636Y-148259819D01*
X110479636Y-148259819D02*
X110384398Y-148212200D01*
X110384398Y-148212200D02*
X110336779Y-148164580D01*
X110336779Y-148164580D02*
X110289160Y-148069342D01*
X110289160Y-148069342D02*
X110241541Y-147878866D01*
X110241541Y-147878866D02*
X110241541Y-147640771D01*
X110241541Y-147640771D02*
X110289160Y-147450295D01*
X110289160Y-147450295D02*
X110336779Y-147355057D01*
X110336779Y-147355057D02*
X110384398Y-147307438D01*
X110384398Y-147307438D02*
X110479636Y-147259819D01*
X111193922Y-147355057D02*
X111241541Y-147307438D01*
X111241541Y-147307438D02*
X111336779Y-147259819D01*
X111336779Y-147259819D02*
X111574874Y-147259819D01*
X111574874Y-147259819D02*
X111670112Y-147307438D01*
X111670112Y-147307438D02*
X111717731Y-147355057D01*
X111717731Y-147355057D02*
X111765350Y-147450295D01*
X111765350Y-147450295D02*
X111765350Y-147545533D01*
X111765350Y-147545533D02*
X111717731Y-147688390D01*
X111717731Y-147688390D02*
X111146303Y-148259819D01*
X111146303Y-148259819D02*
X111765350Y-148259819D01*
X112146303Y-147355057D02*
X112193922Y-147307438D01*
X112193922Y-147307438D02*
X112289160Y-147259819D01*
X112289160Y-147259819D02*
X112527255Y-147259819D01*
X112527255Y-147259819D02*
X112622493Y-147307438D01*
X112622493Y-147307438D02*
X112670112Y-147355057D01*
X112670112Y-147355057D02*
X112717731Y-147450295D01*
X112717731Y-147450295D02*
X112717731Y-147545533D01*
X112717731Y-147545533D02*
X112670112Y-147688390D01*
X112670112Y-147688390D02*
X112098684Y-148259819D01*
X112098684Y-148259819D02*
X112717731Y-148259819D01*
X113146303Y-147878866D02*
X113908208Y-147878866D01*
X114336779Y-147355057D02*
X114384398Y-147307438D01*
X114384398Y-147307438D02*
X114479636Y-147259819D01*
X114479636Y-147259819D02*
X114717731Y-147259819D01*
X114717731Y-147259819D02*
X114812969Y-147307438D01*
X114812969Y-147307438D02*
X114860588Y-147355057D01*
X114860588Y-147355057D02*
X114908207Y-147450295D01*
X114908207Y-147450295D02*
X114908207Y-147545533D01*
X114908207Y-147545533D02*
X114860588Y-147688390D01*
X114860588Y-147688390D02*
X114289160Y-148259819D01*
X114289160Y-148259819D02*
X114908207Y-148259819D01*
X115527255Y-147259819D02*
X115622493Y-147259819D01*
X115622493Y-147259819D02*
X115717731Y-147307438D01*
X115717731Y-147307438D02*
X115765350Y-147355057D01*
X115765350Y-147355057D02*
X115812969Y-147450295D01*
X115812969Y-147450295D02*
X115860588Y-147640771D01*
X115860588Y-147640771D02*
X115860588Y-147878866D01*
X115860588Y-147878866D02*
X115812969Y-148069342D01*
X115812969Y-148069342D02*
X115765350Y-148164580D01*
X115765350Y-148164580D02*
X115717731Y-148212200D01*
X115717731Y-148212200D02*
X115622493Y-148259819D01*
X115622493Y-148259819D02*
X115527255Y-148259819D01*
X115527255Y-148259819D02*
X115432017Y-148212200D01*
X115432017Y-148212200D02*
X115384398Y-148164580D01*
X115384398Y-148164580D02*
X115336779Y-148069342D01*
X115336779Y-148069342D02*
X115289160Y-147878866D01*
X115289160Y-147878866D02*
X115289160Y-147640771D01*
X115289160Y-147640771D02*
X115336779Y-147450295D01*
X115336779Y-147450295D02*
X115384398Y-147355057D01*
X115384398Y-147355057D02*
X115432017Y-147307438D01*
X115432017Y-147307438D02*
X115527255Y-147259819D01*
X116241541Y-147355057D02*
X116289160Y-147307438D01*
X116289160Y-147307438D02*
X116384398Y-147259819D01*
X116384398Y-147259819D02*
X116622493Y-147259819D01*
X116622493Y-147259819D02*
X116717731Y-147307438D01*
X116717731Y-147307438D02*
X116765350Y-147355057D01*
X116765350Y-147355057D02*
X116812969Y-147450295D01*
X116812969Y-147450295D02*
X116812969Y-147545533D01*
X116812969Y-147545533D02*
X116765350Y-147688390D01*
X116765350Y-147688390D02*
X116193922Y-148259819D01*
X116193922Y-148259819D02*
X116812969Y-148259819D01*
X117146303Y-147259819D02*
X117765350Y-147259819D01*
X117765350Y-147259819D02*
X117432017Y-147640771D01*
X117432017Y-147640771D02*
X117574874Y-147640771D01*
X117574874Y-147640771D02*
X117670112Y-147688390D01*
X117670112Y-147688390D02*
X117717731Y-147736009D01*
X117717731Y-147736009D02*
X117765350Y-147831247D01*
X117765350Y-147831247D02*
X117765350Y-148069342D01*
X117765350Y-148069342D02*
X117717731Y-148164580D01*
X117717731Y-148164580D02*
X117670112Y-148212200D01*
X117670112Y-148212200D02*
X117574874Y-148259819D01*
X117574874Y-148259819D02*
X117289160Y-148259819D01*
X117289160Y-148259819D02*
X117193922Y-148212200D01*
X117193922Y-148212200D02*
X117146303Y-148164580D01*
X166279691Y-114588697D02*
X166279691Y-113588697D01*
X167279690Y-113636316D02*
X167184452Y-113588697D01*
X167184452Y-113588697D02*
X167041595Y-113588697D01*
X167041595Y-113588697D02*
X166898738Y-113636316D01*
X166898738Y-113636316D02*
X166803500Y-113731554D01*
X166803500Y-113731554D02*
X166755881Y-113826792D01*
X166755881Y-113826792D02*
X166708262Y-114017268D01*
X166708262Y-114017268D02*
X166708262Y-114160125D01*
X166708262Y-114160125D02*
X166755881Y-114350601D01*
X166755881Y-114350601D02*
X166803500Y-114445839D01*
X166803500Y-114445839D02*
X166898738Y-114541078D01*
X166898738Y-114541078D02*
X167041595Y-114588697D01*
X167041595Y-114588697D02*
X167136833Y-114588697D01*
X167136833Y-114588697D02*
X167279690Y-114541078D01*
X167279690Y-114541078D02*
X167327309Y-114493458D01*
X167327309Y-114493458D02*
X167327309Y-114160125D01*
X167327309Y-114160125D02*
X167136833Y-114160125D01*
X167755881Y-114588697D02*
X167755881Y-113588697D01*
X167755881Y-113588697D02*
X168327309Y-114588697D01*
X168327309Y-114588697D02*
X168327309Y-113588697D01*
X168565405Y-114683935D02*
X169327309Y-114683935D01*
X170089214Y-114588697D02*
X169517786Y-114588697D01*
X169803500Y-114588697D02*
X169803500Y-113588697D01*
X169803500Y-113588697D02*
X169708262Y-113731554D01*
X169708262Y-113731554D02*
X169613024Y-113826792D01*
X169613024Y-113826792D02*
X169517786Y-113874411D01*
X181311779Y-131187819D02*
X181311779Y-130187819D01*
X181311779Y-130187819D02*
X181645112Y-130902104D01*
X181645112Y-130902104D02*
X181978445Y-130187819D01*
X181978445Y-130187819D02*
X181978445Y-131187819D01*
X182454636Y-131187819D02*
X182454636Y-130187819D01*
X182930826Y-131187819D02*
X182930826Y-130187819D01*
X182930826Y-130187819D02*
X183502254Y-131187819D01*
X183502254Y-131187819D02*
X183502254Y-130187819D01*
%TO.C,D4*%
X118261905Y-69954819D02*
X118261905Y-68954819D01*
X118261905Y-68954819D02*
X118500000Y-68954819D01*
X118500000Y-68954819D02*
X118642857Y-69002438D01*
X118642857Y-69002438D02*
X118738095Y-69097676D01*
X118738095Y-69097676D02*
X118785714Y-69192914D01*
X118785714Y-69192914D02*
X118833333Y-69383390D01*
X118833333Y-69383390D02*
X118833333Y-69526247D01*
X118833333Y-69526247D02*
X118785714Y-69716723D01*
X118785714Y-69716723D02*
X118738095Y-69811961D01*
X118738095Y-69811961D02*
X118642857Y-69907200D01*
X118642857Y-69907200D02*
X118500000Y-69954819D01*
X118500000Y-69954819D02*
X118261905Y-69954819D01*
X119690476Y-69288152D02*
X119690476Y-69954819D01*
X119452381Y-68907200D02*
X119214286Y-69621485D01*
X119214286Y-69621485D02*
X119833333Y-69621485D01*
%TO.C,R4*%
X111871333Y-80436819D02*
X111538000Y-79960628D01*
X111299905Y-80436819D02*
X111299905Y-79436819D01*
X111299905Y-79436819D02*
X111680857Y-79436819D01*
X111680857Y-79436819D02*
X111776095Y-79484438D01*
X111776095Y-79484438D02*
X111823714Y-79532057D01*
X111823714Y-79532057D02*
X111871333Y-79627295D01*
X111871333Y-79627295D02*
X111871333Y-79770152D01*
X111871333Y-79770152D02*
X111823714Y-79865390D01*
X111823714Y-79865390D02*
X111776095Y-79913009D01*
X111776095Y-79913009D02*
X111680857Y-79960628D01*
X111680857Y-79960628D02*
X111299905Y-79960628D01*
X112728476Y-79770152D02*
X112728476Y-80436819D01*
X112490381Y-79389200D02*
X112252286Y-80103485D01*
X112252286Y-80103485D02*
X112871333Y-80103485D01*
X114026095Y-79436819D02*
X113835619Y-79436819D01*
X113835619Y-79436819D02*
X113740381Y-79484438D01*
X113740381Y-79484438D02*
X113692762Y-79532057D01*
X113692762Y-79532057D02*
X113597524Y-79674914D01*
X113597524Y-79674914D02*
X113549905Y-79865390D01*
X113549905Y-79865390D02*
X113549905Y-80246342D01*
X113549905Y-80246342D02*
X113597524Y-80341580D01*
X113597524Y-80341580D02*
X113645143Y-80389200D01*
X113645143Y-80389200D02*
X113740381Y-80436819D01*
X113740381Y-80436819D02*
X113930857Y-80436819D01*
X113930857Y-80436819D02*
X114026095Y-80389200D01*
X114026095Y-80389200D02*
X114073714Y-80341580D01*
X114073714Y-80341580D02*
X114121333Y-80246342D01*
X114121333Y-80246342D02*
X114121333Y-80008247D01*
X114121333Y-80008247D02*
X114073714Y-79913009D01*
X114073714Y-79913009D02*
X114026095Y-79865390D01*
X114026095Y-79865390D02*
X113930857Y-79817771D01*
X113930857Y-79817771D02*
X113740381Y-79817771D01*
X113740381Y-79817771D02*
X113645143Y-79865390D01*
X113645143Y-79865390D02*
X113597524Y-79913009D01*
X113597524Y-79913009D02*
X113549905Y-80008247D01*
X114978476Y-79436819D02*
X114788000Y-79436819D01*
X114788000Y-79436819D02*
X114692762Y-79484438D01*
X114692762Y-79484438D02*
X114645143Y-79532057D01*
X114645143Y-79532057D02*
X114549905Y-79674914D01*
X114549905Y-79674914D02*
X114502286Y-79865390D01*
X114502286Y-79865390D02*
X114502286Y-80246342D01*
X114502286Y-80246342D02*
X114549905Y-80341580D01*
X114549905Y-80341580D02*
X114597524Y-80389200D01*
X114597524Y-80389200D02*
X114692762Y-80436819D01*
X114692762Y-80436819D02*
X114883238Y-80436819D01*
X114883238Y-80436819D02*
X114978476Y-80389200D01*
X114978476Y-80389200D02*
X115026095Y-80341580D01*
X115026095Y-80341580D02*
X115073714Y-80246342D01*
X115073714Y-80246342D02*
X115073714Y-80008247D01*
X115073714Y-80008247D02*
X115026095Y-79913009D01*
X115026095Y-79913009D02*
X114978476Y-79865390D01*
X114978476Y-79865390D02*
X114883238Y-79817771D01*
X114883238Y-79817771D02*
X114692762Y-79817771D01*
X114692762Y-79817771D02*
X114597524Y-79865390D01*
X114597524Y-79865390D02*
X114549905Y-79913009D01*
X114549905Y-79913009D02*
X114502286Y-80008247D01*
X115692762Y-79436819D02*
X115788000Y-79436819D01*
X115788000Y-79436819D02*
X115883238Y-79484438D01*
X115883238Y-79484438D02*
X115930857Y-79532057D01*
X115930857Y-79532057D02*
X115978476Y-79627295D01*
X115978476Y-79627295D02*
X116026095Y-79817771D01*
X116026095Y-79817771D02*
X116026095Y-80055866D01*
X116026095Y-80055866D02*
X115978476Y-80246342D01*
X115978476Y-80246342D02*
X115930857Y-80341580D01*
X115930857Y-80341580D02*
X115883238Y-80389200D01*
X115883238Y-80389200D02*
X115788000Y-80436819D01*
X115788000Y-80436819D02*
X115692762Y-80436819D01*
X115692762Y-80436819D02*
X115597524Y-80389200D01*
X115597524Y-80389200D02*
X115549905Y-80341580D01*
X115549905Y-80341580D02*
X115502286Y-80246342D01*
X115502286Y-80246342D02*
X115454667Y-80055866D01*
X115454667Y-80055866D02*
X115454667Y-79817771D01*
X115454667Y-79817771D02*
X115502286Y-79627295D01*
X115502286Y-79627295D02*
X115549905Y-79532057D01*
X115549905Y-79532057D02*
X115597524Y-79484438D01*
X115597524Y-79484438D02*
X115692762Y-79436819D01*
%TO.C,J7*%
X163166666Y-60624819D02*
X163166666Y-61339104D01*
X163166666Y-61339104D02*
X163119047Y-61481961D01*
X163119047Y-61481961D02*
X163023809Y-61577200D01*
X163023809Y-61577200D02*
X162880952Y-61624819D01*
X162880952Y-61624819D02*
X162785714Y-61624819D01*
X163547619Y-60624819D02*
X164214285Y-60624819D01*
X164214285Y-60624819D02*
X163785714Y-61624819D01*
%TO.C,J6*%
X139666666Y-57624819D02*
X139666666Y-58339104D01*
X139666666Y-58339104D02*
X139619047Y-58481961D01*
X139619047Y-58481961D02*
X139523809Y-58577200D01*
X139523809Y-58577200D02*
X139380952Y-58624819D01*
X139380952Y-58624819D02*
X139285714Y-58624819D01*
X140571428Y-57624819D02*
X140380952Y-57624819D01*
X140380952Y-57624819D02*
X140285714Y-57672438D01*
X140285714Y-57672438D02*
X140238095Y-57720057D01*
X140238095Y-57720057D02*
X140142857Y-57862914D01*
X140142857Y-57862914D02*
X140095238Y-58053390D01*
X140095238Y-58053390D02*
X140095238Y-58434342D01*
X140095238Y-58434342D02*
X140142857Y-58529580D01*
X140142857Y-58529580D02*
X140190476Y-58577200D01*
X140190476Y-58577200D02*
X140285714Y-58624819D01*
X140285714Y-58624819D02*
X140476190Y-58624819D01*
X140476190Y-58624819D02*
X140571428Y-58577200D01*
X140571428Y-58577200D02*
X140619047Y-58529580D01*
X140619047Y-58529580D02*
X140666666Y-58434342D01*
X140666666Y-58434342D02*
X140666666Y-58196247D01*
X140666666Y-58196247D02*
X140619047Y-58101009D01*
X140619047Y-58101009D02*
X140571428Y-58053390D01*
X140571428Y-58053390D02*
X140476190Y-58005771D01*
X140476190Y-58005771D02*
X140285714Y-58005771D01*
X140285714Y-58005771D02*
X140190476Y-58053390D01*
X140190476Y-58053390D02*
X140142857Y-58101009D01*
X140142857Y-58101009D02*
X140095238Y-58196247D01*
%TO.C,D2*%
X118261905Y-80454819D02*
X118261905Y-79454819D01*
X118261905Y-79454819D02*
X118500000Y-79454819D01*
X118500000Y-79454819D02*
X118642857Y-79502438D01*
X118642857Y-79502438D02*
X118738095Y-79597676D01*
X118738095Y-79597676D02*
X118785714Y-79692914D01*
X118785714Y-79692914D02*
X118833333Y-79883390D01*
X118833333Y-79883390D02*
X118833333Y-80026247D01*
X118833333Y-80026247D02*
X118785714Y-80216723D01*
X118785714Y-80216723D02*
X118738095Y-80311961D01*
X118738095Y-80311961D02*
X118642857Y-80407200D01*
X118642857Y-80407200D02*
X118500000Y-80454819D01*
X118500000Y-80454819D02*
X118261905Y-80454819D01*
X119214286Y-79550057D02*
X119261905Y-79502438D01*
X119261905Y-79502438D02*
X119357143Y-79454819D01*
X119357143Y-79454819D02*
X119595238Y-79454819D01*
X119595238Y-79454819D02*
X119690476Y-79502438D01*
X119690476Y-79502438D02*
X119738095Y-79550057D01*
X119738095Y-79550057D02*
X119785714Y-79645295D01*
X119785714Y-79645295D02*
X119785714Y-79740533D01*
X119785714Y-79740533D02*
X119738095Y-79883390D01*
X119738095Y-79883390D02*
X119166667Y-80454819D01*
X119166667Y-80454819D02*
X119785714Y-80454819D01*
%TO.C,R2*%
X111871333Y-73204819D02*
X111538000Y-72728628D01*
X111299905Y-73204819D02*
X111299905Y-72204819D01*
X111299905Y-72204819D02*
X111680857Y-72204819D01*
X111680857Y-72204819D02*
X111776095Y-72252438D01*
X111776095Y-72252438D02*
X111823714Y-72300057D01*
X111823714Y-72300057D02*
X111871333Y-72395295D01*
X111871333Y-72395295D02*
X111871333Y-72538152D01*
X111871333Y-72538152D02*
X111823714Y-72633390D01*
X111823714Y-72633390D02*
X111776095Y-72681009D01*
X111776095Y-72681009D02*
X111680857Y-72728628D01*
X111680857Y-72728628D02*
X111299905Y-72728628D01*
X112252286Y-72300057D02*
X112299905Y-72252438D01*
X112299905Y-72252438D02*
X112395143Y-72204819D01*
X112395143Y-72204819D02*
X112633238Y-72204819D01*
X112633238Y-72204819D02*
X112728476Y-72252438D01*
X112728476Y-72252438D02*
X112776095Y-72300057D01*
X112776095Y-72300057D02*
X112823714Y-72395295D01*
X112823714Y-72395295D02*
X112823714Y-72490533D01*
X112823714Y-72490533D02*
X112776095Y-72633390D01*
X112776095Y-72633390D02*
X112204667Y-73204819D01*
X112204667Y-73204819D02*
X112823714Y-73204819D01*
X114026095Y-72204819D02*
X113835619Y-72204819D01*
X113835619Y-72204819D02*
X113740381Y-72252438D01*
X113740381Y-72252438D02*
X113692762Y-72300057D01*
X113692762Y-72300057D02*
X113597524Y-72442914D01*
X113597524Y-72442914D02*
X113549905Y-72633390D01*
X113549905Y-72633390D02*
X113549905Y-73014342D01*
X113549905Y-73014342D02*
X113597524Y-73109580D01*
X113597524Y-73109580D02*
X113645143Y-73157200D01*
X113645143Y-73157200D02*
X113740381Y-73204819D01*
X113740381Y-73204819D02*
X113930857Y-73204819D01*
X113930857Y-73204819D02*
X114026095Y-73157200D01*
X114026095Y-73157200D02*
X114073714Y-73109580D01*
X114073714Y-73109580D02*
X114121333Y-73014342D01*
X114121333Y-73014342D02*
X114121333Y-72776247D01*
X114121333Y-72776247D02*
X114073714Y-72681009D01*
X114073714Y-72681009D02*
X114026095Y-72633390D01*
X114026095Y-72633390D02*
X113930857Y-72585771D01*
X113930857Y-72585771D02*
X113740381Y-72585771D01*
X113740381Y-72585771D02*
X113645143Y-72633390D01*
X113645143Y-72633390D02*
X113597524Y-72681009D01*
X113597524Y-72681009D02*
X113549905Y-72776247D01*
X114978476Y-72204819D02*
X114788000Y-72204819D01*
X114788000Y-72204819D02*
X114692762Y-72252438D01*
X114692762Y-72252438D02*
X114645143Y-72300057D01*
X114645143Y-72300057D02*
X114549905Y-72442914D01*
X114549905Y-72442914D02*
X114502286Y-72633390D01*
X114502286Y-72633390D02*
X114502286Y-73014342D01*
X114502286Y-73014342D02*
X114549905Y-73109580D01*
X114549905Y-73109580D02*
X114597524Y-73157200D01*
X114597524Y-73157200D02*
X114692762Y-73204819D01*
X114692762Y-73204819D02*
X114883238Y-73204819D01*
X114883238Y-73204819D02*
X114978476Y-73157200D01*
X114978476Y-73157200D02*
X115026095Y-73109580D01*
X115026095Y-73109580D02*
X115073714Y-73014342D01*
X115073714Y-73014342D02*
X115073714Y-72776247D01*
X115073714Y-72776247D02*
X115026095Y-72681009D01*
X115026095Y-72681009D02*
X114978476Y-72633390D01*
X114978476Y-72633390D02*
X114883238Y-72585771D01*
X114883238Y-72585771D02*
X114692762Y-72585771D01*
X114692762Y-72585771D02*
X114597524Y-72633390D01*
X114597524Y-72633390D02*
X114549905Y-72681009D01*
X114549905Y-72681009D02*
X114502286Y-72776247D01*
X115692762Y-72204819D02*
X115788000Y-72204819D01*
X115788000Y-72204819D02*
X115883238Y-72252438D01*
X115883238Y-72252438D02*
X115930857Y-72300057D01*
X115930857Y-72300057D02*
X115978476Y-72395295D01*
X115978476Y-72395295D02*
X116026095Y-72585771D01*
X116026095Y-72585771D02*
X116026095Y-72823866D01*
X116026095Y-72823866D02*
X115978476Y-73014342D01*
X115978476Y-73014342D02*
X115930857Y-73109580D01*
X115930857Y-73109580D02*
X115883238Y-73157200D01*
X115883238Y-73157200D02*
X115788000Y-73204819D01*
X115788000Y-73204819D02*
X115692762Y-73204819D01*
X115692762Y-73204819D02*
X115597524Y-73157200D01*
X115597524Y-73157200D02*
X115549905Y-73109580D01*
X115549905Y-73109580D02*
X115502286Y-73014342D01*
X115502286Y-73014342D02*
X115454667Y-72823866D01*
X115454667Y-72823866D02*
X115454667Y-72585771D01*
X115454667Y-72585771D02*
X115502286Y-72395295D01*
X115502286Y-72395295D02*
X115549905Y-72300057D01*
X115549905Y-72300057D02*
X115597524Y-72252438D01*
X115597524Y-72252438D02*
X115692762Y-72204819D01*
%TO.C,RV1*%
X199864819Y-81870238D02*
X199388628Y-82203571D01*
X199864819Y-82441666D02*
X198864819Y-82441666D01*
X198864819Y-82441666D02*
X198864819Y-82060714D01*
X198864819Y-82060714D02*
X198912438Y-81965476D01*
X198912438Y-81965476D02*
X198960057Y-81917857D01*
X198960057Y-81917857D02*
X199055295Y-81870238D01*
X199055295Y-81870238D02*
X199198152Y-81870238D01*
X199198152Y-81870238D02*
X199293390Y-81917857D01*
X199293390Y-81917857D02*
X199341009Y-81965476D01*
X199341009Y-81965476D02*
X199388628Y-82060714D01*
X199388628Y-82060714D02*
X199388628Y-82441666D01*
X198864819Y-81584523D02*
X199864819Y-81251190D01*
X199864819Y-81251190D02*
X198864819Y-80917857D01*
X199864819Y-80060714D02*
X199864819Y-80632142D01*
X199864819Y-80346428D02*
X198864819Y-80346428D01*
X198864819Y-80346428D02*
X199007676Y-80441666D01*
X199007676Y-80441666D02*
X199102914Y-80536904D01*
X199102914Y-80536904D02*
X199150533Y-80632142D01*
%TO.C,D3*%
X118324405Y-62704819D02*
X118324405Y-61704819D01*
X118324405Y-61704819D02*
X118562500Y-61704819D01*
X118562500Y-61704819D02*
X118705357Y-61752438D01*
X118705357Y-61752438D02*
X118800595Y-61847676D01*
X118800595Y-61847676D02*
X118848214Y-61942914D01*
X118848214Y-61942914D02*
X118895833Y-62133390D01*
X118895833Y-62133390D02*
X118895833Y-62276247D01*
X118895833Y-62276247D02*
X118848214Y-62466723D01*
X118848214Y-62466723D02*
X118800595Y-62561961D01*
X118800595Y-62561961D02*
X118705357Y-62657200D01*
X118705357Y-62657200D02*
X118562500Y-62704819D01*
X118562500Y-62704819D02*
X118324405Y-62704819D01*
X119229167Y-61704819D02*
X119848214Y-61704819D01*
X119848214Y-61704819D02*
X119514881Y-62085771D01*
X119514881Y-62085771D02*
X119657738Y-62085771D01*
X119657738Y-62085771D02*
X119752976Y-62133390D01*
X119752976Y-62133390D02*
X119800595Y-62181009D01*
X119800595Y-62181009D02*
X119848214Y-62276247D01*
X119848214Y-62276247D02*
X119848214Y-62514342D01*
X119848214Y-62514342D02*
X119800595Y-62609580D01*
X119800595Y-62609580D02*
X119752976Y-62657200D01*
X119752976Y-62657200D02*
X119657738Y-62704819D01*
X119657738Y-62704819D02*
X119372024Y-62704819D01*
X119372024Y-62704819D02*
X119276786Y-62657200D01*
X119276786Y-62657200D02*
X119229167Y-62609580D01*
%TO.C,D1*%
X118261905Y-73204819D02*
X118261905Y-72204819D01*
X118261905Y-72204819D02*
X118500000Y-72204819D01*
X118500000Y-72204819D02*
X118642857Y-72252438D01*
X118642857Y-72252438D02*
X118738095Y-72347676D01*
X118738095Y-72347676D02*
X118785714Y-72442914D01*
X118785714Y-72442914D02*
X118833333Y-72633390D01*
X118833333Y-72633390D02*
X118833333Y-72776247D01*
X118833333Y-72776247D02*
X118785714Y-72966723D01*
X118785714Y-72966723D02*
X118738095Y-73061961D01*
X118738095Y-73061961D02*
X118642857Y-73157200D01*
X118642857Y-73157200D02*
X118500000Y-73204819D01*
X118500000Y-73204819D02*
X118261905Y-73204819D01*
X119785714Y-73204819D02*
X119214286Y-73204819D01*
X119500000Y-73204819D02*
X119500000Y-72204819D01*
X119500000Y-72204819D02*
X119404762Y-72347676D01*
X119404762Y-72347676D02*
X119309524Y-72442914D01*
X119309524Y-72442914D02*
X119214286Y-72490533D01*
%TO.C,R7*%
X111933833Y-69954819D02*
X111600500Y-69478628D01*
X111362405Y-69954819D02*
X111362405Y-68954819D01*
X111362405Y-68954819D02*
X111743357Y-68954819D01*
X111743357Y-68954819D02*
X111838595Y-69002438D01*
X111838595Y-69002438D02*
X111886214Y-69050057D01*
X111886214Y-69050057D02*
X111933833Y-69145295D01*
X111933833Y-69145295D02*
X111933833Y-69288152D01*
X111933833Y-69288152D02*
X111886214Y-69383390D01*
X111886214Y-69383390D02*
X111838595Y-69431009D01*
X111838595Y-69431009D02*
X111743357Y-69478628D01*
X111743357Y-69478628D02*
X111362405Y-69478628D01*
X112267167Y-68954819D02*
X112933833Y-68954819D01*
X112933833Y-68954819D02*
X112505262Y-69954819D01*
X114088595Y-68954819D02*
X113898119Y-68954819D01*
X113898119Y-68954819D02*
X113802881Y-69002438D01*
X113802881Y-69002438D02*
X113755262Y-69050057D01*
X113755262Y-69050057D02*
X113660024Y-69192914D01*
X113660024Y-69192914D02*
X113612405Y-69383390D01*
X113612405Y-69383390D02*
X113612405Y-69764342D01*
X113612405Y-69764342D02*
X113660024Y-69859580D01*
X113660024Y-69859580D02*
X113707643Y-69907200D01*
X113707643Y-69907200D02*
X113802881Y-69954819D01*
X113802881Y-69954819D02*
X113993357Y-69954819D01*
X113993357Y-69954819D02*
X114088595Y-69907200D01*
X114088595Y-69907200D02*
X114136214Y-69859580D01*
X114136214Y-69859580D02*
X114183833Y-69764342D01*
X114183833Y-69764342D02*
X114183833Y-69526247D01*
X114183833Y-69526247D02*
X114136214Y-69431009D01*
X114136214Y-69431009D02*
X114088595Y-69383390D01*
X114088595Y-69383390D02*
X113993357Y-69335771D01*
X113993357Y-69335771D02*
X113802881Y-69335771D01*
X113802881Y-69335771D02*
X113707643Y-69383390D01*
X113707643Y-69383390D02*
X113660024Y-69431009D01*
X113660024Y-69431009D02*
X113612405Y-69526247D01*
X115040976Y-68954819D02*
X114850500Y-68954819D01*
X114850500Y-68954819D02*
X114755262Y-69002438D01*
X114755262Y-69002438D02*
X114707643Y-69050057D01*
X114707643Y-69050057D02*
X114612405Y-69192914D01*
X114612405Y-69192914D02*
X114564786Y-69383390D01*
X114564786Y-69383390D02*
X114564786Y-69764342D01*
X114564786Y-69764342D02*
X114612405Y-69859580D01*
X114612405Y-69859580D02*
X114660024Y-69907200D01*
X114660024Y-69907200D02*
X114755262Y-69954819D01*
X114755262Y-69954819D02*
X114945738Y-69954819D01*
X114945738Y-69954819D02*
X115040976Y-69907200D01*
X115040976Y-69907200D02*
X115088595Y-69859580D01*
X115088595Y-69859580D02*
X115136214Y-69764342D01*
X115136214Y-69764342D02*
X115136214Y-69526247D01*
X115136214Y-69526247D02*
X115088595Y-69431009D01*
X115088595Y-69431009D02*
X115040976Y-69383390D01*
X115040976Y-69383390D02*
X114945738Y-69335771D01*
X114945738Y-69335771D02*
X114755262Y-69335771D01*
X114755262Y-69335771D02*
X114660024Y-69383390D01*
X114660024Y-69383390D02*
X114612405Y-69431009D01*
X114612405Y-69431009D02*
X114564786Y-69526247D01*
X115755262Y-68954819D02*
X115850500Y-68954819D01*
X115850500Y-68954819D02*
X115945738Y-69002438D01*
X115945738Y-69002438D02*
X115993357Y-69050057D01*
X115993357Y-69050057D02*
X116040976Y-69145295D01*
X116040976Y-69145295D02*
X116088595Y-69335771D01*
X116088595Y-69335771D02*
X116088595Y-69573866D01*
X116088595Y-69573866D02*
X116040976Y-69764342D01*
X116040976Y-69764342D02*
X115993357Y-69859580D01*
X115993357Y-69859580D02*
X115945738Y-69907200D01*
X115945738Y-69907200D02*
X115850500Y-69954819D01*
X115850500Y-69954819D02*
X115755262Y-69954819D01*
X115755262Y-69954819D02*
X115660024Y-69907200D01*
X115660024Y-69907200D02*
X115612405Y-69859580D01*
X115612405Y-69859580D02*
X115564786Y-69764342D01*
X115564786Y-69764342D02*
X115517167Y-69573866D01*
X115517167Y-69573866D02*
X115517167Y-69335771D01*
X115517167Y-69335771D02*
X115564786Y-69145295D01*
X115564786Y-69145295D02*
X115612405Y-69050057D01*
X115612405Y-69050057D02*
X115660024Y-69002438D01*
X115660024Y-69002438D02*
X115755262Y-68954819D01*
D12*
%TO.C,S1*%
X173532380Y-143013842D02*
X173713809Y-143074318D01*
X173713809Y-143074318D02*
X174016190Y-143074318D01*
X174016190Y-143074318D02*
X174137142Y-143013842D01*
X174137142Y-143013842D02*
X174197618Y-142953365D01*
X174197618Y-142953365D02*
X174258095Y-142832413D01*
X174258095Y-142832413D02*
X174258095Y-142711461D01*
X174258095Y-142711461D02*
X174197618Y-142590508D01*
X174197618Y-142590508D02*
X174137142Y-142530032D01*
X174137142Y-142530032D02*
X174016190Y-142469556D01*
X174016190Y-142469556D02*
X173774285Y-142409080D01*
X173774285Y-142409080D02*
X173653333Y-142348603D01*
X173653333Y-142348603D02*
X173592856Y-142288127D01*
X173592856Y-142288127D02*
X173532380Y-142167175D01*
X173532380Y-142167175D02*
X173532380Y-142046222D01*
X173532380Y-142046222D02*
X173592856Y-141925270D01*
X173592856Y-141925270D02*
X173653333Y-141864794D01*
X173653333Y-141864794D02*
X173774285Y-141804318D01*
X173774285Y-141804318D02*
X174076666Y-141804318D01*
X174076666Y-141804318D02*
X174258095Y-141864794D01*
X175467619Y-143074318D02*
X174741904Y-143074318D01*
X175104761Y-143074318D02*
X175104761Y-141804318D01*
X175104761Y-141804318D02*
X174983809Y-141985746D01*
X174983809Y-141985746D02*
X174862857Y-142106699D01*
X174862857Y-142106699D02*
X174741904Y-142167175D01*
D10*
%TO.C,J3*%
X183166666Y-60539819D02*
X183166666Y-61254104D01*
X183166666Y-61254104D02*
X183119047Y-61396961D01*
X183119047Y-61396961D02*
X183023809Y-61492200D01*
X183023809Y-61492200D02*
X182880952Y-61539819D01*
X182880952Y-61539819D02*
X182785714Y-61539819D01*
X183547619Y-60539819D02*
X184166666Y-60539819D01*
X184166666Y-60539819D02*
X183833333Y-60920771D01*
X183833333Y-60920771D02*
X183976190Y-60920771D01*
X183976190Y-60920771D02*
X184071428Y-60968390D01*
X184071428Y-60968390D02*
X184119047Y-61016009D01*
X184119047Y-61016009D02*
X184166666Y-61111247D01*
X184166666Y-61111247D02*
X184166666Y-61349342D01*
X184166666Y-61349342D02*
X184119047Y-61444580D01*
X184119047Y-61444580D02*
X184071428Y-61492200D01*
X184071428Y-61492200D02*
X183976190Y-61539819D01*
X183976190Y-61539819D02*
X183690476Y-61539819D01*
X183690476Y-61539819D02*
X183595238Y-61492200D01*
X183595238Y-61492200D02*
X183547619Y-61444580D01*
%TO.C,SW2*%
X145650969Y-114628784D02*
X145793826Y-114676403D01*
X145793826Y-114676403D02*
X146031921Y-114676403D01*
X146031921Y-114676403D02*
X146127159Y-114628784D01*
X146127159Y-114628784D02*
X146174778Y-114581164D01*
X146174778Y-114581164D02*
X146222397Y-114485926D01*
X146222397Y-114485926D02*
X146222397Y-114390688D01*
X146222397Y-114390688D02*
X146174778Y-114295450D01*
X146174778Y-114295450D02*
X146127159Y-114247831D01*
X146127159Y-114247831D02*
X146031921Y-114200212D01*
X146031921Y-114200212D02*
X145841445Y-114152593D01*
X145841445Y-114152593D02*
X145746207Y-114104974D01*
X145746207Y-114104974D02*
X145698588Y-114057355D01*
X145698588Y-114057355D02*
X145650969Y-113962117D01*
X145650969Y-113962117D02*
X145650969Y-113866879D01*
X145650969Y-113866879D02*
X145698588Y-113771641D01*
X145698588Y-113771641D02*
X145746207Y-113724022D01*
X145746207Y-113724022D02*
X145841445Y-113676403D01*
X145841445Y-113676403D02*
X146079540Y-113676403D01*
X146079540Y-113676403D02*
X146222397Y-113724022D01*
X146555731Y-113676403D02*
X146793826Y-114676403D01*
X146793826Y-114676403D02*
X146984302Y-113962117D01*
X146984302Y-113962117D02*
X147174778Y-114676403D01*
X147174778Y-114676403D02*
X147412874Y-113676403D01*
X147555731Y-114771641D02*
X148317635Y-114771641D01*
X149127159Y-114676403D02*
X148793826Y-114200212D01*
X148555731Y-114676403D02*
X148555731Y-113676403D01*
X148555731Y-113676403D02*
X148936683Y-113676403D01*
X148936683Y-113676403D02*
X149031921Y-113724022D01*
X149031921Y-113724022D02*
X149079540Y-113771641D01*
X149079540Y-113771641D02*
X149127159Y-113866879D01*
X149127159Y-113866879D02*
X149127159Y-114009736D01*
X149127159Y-114009736D02*
X149079540Y-114104974D01*
X149079540Y-114104974D02*
X149031921Y-114152593D01*
X149031921Y-114152593D02*
X148936683Y-114200212D01*
X148936683Y-114200212D02*
X148555731Y-114200212D01*
X149698588Y-114676403D02*
X149603350Y-114628784D01*
X149603350Y-114628784D02*
X149555731Y-114581164D01*
X149555731Y-114581164D02*
X149508112Y-114485926D01*
X149508112Y-114485926D02*
X149508112Y-114200212D01*
X149508112Y-114200212D02*
X149555731Y-114104974D01*
X149555731Y-114104974D02*
X149603350Y-114057355D01*
X149603350Y-114057355D02*
X149698588Y-114009736D01*
X149698588Y-114009736D02*
X149841445Y-114009736D01*
X149841445Y-114009736D02*
X149936683Y-114057355D01*
X149936683Y-114057355D02*
X149984302Y-114104974D01*
X149984302Y-114104974D02*
X150031921Y-114200212D01*
X150031921Y-114200212D02*
X150031921Y-114485926D01*
X150031921Y-114485926D02*
X149984302Y-114581164D01*
X149984302Y-114581164D02*
X149936683Y-114628784D01*
X149936683Y-114628784D02*
X149841445Y-114676403D01*
X149841445Y-114676403D02*
X149698588Y-114676403D01*
X150317636Y-114009736D02*
X150698588Y-114009736D01*
X150460493Y-113676403D02*
X150460493Y-114533545D01*
X150460493Y-114533545D02*
X150508112Y-114628784D01*
X150508112Y-114628784D02*
X150603350Y-114676403D01*
X150603350Y-114676403D02*
X150698588Y-114676403D01*
X151460493Y-114676403D02*
X151460493Y-114152593D01*
X151460493Y-114152593D02*
X151412874Y-114057355D01*
X151412874Y-114057355D02*
X151317636Y-114009736D01*
X151317636Y-114009736D02*
X151127160Y-114009736D01*
X151127160Y-114009736D02*
X151031922Y-114057355D01*
X151460493Y-114628784D02*
X151365255Y-114676403D01*
X151365255Y-114676403D02*
X151127160Y-114676403D01*
X151127160Y-114676403D02*
X151031922Y-114628784D01*
X151031922Y-114628784D02*
X150984303Y-114533545D01*
X150984303Y-114533545D02*
X150984303Y-114438307D01*
X150984303Y-114438307D02*
X151031922Y-114343069D01*
X151031922Y-114343069D02*
X151127160Y-114295450D01*
X151127160Y-114295450D02*
X151365255Y-114295450D01*
X151365255Y-114295450D02*
X151460493Y-114247831D01*
X151936684Y-114676403D02*
X151936684Y-114009736D01*
X151936684Y-114200212D02*
X151984303Y-114104974D01*
X151984303Y-114104974D02*
X152031922Y-114057355D01*
X152031922Y-114057355D02*
X152127160Y-114009736D01*
X152127160Y-114009736D02*
X152222398Y-114009736D01*
X152460494Y-114009736D02*
X152698589Y-114676403D01*
X152936684Y-114009736D02*
X152698589Y-114676403D01*
X152698589Y-114676403D02*
X152603351Y-114914498D01*
X152603351Y-114914498D02*
X152555732Y-114962117D01*
X152555732Y-114962117D02*
X152460494Y-115009736D01*
X153270018Y-113771641D02*
X153317637Y-113724022D01*
X153317637Y-113724022D02*
X153412875Y-113676403D01*
X153412875Y-113676403D02*
X153650970Y-113676403D01*
X153650970Y-113676403D02*
X153746208Y-113724022D01*
X153746208Y-113724022D02*
X153793827Y-113771641D01*
X153793827Y-113771641D02*
X153841446Y-113866879D01*
X153841446Y-113866879D02*
X153841446Y-113962117D01*
X153841446Y-113962117D02*
X153793827Y-114104974D01*
X153793827Y-114104974D02*
X153222399Y-114676403D01*
X153222399Y-114676403D02*
X153841446Y-114676403D01*
X154174780Y-114676403D02*
X154698589Y-114009736D01*
X154174780Y-114009736D02*
X154698589Y-114676403D01*
X155508113Y-113676403D02*
X155317637Y-113676403D01*
X155317637Y-113676403D02*
X155222399Y-113724022D01*
X155222399Y-113724022D02*
X155174780Y-113771641D01*
X155174780Y-113771641D02*
X155079542Y-113914498D01*
X155079542Y-113914498D02*
X155031923Y-114104974D01*
X155031923Y-114104974D02*
X155031923Y-114485926D01*
X155031923Y-114485926D02*
X155079542Y-114581164D01*
X155079542Y-114581164D02*
X155127161Y-114628784D01*
X155127161Y-114628784D02*
X155222399Y-114676403D01*
X155222399Y-114676403D02*
X155412875Y-114676403D01*
X155412875Y-114676403D02*
X155508113Y-114628784D01*
X155508113Y-114628784D02*
X155555732Y-114581164D01*
X155555732Y-114581164D02*
X155603351Y-114485926D01*
X155603351Y-114485926D02*
X155603351Y-114247831D01*
X155603351Y-114247831D02*
X155555732Y-114152593D01*
X155555732Y-114152593D02*
X155508113Y-114104974D01*
X155508113Y-114104974D02*
X155412875Y-114057355D01*
X155412875Y-114057355D02*
X155222399Y-114057355D01*
X155222399Y-114057355D02*
X155127161Y-114104974D01*
X155127161Y-114104974D02*
X155079542Y-114152593D01*
X155079542Y-114152593D02*
X155031923Y-114247831D01*
X153500000Y-102954819D02*
X153500000Y-103192914D01*
X153261905Y-103097676D02*
X153500000Y-103192914D01*
X153500000Y-103192914D02*
X153738095Y-103097676D01*
X153357143Y-103383390D02*
X153500000Y-103192914D01*
X153500000Y-103192914D02*
X153642857Y-103383390D01*
%TO.C,J2*%
X188784819Y-68833333D02*
X189499104Y-68833333D01*
X189499104Y-68833333D02*
X189641961Y-68880952D01*
X189641961Y-68880952D02*
X189737200Y-68976190D01*
X189737200Y-68976190D02*
X189784819Y-69119047D01*
X189784819Y-69119047D02*
X189784819Y-69214285D01*
X188880057Y-68404761D02*
X188832438Y-68357142D01*
X188832438Y-68357142D02*
X188784819Y-68261904D01*
X188784819Y-68261904D02*
X188784819Y-68023809D01*
X188784819Y-68023809D02*
X188832438Y-67928571D01*
X188832438Y-67928571D02*
X188880057Y-67880952D01*
X188880057Y-67880952D02*
X188975295Y-67833333D01*
X188975295Y-67833333D02*
X189070533Y-67833333D01*
X189070533Y-67833333D02*
X189213390Y-67880952D01*
X189213390Y-67880952D02*
X189784819Y-68452380D01*
X189784819Y-68452380D02*
X189784819Y-67833333D01*
%TO.C,J5*%
X120666666Y-57539819D02*
X120666666Y-58254104D01*
X120666666Y-58254104D02*
X120619047Y-58396961D01*
X120619047Y-58396961D02*
X120523809Y-58492200D01*
X120523809Y-58492200D02*
X120380952Y-58539819D01*
X120380952Y-58539819D02*
X120285714Y-58539819D01*
X121619047Y-57539819D02*
X121142857Y-57539819D01*
X121142857Y-57539819D02*
X121095238Y-58016009D01*
X121095238Y-58016009D02*
X121142857Y-57968390D01*
X121142857Y-57968390D02*
X121238095Y-57920771D01*
X121238095Y-57920771D02*
X121476190Y-57920771D01*
X121476190Y-57920771D02*
X121571428Y-57968390D01*
X121571428Y-57968390D02*
X121619047Y-58016009D01*
X121619047Y-58016009D02*
X121666666Y-58111247D01*
X121666666Y-58111247D02*
X121666666Y-58349342D01*
X121666666Y-58349342D02*
X121619047Y-58444580D01*
X121619047Y-58444580D02*
X121571428Y-58492200D01*
X121571428Y-58492200D02*
X121476190Y-58539819D01*
X121476190Y-58539819D02*
X121238095Y-58539819D01*
X121238095Y-58539819D02*
X121142857Y-58492200D01*
X121142857Y-58492200D02*
X121095238Y-58444580D01*
%TO.C,R5*%
X111833333Y-62704819D02*
X111500000Y-62228628D01*
X111261905Y-62704819D02*
X111261905Y-61704819D01*
X111261905Y-61704819D02*
X111642857Y-61704819D01*
X111642857Y-61704819D02*
X111738095Y-61752438D01*
X111738095Y-61752438D02*
X111785714Y-61800057D01*
X111785714Y-61800057D02*
X111833333Y-61895295D01*
X111833333Y-61895295D02*
X111833333Y-62038152D01*
X111833333Y-62038152D02*
X111785714Y-62133390D01*
X111785714Y-62133390D02*
X111738095Y-62181009D01*
X111738095Y-62181009D02*
X111642857Y-62228628D01*
X111642857Y-62228628D02*
X111261905Y-62228628D01*
X112738095Y-61704819D02*
X112261905Y-61704819D01*
X112261905Y-61704819D02*
X112214286Y-62181009D01*
X112214286Y-62181009D02*
X112261905Y-62133390D01*
X112261905Y-62133390D02*
X112357143Y-62085771D01*
X112357143Y-62085771D02*
X112595238Y-62085771D01*
X112595238Y-62085771D02*
X112690476Y-62133390D01*
X112690476Y-62133390D02*
X112738095Y-62181009D01*
X112738095Y-62181009D02*
X112785714Y-62276247D01*
X112785714Y-62276247D02*
X112785714Y-62514342D01*
X112785714Y-62514342D02*
X112738095Y-62609580D01*
X112738095Y-62609580D02*
X112690476Y-62657200D01*
X112690476Y-62657200D02*
X112595238Y-62704819D01*
X112595238Y-62704819D02*
X112357143Y-62704819D01*
X112357143Y-62704819D02*
X112261905Y-62657200D01*
X112261905Y-62657200D02*
X112214286Y-62609580D01*
X113464286Y-61704819D02*
X114083333Y-61704819D01*
X114083333Y-61704819D02*
X113750000Y-62085771D01*
X113750000Y-62085771D02*
X113892857Y-62085771D01*
X113892857Y-62085771D02*
X113988095Y-62133390D01*
X113988095Y-62133390D02*
X114035714Y-62181009D01*
X114035714Y-62181009D02*
X114083333Y-62276247D01*
X114083333Y-62276247D02*
X114083333Y-62514342D01*
X114083333Y-62514342D02*
X114035714Y-62609580D01*
X114035714Y-62609580D02*
X113988095Y-62657200D01*
X113988095Y-62657200D02*
X113892857Y-62704819D01*
X113892857Y-62704819D02*
X113607143Y-62704819D01*
X113607143Y-62704819D02*
X113511905Y-62657200D01*
X113511905Y-62657200D02*
X113464286Y-62609580D01*
X114416667Y-61704819D02*
X115035714Y-61704819D01*
X115035714Y-61704819D02*
X114702381Y-62085771D01*
X114702381Y-62085771D02*
X114845238Y-62085771D01*
X114845238Y-62085771D02*
X114940476Y-62133390D01*
X114940476Y-62133390D02*
X114988095Y-62181009D01*
X114988095Y-62181009D02*
X115035714Y-62276247D01*
X115035714Y-62276247D02*
X115035714Y-62514342D01*
X115035714Y-62514342D02*
X114988095Y-62609580D01*
X114988095Y-62609580D02*
X114940476Y-62657200D01*
X114940476Y-62657200D02*
X114845238Y-62704819D01*
X114845238Y-62704819D02*
X114559524Y-62704819D01*
X114559524Y-62704819D02*
X114464286Y-62657200D01*
X114464286Y-62657200D02*
X114416667Y-62609580D01*
X115654762Y-61704819D02*
X115750000Y-61704819D01*
X115750000Y-61704819D02*
X115845238Y-61752438D01*
X115845238Y-61752438D02*
X115892857Y-61800057D01*
X115892857Y-61800057D02*
X115940476Y-61895295D01*
X115940476Y-61895295D02*
X115988095Y-62085771D01*
X115988095Y-62085771D02*
X115988095Y-62323866D01*
X115988095Y-62323866D02*
X115940476Y-62514342D01*
X115940476Y-62514342D02*
X115892857Y-62609580D01*
X115892857Y-62609580D02*
X115845238Y-62657200D01*
X115845238Y-62657200D02*
X115750000Y-62704819D01*
X115750000Y-62704819D02*
X115654762Y-62704819D01*
X115654762Y-62704819D02*
X115559524Y-62657200D01*
X115559524Y-62657200D02*
X115511905Y-62609580D01*
X115511905Y-62609580D02*
X115464286Y-62514342D01*
X115464286Y-62514342D02*
X115416667Y-62323866D01*
X115416667Y-62323866D02*
X115416667Y-62085771D01*
X115416667Y-62085771D02*
X115464286Y-61895295D01*
X115464286Y-61895295D02*
X115511905Y-61800057D01*
X115511905Y-61800057D02*
X115559524Y-61752438D01*
X115559524Y-61752438D02*
X115654762Y-61704819D01*
%TO.C,LOGO3*%
G36*
X111378543Y-104034841D02*
G01*
X111336210Y-104077174D01*
X111293876Y-104034841D01*
X111336210Y-103992508D01*
X111378543Y-104034841D01*
G37*
G36*
X111378543Y-104458174D02*
G01*
X111336210Y-104500508D01*
X111293876Y-104458174D01*
X111336210Y-104415841D01*
X111378543Y-104458174D01*
G37*
G36*
X111463210Y-103696174D02*
G01*
X111420876Y-103738508D01*
X111378543Y-103696174D01*
X111420876Y-103653841D01*
X111463210Y-103696174D01*
G37*
G36*
X115188543Y-113009508D02*
G01*
X115146210Y-113051841D01*
X115103876Y-113009508D01*
X115146210Y-112967174D01*
X115188543Y-113009508D01*
G37*
G36*
X115357876Y-114025508D02*
G01*
X115315543Y-114067841D01*
X115273210Y-114025508D01*
X115315543Y-113983174D01*
X115357876Y-114025508D01*
G37*
G36*
X115527210Y-105050841D02*
G01*
X115484876Y-105093174D01*
X115442543Y-105050841D01*
X115484876Y-105008508D01*
X115527210Y-105050841D01*
G37*
G36*
X116712543Y-104796841D02*
G01*
X116670210Y-104839174D01*
X116627876Y-104796841D01*
X116670210Y-104754508D01*
X116712543Y-104796841D01*
G37*
G36*
X117135876Y-103780841D02*
G01*
X117093543Y-103823174D01*
X117051210Y-103780841D01*
X117093543Y-103738508D01*
X117135876Y-103780841D01*
G37*
G36*
X120776543Y-97515508D02*
G01*
X120734210Y-97557841D01*
X120691876Y-97515508D01*
X120734210Y-97473174D01*
X120776543Y-97515508D01*
G37*
G36*
X120776543Y-97684841D02*
G01*
X120734210Y-97727174D01*
X120691876Y-97684841D01*
X120734210Y-97642508D01*
X120776543Y-97684841D01*
G37*
G36*
X125094543Y-104881508D02*
G01*
X125052210Y-104923841D01*
X125009876Y-104881508D01*
X125052210Y-104839174D01*
X125094543Y-104881508D01*
G37*
G36*
X111096321Y-103766730D02*
G01*
X111106454Y-103867209D01*
X111096321Y-103879619D01*
X111045986Y-103867996D01*
X111039876Y-103823174D01*
X111070854Y-103753484D01*
X111096321Y-103766730D01*
G37*
G36*
X111519654Y-103851396D02*
G01*
X111508032Y-103901731D01*
X111463210Y-103907841D01*
X111393519Y-103876863D01*
X111406765Y-103851396D01*
X111507245Y-103841263D01*
X111519654Y-103851396D01*
G37*
G36*
X115837654Y-102496730D02*
G01*
X115847787Y-102597209D01*
X115837654Y-102609619D01*
X115787320Y-102597996D01*
X115781210Y-102553174D01*
X115812188Y-102483484D01*
X115837654Y-102496730D01*
G37*
G36*
X117361654Y-109439396D02*
G01*
X117350032Y-109489731D01*
X117305210Y-109495841D01*
X117235519Y-109464863D01*
X117248765Y-109439396D01*
X117349245Y-109429263D01*
X117361654Y-109439396D01*
G37*
G36*
X117361654Y-109862730D02*
G01*
X117350032Y-109913064D01*
X117305210Y-109919174D01*
X117235519Y-109888196D01*
X117248765Y-109862730D01*
X117349245Y-109852597D01*
X117361654Y-109862730D01*
G37*
G36*
X120070987Y-111725396D02*
G01*
X120059365Y-111775731D01*
X120014543Y-111781841D01*
X119944853Y-111750863D01*
X119958098Y-111725396D01*
X120058578Y-111715263D01*
X120070987Y-111725396D01*
G37*
G36*
X121086987Y-121292730D02*
G01*
X121075365Y-121343064D01*
X121030543Y-121349174D01*
X120960853Y-121318196D01*
X120974098Y-121292730D01*
X121074578Y-121282597D01*
X121086987Y-121292730D01*
G37*
G36*
X121261612Y-121552021D02*
G01*
X121236361Y-121590503D01*
X121150487Y-121596490D01*
X121060145Y-121575813D01*
X121099335Y-121545337D01*
X121231658Y-121535244D01*
X121261612Y-121552021D01*
G37*
G36*
X121684946Y-121721355D02*
G01*
X121659695Y-121759837D01*
X121573821Y-121765823D01*
X121483478Y-121745146D01*
X121522668Y-121714671D01*
X121654992Y-121704577D01*
X121684946Y-121721355D01*
G37*
G36*
X125404987Y-111556063D02*
G01*
X125393365Y-111606397D01*
X125348543Y-111612508D01*
X125278853Y-111581529D01*
X125292098Y-111556063D01*
X125392578Y-111545930D01*
X125404987Y-111556063D01*
G37*
G36*
X125828321Y-111640730D02*
G01*
X125816698Y-111691064D01*
X125771876Y-111697174D01*
X125702186Y-111666196D01*
X125715432Y-111640730D01*
X125815911Y-111630597D01*
X125828321Y-111640730D01*
G37*
G36*
X111219545Y-104104691D02*
G01*
X111275637Y-104244987D01*
X111269763Y-104298843D01*
X111212011Y-104268657D01*
X111177336Y-104200901D01*
X111129366Y-104040134D01*
X111149062Y-104008059D01*
X111219545Y-104104691D01*
G37*
G36*
X115819145Y-102859536D02*
G01*
X115938319Y-102927858D01*
X115918355Y-102972037D01*
X115870873Y-102976508D01*
X115756063Y-102915016D01*
X115739476Y-102892811D01*
X115753103Y-102844698D01*
X115819145Y-102859536D01*
G37*
G36*
X111690021Y-102167371D02*
G01*
X111632543Y-102214508D01*
X111478194Y-102286151D01*
X111420876Y-102296581D01*
X111405731Y-102261644D01*
X111463210Y-102214508D01*
X111617558Y-102142864D01*
X111674876Y-102132434D01*
X111690021Y-102167371D01*
G37*
G36*
X113601043Y-107172220D02*
G01*
X113761107Y-107278654D01*
X113833514Y-107344534D01*
X113833876Y-107346578D01*
X113797619Y-107374603D01*
X113675721Y-107295312D01*
X113568089Y-107204816D01*
X113368210Y-107030457D01*
X113601043Y-107172220D01*
G37*
G36*
X114707956Y-106762366D02*
G01*
X114692443Y-106875683D01*
X114593880Y-106999981D01*
X114473341Y-107083922D01*
X114426543Y-107069812D01*
X114469156Y-106933925D01*
X114564522Y-106807654D01*
X114663933Y-106744212D01*
X114707956Y-106762366D01*
G37*
G36*
X117285030Y-104781001D02*
G01*
X117304822Y-104803887D01*
X117183235Y-104816729D01*
X117093543Y-104817823D01*
X116929579Y-104809487D01*
X116904703Y-104790364D01*
X116946363Y-104779293D01*
X117166973Y-104765661D01*
X117285030Y-104781001D01*
G37*
G36*
X117438990Y-109620332D02*
G01*
X117432210Y-109665174D01*
X117359789Y-109745857D01*
X117347543Y-109749841D01*
X117280229Y-109690789D01*
X117262876Y-109665174D01*
X117282982Y-109593445D01*
X117347543Y-109580508D01*
X117438990Y-109620332D01*
G37*
G36*
X119650962Y-120566008D02*
G01*
X119664969Y-120812725D01*
X119650962Y-120947008D01*
X119630024Y-120987130D01*
X119616739Y-120880756D01*
X119614270Y-120756508D01*
X119620875Y-120573386D01*
X119637761Y-120523117D01*
X119650962Y-120566008D01*
G37*
G36*
X124731965Y-103168172D02*
G01*
X124745893Y-103418564D01*
X124730809Y-103591505D01*
X124710979Y-103625574D01*
X124698197Y-103514645D01*
X124695425Y-103357508D01*
X124701761Y-103165405D01*
X124716933Y-103109216D01*
X124731965Y-103168172D01*
G37*
G36*
X119907962Y-121095174D02*
G01*
X120015630Y-121254140D01*
X120091778Y-121325315D01*
X120182629Y-121401702D01*
X120148827Y-121412977D01*
X119993376Y-121375478D01*
X119873358Y-121267658D01*
X119851894Y-121152466D01*
X119869210Y-121042914D01*
X119907962Y-121095174D01*
G37*
G36*
X115957085Y-107449624D02*
G01*
X115998032Y-107606170D01*
X115981161Y-107760174D01*
X115903848Y-107879642D01*
X115840862Y-107846436D01*
X115813885Y-107677059D01*
X115814527Y-107633367D01*
X115836688Y-107454858D01*
X115877467Y-107379380D01*
X115877984Y-107379367D01*
X115957085Y-107449624D01*
G37*
G36*
X119655204Y-103016481D02*
G01*
X119921060Y-103050561D01*
X120138174Y-103098871D01*
X120280467Y-103150422D01*
X120321865Y-103194225D01*
X120236289Y-103219290D01*
X120141543Y-103221426D01*
X119892928Y-103189808D01*
X119603626Y-103116795D01*
X119548876Y-103098571D01*
X119210210Y-102979649D01*
X119655204Y-103016481D01*
G37*
G36*
X111416827Y-104614413D02*
G01*
X111469662Y-104690419D01*
X111543927Y-104785985D01*
X111637702Y-104777364D01*
X111766063Y-104700117D01*
X111935310Y-104611029D01*
X112032169Y-104638605D01*
X112083679Y-104803551D01*
X112102207Y-104957542D01*
X112149758Y-105216976D01*
X112224574Y-105430574D01*
X112227026Y-105435235D01*
X112281748Y-105627264D01*
X112253988Y-105788591D01*
X112156322Y-105855174D01*
X112047703Y-105798144D01*
X111951650Y-105707008D01*
X111848476Y-105559247D01*
X111714173Y-105328872D01*
X111575218Y-105066827D01*
X111458085Y-104824062D01*
X111389252Y-104651521D01*
X111381117Y-104609155D01*
X111416827Y-104614413D01*
G37*
G36*
X119029809Y-103115040D02*
G01*
X119389680Y-103218570D01*
X119761020Y-103328917D01*
X120158454Y-103436567D01*
X120353210Y-103484641D01*
X120643631Y-103565328D01*
X120885394Y-103654859D01*
X120981665Y-103705291D01*
X121092236Y-103794383D01*
X121063137Y-103845877D01*
X120995732Y-103874336D01*
X120913648Y-103942912D01*
X120969922Y-104012009D01*
X121134753Y-104062248D01*
X121305710Y-104075878D01*
X121477360Y-104125559D01*
X121542688Y-104280471D01*
X121504315Y-104553187D01*
X121444971Y-104743660D01*
X121339554Y-104957039D01*
X121184330Y-105095191D01*
X120957413Y-105160819D01*
X120636914Y-105156621D01*
X120200945Y-105085298D01*
X119675876Y-104961908D01*
X119298660Y-104871644D01*
X118956159Y-104800073D01*
X118699529Y-104757431D01*
X118617543Y-104750104D01*
X118313163Y-104684555D01*
X117972755Y-104526608D01*
X117656698Y-104312773D01*
X117425377Y-104079560D01*
X117382511Y-104010917D01*
X118601878Y-104010917D01*
X118713863Y-104113701D01*
X118954766Y-104227677D01*
X118960975Y-104229998D01*
X119323128Y-104347234D01*
X119702242Y-104441049D01*
X120065914Y-104507305D01*
X120381741Y-104541865D01*
X120617320Y-104540592D01*
X120740249Y-104499349D01*
X120748118Y-104458174D01*
X120658749Y-104401230D01*
X120443851Y-104318874D01*
X120143226Y-104222287D01*
X119796677Y-104122646D01*
X119444007Y-104031132D01*
X119125020Y-103958923D01*
X118879518Y-103917198D01*
X118800987Y-103911300D01*
X118627891Y-103937420D01*
X118601878Y-104010917D01*
X117382511Y-104010917D01*
X117374895Y-103998721D01*
X117282461Y-103774732D01*
X117293801Y-103613098D01*
X117426801Y-103464836D01*
X117618239Y-103332252D01*
X117840437Y-103210766D01*
X118014551Y-103185729D01*
X118176540Y-103226418D01*
X118414419Y-103299196D01*
X118534492Y-103299663D01*
X118573694Y-103224279D01*
X118575210Y-103188174D01*
X118619720Y-103093875D01*
X118765253Y-103069273D01*
X119029809Y-103115040D01*
G37*
G36*
X121680781Y-96795181D02*
G01*
X121873155Y-96820674D01*
X122061697Y-96864748D01*
X122237043Y-96915514D01*
X122509204Y-97004733D01*
X122655442Y-97083648D01*
X122714139Y-97182901D01*
X122723876Y-97304143D01*
X122774357Y-97516846D01*
X122890005Y-97599157D01*
X123060454Y-97705033D01*
X123293686Y-97917442D01*
X123559524Y-98201380D01*
X123827791Y-98521844D01*
X124068309Y-98843832D01*
X124250901Y-99132339D01*
X124305966Y-99241554D01*
X124505643Y-99777172D01*
X124663917Y-100378382D01*
X124774714Y-101001217D01*
X124831960Y-101601710D01*
X124829583Y-102135893D01*
X124763415Y-102553174D01*
X124703166Y-102764841D01*
X124598606Y-102572591D01*
X124537335Y-102398352D01*
X124545291Y-102297424D01*
X124530943Y-102221918D01*
X124492762Y-102214508D01*
X124427315Y-102185169D01*
X124438376Y-102165119D01*
X124422448Y-102077596D01*
X124322399Y-101950364D01*
X124299626Y-101918174D01*
X124332543Y-101918174D01*
X124374876Y-101960508D01*
X124417210Y-101918174D01*
X124374876Y-101875841D01*
X124332543Y-101918174D01*
X124299626Y-101918174D01*
X124218124Y-101802967D01*
X124208748Y-101701322D01*
X124208044Y-101638554D01*
X124180886Y-101640910D01*
X124086638Y-101600473D01*
X123891107Y-101473072D01*
X123623914Y-101279159D01*
X123349093Y-101066611D01*
X122878157Y-100699142D01*
X122517783Y-100432459D01*
X122272642Y-100269779D01*
X122147406Y-100214319D01*
X122131210Y-100228173D01*
X122064574Y-100219502D01*
X121892809Y-100144932D01*
X121729043Y-100060989D01*
X121209977Y-99839296D01*
X120552534Y-99653336D01*
X119785147Y-99509702D01*
X118946972Y-99415820D01*
X118189901Y-99382684D01*
X117568473Y-99416101D01*
X117060919Y-99520214D01*
X116645472Y-99699165D01*
X116352710Y-99909506D01*
X116237376Y-99986301D01*
X116214198Y-99938877D01*
X116276773Y-99780710D01*
X116418696Y-99525276D01*
X116633564Y-99186052D01*
X116841519Y-98880768D01*
X117377550Y-98223268D01*
X117835142Y-97806170D01*
X120568388Y-97806170D01*
X120585139Y-98060169D01*
X120629803Y-98604831D01*
X120788451Y-98102503D01*
X120870329Y-97800620D01*
X120919011Y-97536092D01*
X120925321Y-97399281D01*
X120901667Y-97262944D01*
X120843031Y-97258289D01*
X120722009Y-97356947D01*
X120623439Y-97463979D01*
X120575531Y-97596770D01*
X120568388Y-97806170D01*
X117835142Y-97806170D01*
X117985440Y-97669172D01*
X118630512Y-97249486D01*
X118712715Y-97207685D01*
X118996323Y-97078468D01*
X119258751Y-96989758D01*
X119553196Y-96929280D01*
X119932857Y-96884757D01*
X120213342Y-96861385D01*
X120750857Y-96821372D01*
X121152614Y-96796412D01*
X121451595Y-96787388D01*
X121680781Y-96795181D01*
G37*
G36*
X119447141Y-99700851D02*
G01*
X119804726Y-99773328D01*
X120246747Y-99882104D01*
X120735513Y-100017347D01*
X121233335Y-100169222D01*
X121665543Y-100314694D01*
X121837225Y-100399471D01*
X122073550Y-100546094D01*
X122340732Y-100729503D01*
X122604985Y-100924636D01*
X122832524Y-101106431D01*
X122989562Y-101249828D01*
X123042313Y-101329765D01*
X123039841Y-101334098D01*
X122950484Y-101327907D01*
X122748145Y-101283313D01*
X122550606Y-101230580D01*
X122016472Y-101082476D01*
X121619123Y-100981849D01*
X121334132Y-100924361D01*
X121137071Y-100905678D01*
X121003514Y-100921462D01*
X120944199Y-100945405D01*
X120803246Y-101099786D01*
X120798159Y-101313522D01*
X120925472Y-101549736D01*
X121009376Y-101639158D01*
X121239875Y-101813026D01*
X121538824Y-101982958D01*
X121856292Y-102126772D01*
X122142351Y-102222285D01*
X122347069Y-102247313D01*
X122369099Y-102243253D01*
X122542230Y-102260390D01*
X122822892Y-102360877D01*
X123140224Y-102513041D01*
X123451906Y-102685642D01*
X123645999Y-102823709D01*
X123759751Y-102961251D01*
X123830413Y-103132279D01*
X123835015Y-103147407D01*
X123886693Y-103424718D01*
X123852712Y-103701255D01*
X123814153Y-103835580D01*
X123697543Y-104204174D01*
X123147210Y-104256322D01*
X122818932Y-104298489D01*
X122526343Y-104354919D01*
X122364043Y-104402393D01*
X122187057Y-104452608D01*
X122131218Y-104406870D01*
X122131210Y-104405649D01*
X122176796Y-104280764D01*
X122288341Y-104094786D01*
X122306267Y-104069136D01*
X122416550Y-103852218D01*
X122433386Y-103672437D01*
X122432293Y-103668806D01*
X122357680Y-103535170D01*
X122227686Y-103375498D01*
X122079921Y-103226637D01*
X121951998Y-103125435D01*
X121881529Y-103108739D01*
X121877210Y-103125004D01*
X121939502Y-103255607D01*
X121961876Y-103272841D01*
X122043290Y-103379819D01*
X122046543Y-103403218D01*
X121975785Y-103454142D01*
X121794693Y-103452005D01*
X121550039Y-103406923D01*
X121288594Y-103329011D01*
X121057131Y-103228387D01*
X120961586Y-103168551D01*
X120789215Y-103030213D01*
X120737419Y-102938298D01*
X120787129Y-102843457D01*
X120821018Y-102804807D01*
X120902782Y-102694232D01*
X120873295Y-102616690D01*
X120711677Y-102521086D01*
X120703298Y-102516747D01*
X120526221Y-102446186D01*
X120325466Y-102422864D01*
X120043702Y-102443333D01*
X119870200Y-102466633D01*
X119018114Y-102542002D01*
X118291064Y-102503580D01*
X117940210Y-102432843D01*
X117516876Y-102319985D01*
X117743170Y-102214508D01*
X118956210Y-102214508D01*
X119075284Y-102284911D01*
X119177870Y-102299174D01*
X119291761Y-102265771D01*
X119294876Y-102214508D01*
X119175801Y-102144104D01*
X119073216Y-102129841D01*
X118959325Y-102163244D01*
X118956210Y-102214508D01*
X117743170Y-102214508D01*
X117813210Y-102181862D01*
X118109543Y-102043740D01*
X117776740Y-102083951D01*
X117498108Y-102139774D01*
X117322262Y-102245348D01*
X117235341Y-102429132D01*
X117223480Y-102719584D01*
X117269767Y-103124674D01*
X117291635Y-103357870D01*
X117261167Y-103464852D01*
X117200225Y-103484508D01*
X117034706Y-103415183D01*
X116880402Y-103253014D01*
X116799269Y-103066712D01*
X116797209Y-103037548D01*
X116738396Y-102877120D01*
X116691228Y-102832548D01*
X116575430Y-102730755D01*
X116403863Y-102550724D01*
X116317851Y-102453077D01*
X116154774Y-102240863D01*
X116092722Y-102074796D01*
X116108203Y-101886263D01*
X116114258Y-101858418D01*
X116198871Y-101568662D01*
X116326966Y-101310666D01*
X116526769Y-101039884D01*
X116826506Y-100711768D01*
X116867687Y-100669341D01*
X117147796Y-100398146D01*
X117371689Y-100245089D01*
X117591892Y-100198505D01*
X117860930Y-100246729D01*
X118212200Y-100370735D01*
X118467809Y-100476031D01*
X118575727Y-100542191D01*
X118550155Y-100579734D01*
X118506719Y-100588944D01*
X118278565Y-100583306D01*
X118075811Y-100536859D01*
X117857184Y-100493591D01*
X117637192Y-100498047D01*
X117469982Y-100542573D01*
X117409703Y-100619511D01*
X117412268Y-100630684D01*
X117504482Y-100711013D01*
X117699171Y-100804449D01*
X117775642Y-100832456D01*
X118063362Y-100939284D01*
X118332061Y-101052942D01*
X118363543Y-101067743D01*
X118592312Y-101143432D01*
X118905484Y-101206196D01*
X119113410Y-101231240D01*
X119406356Y-101246976D01*
X119591420Y-101223554D01*
X119728132Y-101147247D01*
X119811910Y-101070171D01*
X119957703Y-100891870D01*
X119997206Y-100739289D01*
X119918416Y-100601100D01*
X119709328Y-100465974D01*
X119357941Y-100322583D01*
X118852251Y-100159596D01*
X118844758Y-100157343D01*
X117886640Y-99869474D01*
X118372045Y-99771991D01*
X118715013Y-99716070D01*
X119055337Y-99680808D01*
X119211684Y-99674508D01*
X119447141Y-99700851D01*
G37*
G36*
X113345559Y-97844400D02*
G01*
X113488268Y-98140080D01*
X113568591Y-98429483D01*
X113652244Y-98737411D01*
X113734081Y-98884171D01*
X113823002Y-98877591D01*
X113920712Y-98739121D01*
X114087931Y-98555690D01*
X114314999Y-98456324D01*
X114548688Y-98447262D01*
X114735767Y-98534744D01*
X114803304Y-98635659D01*
X114794491Y-98811736D01*
X114687435Y-99088946D01*
X114495713Y-99441261D01*
X114232902Y-99842650D01*
X114030246Y-100117721D01*
X113826128Y-100392016D01*
X113708145Y-100590731D01*
X113654910Y-100769104D01*
X113645037Y-100982373D01*
X113648965Y-101102563D01*
X113687364Y-101473327D01*
X113761804Y-101871092D01*
X113800787Y-102022109D01*
X113866090Y-102296702D01*
X113892914Y-102517444D01*
X113884502Y-102604428D01*
X113879059Y-102689354D01*
X113912623Y-102683833D01*
X113978825Y-102723118D01*
X114040392Y-102881632D01*
X114047372Y-102912269D01*
X114109494Y-103137575D01*
X114212814Y-103446186D01*
X114315797Y-103721654D01*
X114428040Y-104041357D01*
X114509524Y-104339553D01*
X114539912Y-104525987D01*
X114563372Y-104698662D01*
X114643323Y-104787009D01*
X114828664Y-104832932D01*
X114911804Y-104844657D01*
X115148684Y-104889325D01*
X115309632Y-104943478D01*
X115335137Y-104961009D01*
X115316573Y-104993211D01*
X115188543Y-104973783D01*
X115080418Y-104952879D01*
X115112218Y-104989228D01*
X115255260Y-105072937D01*
X115417915Y-105186515D01*
X115476661Y-105276537D01*
X115469508Y-105291987D01*
X115477376Y-105320852D01*
X115550471Y-105300444D01*
X115565693Y-105286777D01*
X115710191Y-105286777D01*
X115730791Y-105334092D01*
X115816042Y-105424986D01*
X115865052Y-105406340D01*
X115865876Y-105394504D01*
X115805739Y-105322892D01*
X115768128Y-105296756D01*
X115710191Y-105286777D01*
X115565693Y-105286777D01*
X115645954Y-105214713D01*
X115639786Y-105154504D01*
X115658104Y-105135813D01*
X115775623Y-105207250D01*
X115802503Y-105226876D01*
X115946874Y-105345182D01*
X115965684Y-105431091D01*
X115870175Y-105552000D01*
X115858773Y-105564298D01*
X115725988Y-105743202D01*
X115697099Y-105862103D01*
X115771404Y-105892148D01*
X115865876Y-105855174D01*
X116004658Y-105801996D01*
X116021427Y-105844166D01*
X115918600Y-105962175D01*
X115844710Y-106026093D01*
X115720553Y-106159454D01*
X115735139Y-106262301D01*
X115752141Y-106281529D01*
X115826706Y-106326013D01*
X115836807Y-106224039D01*
X115881237Y-106092775D01*
X115950543Y-106066841D01*
X116046164Y-106135043D01*
X116095396Y-106349948D01*
X116099864Y-106405508D01*
X116108831Y-106613356D01*
X116088213Y-106676091D01*
X116023726Y-106617237D01*
X115994031Y-106579825D01*
X115915472Y-106492568D01*
X115877416Y-106513784D01*
X115864554Y-106668178D01*
X115862876Y-106791492D01*
X115858158Y-107018420D01*
X115838271Y-107096130D01*
X115787242Y-107044737D01*
X115732344Y-106955841D01*
X115604812Y-106744174D01*
X115662773Y-106954806D01*
X115697007Y-107164141D01*
X115717814Y-107455133D01*
X115720733Y-107602354D01*
X115720733Y-108039268D01*
X116026138Y-107933897D01*
X116325152Y-107830730D01*
X118688098Y-107830730D01*
X118699721Y-107881064D01*
X118744543Y-107887174D01*
X118814233Y-107856196D01*
X118800987Y-107830730D01*
X118700508Y-107820597D01*
X118688098Y-107830730D01*
X116325152Y-107830730D01*
X116331543Y-107828525D01*
X116335177Y-107760174D01*
X118236543Y-107760174D01*
X118278876Y-107802508D01*
X118321210Y-107760174D01*
X118278876Y-107717841D01*
X118236543Y-107760174D01*
X116335177Y-107760174D01*
X116339679Y-107675508D01*
X118998543Y-107675508D01*
X119026504Y-107851100D01*
X119084052Y-107872111D01*
X119131685Y-107738559D01*
X119137753Y-107675448D01*
X119121119Y-107516675D01*
X119111804Y-107506174D01*
X120353210Y-107506174D01*
X120395543Y-107548508D01*
X120437876Y-107506174D01*
X120395543Y-107463841D01*
X120353210Y-107506174D01*
X119111804Y-107506174D01*
X119074253Y-107463841D01*
X119017323Y-107536349D01*
X118998543Y-107675508D01*
X116339679Y-107675508D01*
X116344931Y-107576730D01*
X118095432Y-107576730D01*
X118107054Y-107627064D01*
X118151876Y-107633174D01*
X118221566Y-107602196D01*
X118208321Y-107576730D01*
X118349432Y-107576730D01*
X118361054Y-107627064D01*
X118405876Y-107633174D01*
X118475566Y-107602196D01*
X118469660Y-107590841D01*
X118829210Y-107590841D01*
X118871543Y-107633174D01*
X118913876Y-107590841D01*
X118871543Y-107548508D01*
X118829210Y-107590841D01*
X118469660Y-107590841D01*
X118462321Y-107576730D01*
X118361841Y-107566597D01*
X118349432Y-107576730D01*
X118208321Y-107576730D01*
X118107841Y-107566597D01*
X118095432Y-107576730D01*
X116344931Y-107576730D01*
X116373876Y-107032350D01*
X116396918Y-106415633D01*
X116395567Y-105911967D01*
X116370807Y-105534374D01*
X116323621Y-105295879D01*
X116254994Y-105209504D01*
X116236404Y-105212477D01*
X116173656Y-105213405D01*
X116214842Y-105113997D01*
X116256332Y-105048292D01*
X116377946Y-104881521D01*
X116431030Y-104850734D01*
X116406604Y-104960221D01*
X116399164Y-104980063D01*
X116388070Y-105075622D01*
X116436259Y-105064613D01*
X116493918Y-105077042D01*
X116480593Y-105187332D01*
X116463297Y-105310803D01*
X116536065Y-105309064D01*
X116612336Y-105270824D01*
X116738779Y-105146776D01*
X116742665Y-105049549D01*
X116749412Y-104962749D01*
X116879600Y-104927173D01*
X116989234Y-104923841D01*
X117195903Y-104944002D01*
X117295194Y-105031471D01*
X117333318Y-105156674D01*
X117419791Y-105355192D01*
X117583651Y-105595904D01*
X117682568Y-105711719D01*
X117856105Y-105933803D01*
X117964421Y-106141092D01*
X117982543Y-106226222D01*
X118003524Y-106354744D01*
X118099657Y-106391745D01*
X118257710Y-106374510D01*
X118406671Y-106337947D01*
X118407037Y-106304463D01*
X118384710Y-106298299D01*
X118254213Y-106220311D01*
X118260034Y-106107077D01*
X118391768Y-106007885D01*
X118449947Y-105989304D01*
X118662626Y-105982267D01*
X118863052Y-106043556D01*
X118985826Y-106148431D01*
X118998543Y-106196820D01*
X119063062Y-106276155D01*
X119083210Y-106278508D01*
X119151900Y-106207563D01*
X119167876Y-106108435D01*
X119182517Y-106014188D01*
X119252902Y-105970430D01*
X119418719Y-105967383D01*
X119654710Y-105988505D01*
X119943870Y-106024142D01*
X120175123Y-106063045D01*
X120268543Y-106086923D01*
X120461548Y-106118486D01*
X120556818Y-106114644D01*
X120632969Y-106116129D01*
X120676663Y-106165536D01*
X120692603Y-106294375D01*
X120685492Y-106534153D01*
X120665337Y-106841637D01*
X120628719Y-107237799D01*
X120581206Y-107495585D01*
X120515612Y-107645908D01*
X120466713Y-107695846D01*
X120387228Y-107778209D01*
X120411327Y-107802508D01*
X120463178Y-107781633D01*
X122432669Y-107781633D01*
X122478531Y-107941468D01*
X122588546Y-108074885D01*
X122590700Y-108076378D01*
X122745439Y-108128366D01*
X122862984Y-108139878D01*
X123029882Y-108193454D01*
X123093161Y-108268174D01*
X123187926Y-108385570D01*
X123282259Y-108356392D01*
X123316543Y-108225841D01*
X123251593Y-108078923D01*
X123147210Y-108045924D01*
X122964371Y-108027067D01*
X122893210Y-108014174D01*
X122735007Y-107987902D01*
X122681543Y-107982424D01*
X122579143Y-107902371D01*
X122554543Y-107797511D01*
X122523284Y-107679465D01*
X122473574Y-107673222D01*
X122432669Y-107781633D01*
X120463178Y-107781633D01*
X120536973Y-107751923D01*
X120631696Y-107588010D01*
X120691378Y-107336841D01*
X122486382Y-107336841D01*
X122495533Y-107481437D01*
X122522038Y-107494167D01*
X122525412Y-107486619D01*
X122542161Y-107318540D01*
X122528549Y-107232619D01*
X122501599Y-107198092D01*
X122486940Y-107310548D01*
X122486382Y-107336841D01*
X120691378Y-107336841D01*
X120701907Y-107292531D01*
X120718651Y-107149443D01*
X124176857Y-107149443D01*
X124197458Y-107196759D01*
X124282708Y-107287653D01*
X124331719Y-107269007D01*
X124332543Y-107257171D01*
X124272406Y-107185558D01*
X124234794Y-107159423D01*
X124176857Y-107149443D01*
X120718651Y-107149443D01*
X120754014Y-106847245D01*
X120756244Y-106820903D01*
X120818876Y-106070406D01*
X121580876Y-105852104D01*
X121930243Y-105749581D01*
X122226779Y-105658108D01*
X122426078Y-105591581D01*
X122474352Y-105572501D01*
X122632966Y-105566760D01*
X122863777Y-105624522D01*
X123094825Y-105720448D01*
X123254151Y-105829196D01*
X123273417Y-105853891D01*
X123392258Y-105924269D01*
X123512040Y-105942534D01*
X123728868Y-105995632D01*
X123861892Y-106069534D01*
X124047767Y-106168256D01*
X124166689Y-106193841D01*
X124316340Y-106240645D01*
X124532934Y-106359028D01*
X124637340Y-106428790D01*
X124935405Y-106615023D01*
X125267197Y-106786829D01*
X125348543Y-106822658D01*
X125798890Y-107017292D01*
X126149261Y-107182668D01*
X126382262Y-107309820D01*
X126480503Y-107389782D01*
X126479279Y-107405549D01*
X126509419Y-107423991D01*
X126618587Y-107403695D01*
X126735839Y-107380280D01*
X126761268Y-107421469D01*
X126702003Y-107564547D01*
X126664199Y-107642264D01*
X126523684Y-107929508D01*
X126705995Y-107717841D01*
X126821905Y-107592714D01*
X126851313Y-107595998D01*
X126828006Y-107675508D01*
X126789995Y-107793267D01*
X126774138Y-107904559D01*
X126782123Y-108055229D01*
X126815635Y-108291125D01*
X126860701Y-108564508D01*
X126896221Y-108807015D01*
X126908013Y-109016069D01*
X126891141Y-109234235D01*
X126840665Y-109504075D01*
X126751647Y-109868156D01*
X126676132Y-110155378D01*
X126567274Y-110539828D01*
X126466756Y-110849506D01*
X126384762Y-111056075D01*
X126331477Y-111131201D01*
X126326201Y-111129044D01*
X126287620Y-111133781D01*
X126303010Y-111202386D01*
X126288215Y-111335703D01*
X126197036Y-111480542D01*
X126076760Y-111582924D01*
X125974674Y-111588869D01*
X125968913Y-111583766D01*
X125977679Y-111532300D01*
X126011765Y-111527841D01*
X126093422Y-111486369D01*
X126093768Y-111464341D01*
X126096343Y-111437662D01*
X126131301Y-111437662D01*
X126142883Y-111443174D01*
X126220148Y-111383571D01*
X126237543Y-111358508D01*
X126259118Y-111279353D01*
X126247536Y-111273841D01*
X126170271Y-111333444D01*
X126152876Y-111358508D01*
X126131301Y-111437662D01*
X126096343Y-111437662D01*
X126105495Y-111342824D01*
X126144804Y-111200900D01*
X126156687Y-110981918D01*
X126089803Y-110878148D01*
X126013463Y-110829927D01*
X125917764Y-110850190D01*
X125772522Y-110956159D01*
X125547551Y-111165058D01*
X125491578Y-111219490D01*
X125016165Y-111683642D01*
X125147114Y-112304241D01*
X125222523Y-112796721D01*
X125232504Y-113217627D01*
X125183584Y-113550366D01*
X125082293Y-113778342D01*
X124935157Y-113884963D01*
X124748706Y-113853634D01*
X124586543Y-113729174D01*
X124464386Y-113626654D01*
X124419383Y-113652833D01*
X124417210Y-113685228D01*
X124344212Y-113791554D01*
X124184376Y-113859604D01*
X123963089Y-113925572D01*
X123824543Y-113990642D01*
X123662184Y-114094653D01*
X123468583Y-114217757D01*
X123319717Y-114375327D01*
X123160031Y-114638707D01*
X123017472Y-114948870D01*
X122919985Y-115246789D01*
X122893210Y-115433076D01*
X122842455Y-115565871D01*
X122713840Y-115764998D01*
X122634009Y-115867714D01*
X122374809Y-116182169D01*
X122577499Y-116458505D01*
X122798724Y-116848058D01*
X122909260Y-117241295D01*
X122906405Y-117602579D01*
X122787462Y-117896272D01*
X122694108Y-117997941D01*
X122571490Y-118150583D01*
X122480303Y-118344569D01*
X122443695Y-118516901D01*
X122473069Y-118599481D01*
X122552079Y-118712339D01*
X122554543Y-118734501D01*
X122504261Y-118784081D01*
X122482349Y-118774550D01*
X122367467Y-118785357D01*
X122249516Y-118853161D01*
X122147732Y-118945649D01*
X122161570Y-119022538D01*
X122299278Y-119140991D01*
X122454758Y-119244413D01*
X122544434Y-119270420D01*
X122546407Y-119268866D01*
X122633935Y-119277433D01*
X122748770Y-119387877D01*
X122849119Y-119547484D01*
X122893189Y-119703537D01*
X122893210Y-119706300D01*
X122901501Y-119827462D01*
X122947347Y-119911873D01*
X123062209Y-119976583D01*
X123277546Y-120038644D01*
X123624819Y-120115106D01*
X123661893Y-120122913D01*
X124156993Y-120257715D01*
X124513733Y-120436217D01*
X124761877Y-120681930D01*
X124931191Y-121018363D01*
X124977334Y-121161893D01*
X125062678Y-121427829D01*
X125140607Y-121620970D01*
X125184078Y-121688911D01*
X125227853Y-121791802D01*
X125265034Y-122006038D01*
X125278690Y-122154578D01*
X125288374Y-122408141D01*
X125253147Y-122554063D01*
X125140675Y-122653566D01*
X124967543Y-122743754D01*
X124688402Y-122835213D01*
X124287896Y-122907333D01*
X123813269Y-122956453D01*
X123311762Y-122978910D01*
X122830616Y-122971044D01*
X122469876Y-122937341D01*
X122192230Y-122884154D01*
X121869528Y-122802903D01*
X121542721Y-122706621D01*
X121252758Y-122608340D01*
X121040589Y-122521094D01*
X120947165Y-122457913D01*
X120945876Y-122452326D01*
X120869470Y-122423525D01*
X120673221Y-122404102D01*
X120501376Y-122399283D01*
X120170101Y-122376314D01*
X119849580Y-122320839D01*
X119739376Y-122289907D01*
X119546828Y-122214262D01*
X119453834Y-122120610D01*
X119424241Y-121951214D01*
X119421876Y-121782875D01*
X119456924Y-121455821D01*
X119554978Y-121247066D01*
X119692810Y-121179841D01*
X119742448Y-121243430D01*
X119739376Y-121278681D01*
X119797823Y-121362574D01*
X119969103Y-121443596D01*
X120014543Y-121457038D01*
X120241925Y-121522855D01*
X120563842Y-121621884D01*
X120914194Y-121733753D01*
X120945876Y-121744086D01*
X121410681Y-121866889D01*
X121914068Y-121954721D01*
X122215876Y-121983227D01*
X122509952Y-121995720D01*
X122643977Y-121994859D01*
X122632069Y-121984174D01*
X122893210Y-121984174D01*
X122935543Y-122026508D01*
X122977876Y-121984174D01*
X122935543Y-121941841D01*
X122893210Y-121984174D01*
X122632069Y-121984174D01*
X122626796Y-121979442D01*
X122469876Y-121948722D01*
X122282912Y-121907624D01*
X122222940Y-121875093D01*
X122258210Y-121863940D01*
X122427543Y-121845273D01*
X122258210Y-121772508D01*
X122163967Y-121714885D01*
X122187218Y-121693792D01*
X122262855Y-121624929D01*
X122261508Y-121582008D01*
X122183240Y-121258024D01*
X122113063Y-121055974D01*
X122025451Y-120931827D01*
X121894881Y-120841552D01*
X121805477Y-120795342D01*
X121596435Y-120701775D01*
X121453590Y-120656912D01*
X121432710Y-120656586D01*
X121371964Y-120607590D01*
X121369210Y-120582177D01*
X121317340Y-120531611D01*
X121284543Y-120544841D01*
X121206348Y-120542151D01*
X121199876Y-120514560D01*
X121269986Y-120427879D01*
X121432710Y-120339840D01*
X121665543Y-120247729D01*
X121411543Y-120292096D01*
X121204426Y-120319755D01*
X120890920Y-120352014D01*
X120533616Y-120382526D01*
X120480210Y-120386552D01*
X120140024Y-120408440D01*
X119922996Y-120406565D01*
X119783608Y-120372112D01*
X119676345Y-120296269D01*
X119597712Y-120215675D01*
X119498481Y-120100963D01*
X119444075Y-119992827D01*
X119429608Y-119846964D01*
X119450197Y-119619073D01*
X119496311Y-119296108D01*
X119563461Y-118863721D01*
X119617115Y-118575973D01*
X119663966Y-118409377D01*
X119710705Y-118340448D01*
X119764023Y-118345699D01*
X119766639Y-118347275D01*
X119836077Y-118341530D01*
X119829280Y-118209550D01*
X119788071Y-118081456D01*
X119737126Y-117981769D01*
X119688033Y-118033604D01*
X119659898Y-118095698D01*
X119613855Y-118181930D01*
X119609264Y-118117260D01*
X119619830Y-118030187D01*
X119615668Y-117870597D01*
X119564998Y-117818521D01*
X119481725Y-117761143D01*
X119428643Y-117636924D01*
X119425312Y-117623841D01*
X119506543Y-117623841D01*
X119537521Y-117693531D01*
X119562987Y-117680285D01*
X119573120Y-117579806D01*
X119562987Y-117567396D01*
X119512653Y-117579019D01*
X119506543Y-117623841D01*
X119425312Y-117623841D01*
X119378085Y-117438340D01*
X119216753Y-117616611D01*
X119129215Y-117786411D01*
X119039697Y-118081927D01*
X118956681Y-118459866D01*
X118888649Y-118876934D01*
X118844082Y-119289838D01*
X118831038Y-119585416D01*
X118801955Y-119928553D01*
X118717788Y-120117993D01*
X118608484Y-120163841D01*
X118546620Y-120239261D01*
X118505790Y-120430849D01*
X118487282Y-120686591D01*
X118492385Y-120954478D01*
X118522385Y-121182499D01*
X118578572Y-121318640D01*
X118579857Y-121319955D01*
X118642741Y-121453630D01*
X118696503Y-121685769D01*
X118711624Y-121795336D01*
X118728623Y-122036438D01*
X118698275Y-122162869D01*
X118602741Y-122226702D01*
X118558810Y-122241396D01*
X118381742Y-122307646D01*
X118113203Y-122421052D01*
X117842358Y-122542867D01*
X117223133Y-122812407D01*
X116689388Y-122999254D01*
X116186679Y-123116085D01*
X115660562Y-123175578D01*
X115061543Y-123190436D01*
X114651242Y-123185734D01*
X114293576Y-123176424D01*
X114027987Y-123163875D01*
X113896340Y-123150066D01*
X113796730Y-123082291D01*
X113797646Y-123070730D01*
X114031432Y-123070730D01*
X114043054Y-123121064D01*
X114087876Y-123127174D01*
X114157566Y-123096196D01*
X114144321Y-123070730D01*
X114043841Y-123060597D01*
X114031432Y-123070730D01*
X113797646Y-123070730D01*
X113801109Y-123027029D01*
X113787333Y-122974899D01*
X113691622Y-122991580D01*
X113519006Y-122977000D01*
X113341390Y-122868835D01*
X113214119Y-122714863D01*
X113192539Y-122562858D01*
X113193136Y-122561270D01*
X113237611Y-122370244D01*
X113241210Y-122315087D01*
X113300715Y-122171747D01*
X113407993Y-122051379D01*
X113521010Y-121887347D01*
X113544329Y-121828621D01*
X113665074Y-121828621D01*
X113670371Y-121994684D01*
X113769832Y-122070325D01*
X113986540Y-122091526D01*
X114087876Y-122092709D01*
X114207902Y-122087284D01*
X114182979Y-122060335D01*
X114024376Y-122005616D01*
X113839292Y-121925988D01*
X113750547Y-121847992D01*
X113749210Y-121839929D01*
X113802234Y-121801713D01*
X113837270Y-121816938D01*
X113889178Y-121797280D01*
X113870012Y-121650958D01*
X113863725Y-121541888D01*
X113961737Y-121541888D01*
X113982666Y-121741751D01*
X113992404Y-121836008D01*
X114050731Y-121933796D01*
X114137813Y-121914015D01*
X114172543Y-121814841D01*
X114160377Y-121680748D01*
X114151376Y-121654396D01*
X114185427Y-121575136D01*
X114284559Y-121450398D01*
X114386603Y-121323886D01*
X114365260Y-121262487D01*
X114257181Y-121222174D01*
X114511210Y-121222174D01*
X114553543Y-121264508D01*
X114595876Y-121222174D01*
X114553543Y-121179841D01*
X114511210Y-121222174D01*
X114257181Y-121222174D01*
X114257012Y-121222111D01*
X114093557Y-121195971D01*
X114025051Y-121214444D01*
X114051421Y-121255390D01*
X114137265Y-121265804D01*
X114242546Y-121280420D01*
X114190492Y-121335939D01*
X114176585Y-121344884D01*
X114042183Y-121394918D01*
X113997752Y-121388134D01*
X113961940Y-121430106D01*
X113961737Y-121541888D01*
X113863725Y-121541888D01*
X113859878Y-121475143D01*
X113892739Y-121274941D01*
X113952356Y-121098446D01*
X113982907Y-121052841D01*
X114341876Y-121052841D01*
X114384210Y-121095174D01*
X114426543Y-121052841D01*
X114384210Y-121010508D01*
X114341876Y-121052841D01*
X113982907Y-121052841D01*
X114022492Y-120993751D01*
X114086822Y-121008801D01*
X114171767Y-121043577D01*
X114255492Y-120970244D01*
X114320893Y-120875390D01*
X114259787Y-120878485D01*
X114226852Y-120890628D01*
X114108528Y-120888797D01*
X114087876Y-120831394D01*
X114063379Y-120769932D01*
X114000462Y-120837556D01*
X113914988Y-121002954D01*
X113822817Y-121234814D01*
X113739812Y-121501825D01*
X113730861Y-121536152D01*
X113665074Y-121828621D01*
X113544329Y-121828621D01*
X113624672Y-121626289D01*
X113668085Y-121459110D01*
X113839482Y-120985201D01*
X114053280Y-120724541D01*
X114172543Y-120724541D01*
X114213728Y-120749884D01*
X114326281Y-120641121D01*
X114352676Y-120608341D01*
X114425900Y-120508054D01*
X114382055Y-120529078D01*
X114320710Y-120576374D01*
X114203450Y-120680819D01*
X114172543Y-120724541D01*
X114053280Y-120724541D01*
X114135833Y-120623894D01*
X114561565Y-120370542D01*
X114774172Y-120296899D01*
X115056978Y-120214685D01*
X117977359Y-120214685D01*
X118094431Y-120228046D01*
X118151876Y-120228865D01*
X118305912Y-120220037D01*
X118324065Y-120198060D01*
X118300043Y-120190145D01*
X118085309Y-120176977D01*
X118003710Y-120190145D01*
X117977359Y-120214685D01*
X115056978Y-120214685D01*
X115243392Y-120160493D01*
X115280459Y-120035849D01*
X115431691Y-120035849D01*
X115551001Y-120060499D01*
X115825595Y-120067391D01*
X115908210Y-120066702D01*
X116500876Y-120059379D01*
X116049406Y-119984303D01*
X115715031Y-119951099D01*
X115490815Y-119976340D01*
X115456740Y-119991626D01*
X115431691Y-120035849D01*
X115280459Y-120035849D01*
X115475796Y-119379000D01*
X115614089Y-118847073D01*
X115683729Y-118388216D01*
X115697303Y-117961998D01*
X115702399Y-117593646D01*
X115726258Y-117241523D01*
X115763222Y-116984612D01*
X115766339Y-116940023D01*
X119425398Y-116940023D01*
X119426126Y-117149372D01*
X119448221Y-117326854D01*
X119478321Y-117398063D01*
X119539742Y-117453652D01*
X119541821Y-117454508D01*
X119546031Y-117378747D01*
X119548554Y-117187089D01*
X119548876Y-117073508D01*
X119536258Y-116846237D01*
X119504333Y-116709951D01*
X119485376Y-116692508D01*
X119445370Y-116765503D01*
X119425398Y-116940023D01*
X115766339Y-116940023D01*
X115791403Y-116581494D01*
X115727242Y-116265454D01*
X115689937Y-116115671D01*
X120874258Y-116115671D01*
X120908898Y-116149417D01*
X120988210Y-116184508D01*
X121172242Y-116250555D01*
X121262786Y-116217675D01*
X121318184Y-116061909D01*
X121321818Y-116047517D01*
X121349572Y-115864154D01*
X121329877Y-115784538D01*
X121278947Y-115834454D01*
X121244235Y-115924127D01*
X121118469Y-116074548D01*
X121003671Y-116105792D01*
X120874258Y-116115671D01*
X115689937Y-116115671D01*
X115656981Y-115983353D01*
X115616744Y-115730836D01*
X115616070Y-115718841D01*
X120945876Y-115718841D01*
X120988210Y-115761174D01*
X121030543Y-115718841D01*
X120988210Y-115676508D01*
X120945876Y-115718841D01*
X115616070Y-115718841D01*
X115613161Y-115667037D01*
X115595187Y-115586844D01*
X121284543Y-115586844D01*
X121346003Y-115673062D01*
X121369210Y-115676508D01*
X121451675Y-115647621D01*
X121453876Y-115639171D01*
X121394547Y-115566885D01*
X121369210Y-115549508D01*
X122723876Y-115549508D01*
X122766210Y-115591841D01*
X122808543Y-115549508D01*
X122766210Y-115507174D01*
X122723876Y-115549508D01*
X121369210Y-115549508D01*
X121291191Y-115556220D01*
X121284543Y-115586844D01*
X115595187Y-115586844D01*
X115570893Y-115478454D01*
X115500288Y-115295508D01*
X120945876Y-115295508D01*
X120988210Y-115337841D01*
X121020226Y-115305825D01*
X121228134Y-115305825D01*
X121242210Y-115337841D01*
X121345049Y-115422488D01*
X121429129Y-115357412D01*
X121464682Y-115189674D01*
X121473100Y-115035375D01*
X121485858Y-114879721D01*
X121507738Y-114676623D01*
X121543521Y-114379995D01*
X121574480Y-114131341D01*
X121603367Y-113856885D01*
X121597079Y-113710571D01*
X121548137Y-113653488D01*
X121481135Y-113645804D01*
X121389643Y-113668431D01*
X121424704Y-113709353D01*
X121458806Y-113813112D01*
X121466721Y-114031842D01*
X121453138Y-114319808D01*
X121422749Y-114631274D01*
X121380243Y-114920504D01*
X121330311Y-115141762D01*
X121277643Y-115249313D01*
X121266379Y-115253174D01*
X121228134Y-115305825D01*
X121020226Y-115305825D01*
X121030543Y-115295508D01*
X120988210Y-115253174D01*
X120945876Y-115295508D01*
X115500288Y-115295508D01*
X115460989Y-115193680D01*
X115429811Y-115126174D01*
X120776543Y-115126174D01*
X120818876Y-115168508D01*
X120861210Y-115126174D01*
X120818876Y-115083841D01*
X120776543Y-115126174D01*
X115429811Y-115126174D01*
X115390708Y-115041508D01*
X121030543Y-115041508D01*
X121072876Y-115083841D01*
X121115210Y-115041508D01*
X121072876Y-114999174D01*
X121030543Y-115041508D01*
X115390708Y-115041508D01*
X115306625Y-114859452D01*
X115265442Y-114780452D01*
X121037227Y-114780452D01*
X121052794Y-114890266D01*
X121081696Y-114891577D01*
X121101907Y-114778260D01*
X121088380Y-114729299D01*
X121050785Y-114697229D01*
X121037227Y-114780452D01*
X115265442Y-114780452D01*
X115224984Y-114702841D01*
X120776543Y-114702841D01*
X120818876Y-114745174D01*
X120861210Y-114702841D01*
X120818876Y-114660508D01*
X120776543Y-114702841D01*
X115224984Y-114702841D01*
X115130975Y-114522504D01*
X115087280Y-114448841D01*
X120861210Y-114448841D01*
X120903543Y-114491174D01*
X120945876Y-114448841D01*
X121115210Y-114448841D01*
X121157543Y-114491174D01*
X121199876Y-114448841D01*
X121157543Y-114406508D01*
X121115210Y-114448841D01*
X120945876Y-114448841D01*
X120903543Y-114406508D01*
X120861210Y-114448841D01*
X115087280Y-114448841D01*
X114957213Y-114229569D01*
X114808514Y-114027384D01*
X114790930Y-114008895D01*
X114696763Y-113829701D01*
X114621308Y-113527404D01*
X114567724Y-113147519D01*
X114539165Y-112735562D01*
X114539064Y-112628508D01*
X114765210Y-112628508D01*
X114796188Y-112698198D01*
X114821654Y-112684952D01*
X114831787Y-112584472D01*
X114821654Y-112572063D01*
X114771320Y-112583685D01*
X114765210Y-112628508D01*
X114539064Y-112628508D01*
X114538999Y-112559289D01*
X114938006Y-112559289D01*
X114975818Y-112797983D01*
X115066210Y-113194509D01*
X115072766Y-113221174D01*
X115146798Y-113531093D01*
X115205470Y-113794369D01*
X115233792Y-113940841D01*
X115260004Y-114097917D01*
X115293330Y-114148377D01*
X115357876Y-114152508D01*
X115426001Y-114081382D01*
X115442543Y-113978177D01*
X115475136Y-113861107D01*
X115527210Y-113856174D01*
X115581010Y-113816012D01*
X115600758Y-113686841D01*
X119252543Y-113686841D01*
X119294876Y-113729174D01*
X119337210Y-113686841D01*
X119294876Y-113644508D01*
X119252543Y-113686841D01*
X115600758Y-113686841D01*
X115609168Y-113631834D01*
X115611876Y-113522504D01*
X115611556Y-113517508D01*
X116373876Y-113517508D01*
X116391991Y-113630470D01*
X116407151Y-113644508D01*
X116434727Y-113611067D01*
X120606348Y-113611067D01*
X120628376Y-113618204D01*
X120743430Y-113719004D01*
X120776543Y-113932938D01*
X120803772Y-114185377D01*
X120878357Y-114312554D01*
X120912392Y-114321841D01*
X120932248Y-114251483D01*
X120936068Y-114173674D01*
X120943490Y-114103119D01*
X121121894Y-114103119D01*
X121137460Y-114212933D01*
X121166362Y-114214244D01*
X121186574Y-114100927D01*
X121173046Y-114051966D01*
X121135452Y-114019896D01*
X121121894Y-114103119D01*
X120943490Y-114103119D01*
X120956442Y-113980005D01*
X120993533Y-113792674D01*
X121016863Y-113644508D01*
X121199876Y-113644508D01*
X121230854Y-113714198D01*
X121256321Y-113700952D01*
X121266454Y-113600472D01*
X121256321Y-113588063D01*
X121205986Y-113599685D01*
X121199876Y-113644508D01*
X121016863Y-113644508D01*
X121018245Y-113635734D01*
X120958228Y-113574830D01*
X120771994Y-113569433D01*
X120765246Y-113569662D01*
X120616888Y-113585100D01*
X120606348Y-113611067D01*
X116434727Y-113611067D01*
X116461745Y-113578302D01*
X116489161Y-113517508D01*
X116489925Y-113470177D01*
X116627876Y-113470177D01*
X116689337Y-113556395D01*
X116712543Y-113559841D01*
X116795008Y-113530954D01*
X116797210Y-113522504D01*
X116737881Y-113450218D01*
X116712543Y-113432841D01*
X116634524Y-113439554D01*
X116627876Y-113470177D01*
X116489925Y-113470177D01*
X116490920Y-113408486D01*
X116455886Y-113390508D01*
X116383115Y-113459124D01*
X116373876Y-113517508D01*
X115611556Y-113517508D01*
X115603383Y-113389964D01*
X118582550Y-113389964D01*
X118659876Y-113467432D01*
X118784747Y-113547535D01*
X118803119Y-113513518D01*
X118769831Y-113418952D01*
X118757901Y-113323385D01*
X118814821Y-113339282D01*
X118903612Y-113365878D01*
X118891747Y-113295537D01*
X118792924Y-113172793D01*
X118747075Y-113136508D01*
X119943245Y-113136508D01*
X119956550Y-113256703D01*
X119985949Y-113242341D01*
X119997132Y-113068999D01*
X119985949Y-113030674D01*
X119955047Y-113020038D01*
X119943245Y-113136508D01*
X118747075Y-113136508D01*
X118665292Y-113071784D01*
X118599391Y-113061799D01*
X118631717Y-113143410D01*
X118653043Y-113170607D01*
X118706555Y-113280286D01*
X118642243Y-113333495D01*
X118582550Y-113389964D01*
X115603383Y-113389964D01*
X115595669Y-113269574D01*
X115540427Y-113153269D01*
X115484876Y-113136508D01*
X115404240Y-113062415D01*
X115367294Y-112837368D01*
X115373860Y-112457217D01*
X115423756Y-111917809D01*
X115429749Y-111866508D01*
X115470480Y-111596899D01*
X115522647Y-111458963D01*
X115604785Y-111415186D01*
X115652434Y-111415832D01*
X115751654Y-111414288D01*
X115724923Y-111363699D01*
X115610101Y-111272206D01*
X115402105Y-111142949D01*
X115321085Y-111109711D01*
X116524011Y-111109711D01*
X116525190Y-111536357D01*
X116530345Y-111973611D01*
X116539207Y-112389743D01*
X116551512Y-112753025D01*
X116566993Y-113031729D01*
X116585382Y-113194126D01*
X116590148Y-113212126D01*
X116639835Y-113300870D01*
X116678493Y-113246752D01*
X116707697Y-113041983D01*
X116727007Y-112713174D01*
X118852270Y-112713174D01*
X118858875Y-112896295D01*
X118875761Y-112946565D01*
X118888962Y-112903674D01*
X118902969Y-112656957D01*
X118888962Y-112522674D01*
X118868024Y-112482552D01*
X118854739Y-112588926D01*
X118852270Y-112713174D01*
X116727007Y-112713174D01*
X116729027Y-112678772D01*
X116735489Y-112494535D01*
X116738083Y-112409785D01*
X120021227Y-112409785D01*
X120036794Y-112519599D01*
X120065696Y-112520910D01*
X120085907Y-112407593D01*
X120072380Y-112358633D01*
X120034785Y-112326562D01*
X120021227Y-112409785D01*
X116738083Y-112409785D01*
X116743051Y-112247508D01*
X118829210Y-112247508D01*
X118871543Y-112289841D01*
X118913876Y-112247508D01*
X118871543Y-112205174D01*
X118829210Y-112247508D01*
X116743051Y-112247508D01*
X116756442Y-111810063D01*
X119196098Y-111810063D01*
X119207721Y-111860397D01*
X119252543Y-111866508D01*
X119322233Y-111835529D01*
X119308987Y-111810063D01*
X119208508Y-111799930D01*
X119196098Y-111810063D01*
X116756442Y-111810063D01*
X116757926Y-111761599D01*
X118273264Y-111761599D01*
X118356487Y-111775157D01*
X118466301Y-111759590D01*
X118467612Y-111730688D01*
X118354295Y-111710477D01*
X118305335Y-111724004D01*
X118273264Y-111761599D01*
X116757926Y-111761599D01*
X116758602Y-111739508D01*
X117026721Y-111754430D01*
X117238459Y-111735931D01*
X117373430Y-111670536D01*
X117374053Y-111669764D01*
X117413099Y-111546245D01*
X117421906Y-111485508D01*
X118829210Y-111485508D01*
X118871543Y-111527841D01*
X118913876Y-111485508D01*
X119083210Y-111485508D01*
X119125543Y-111527841D01*
X119152598Y-111500786D01*
X119541273Y-111500786D01*
X119628727Y-111607181D01*
X119636167Y-111615407D01*
X119728043Y-111739170D01*
X119694937Y-111785487D01*
X119667832Y-111788525D01*
X119649835Y-111816240D01*
X119766589Y-111874616D01*
X119781710Y-111880247D01*
X119948947Y-111978027D01*
X120014543Y-112085230D01*
X120064642Y-112193266D01*
X120102921Y-112205174D01*
X120165667Y-112137473D01*
X120166421Y-112057008D01*
X120181592Y-112003044D01*
X120212980Y-112003044D01*
X120226210Y-112035841D01*
X120302292Y-112116611D01*
X120315873Y-112120508D01*
X120352239Y-112055002D01*
X120353210Y-112035841D01*
X120288122Y-111954428D01*
X120263546Y-111951174D01*
X120212980Y-112003044D01*
X120181592Y-112003044D01*
X120201737Y-111931388D01*
X120268543Y-111908841D01*
X120376393Y-111981212D01*
X120423830Y-112108738D01*
X120417574Y-112247355D01*
X120361299Y-112252507D01*
X120306705Y-112258472D01*
X120326234Y-112341666D01*
X120341680Y-112440401D01*
X120276680Y-112421870D01*
X120219521Y-112407129D01*
X120265573Y-112507441D01*
X120283459Y-112536627D01*
X120361644Y-112647168D01*
X120406733Y-112629061D01*
X120450377Y-112464499D01*
X120455803Y-112439654D01*
X120472389Y-112269791D01*
X122604059Y-112269791D01*
X122608845Y-112591760D01*
X122630288Y-112955144D01*
X122665093Y-113321334D01*
X122709965Y-113651722D01*
X122761609Y-113907700D01*
X122816730Y-114050661D01*
X122842264Y-114067841D01*
X122848289Y-113989642D01*
X122846925Y-113780551D01*
X122838653Y-113478825D01*
X122832965Y-113327008D01*
X122805042Y-112784819D01*
X122770512Y-112359280D01*
X122749915Y-112205174D01*
X123147210Y-112205174D01*
X123178188Y-112274864D01*
X123203654Y-112261619D01*
X123213787Y-112161139D01*
X123203654Y-112148730D01*
X123153320Y-112160352D01*
X123147210Y-112205174D01*
X122749915Y-112205174D01*
X122731127Y-112064600D01*
X122688639Y-111914986D01*
X122657637Y-111904524D01*
X122619225Y-112027843D01*
X122604059Y-112269791D01*
X120472389Y-112269791D01*
X120484324Y-112147561D01*
X120474311Y-111993508D01*
X120776543Y-111993508D01*
X120818876Y-112035841D01*
X120861210Y-111993508D01*
X120818876Y-111951174D01*
X120776543Y-111993508D01*
X120474311Y-111993508D01*
X120467372Y-111886739D01*
X120460096Y-111860995D01*
X122321301Y-111860995D01*
X122332883Y-111866508D01*
X122410148Y-111806904D01*
X122427543Y-111781841D01*
X123062543Y-111781841D01*
X123093521Y-111851531D01*
X123118987Y-111838285D01*
X123129120Y-111737806D01*
X123118987Y-111725396D01*
X123068653Y-111737019D01*
X123062543Y-111781841D01*
X122427543Y-111781841D01*
X122449118Y-111702687D01*
X122437536Y-111697174D01*
X122360271Y-111756778D01*
X122342876Y-111781841D01*
X122321301Y-111860995D01*
X120460096Y-111860995D01*
X120409175Y-111680830D01*
X120402983Y-111670705D01*
X121063968Y-111670705D01*
X121148484Y-111697174D01*
X121254895Y-111631546D01*
X121257996Y-111612620D01*
X121663849Y-111612620D01*
X121676752Y-111757795D01*
X121697435Y-111781841D01*
X121742733Y-111704974D01*
X121778375Y-111556063D01*
X121990098Y-111556063D01*
X122001721Y-111606397D01*
X122046543Y-111612508D01*
X122056425Y-111608115D01*
X123249466Y-111608115D01*
X123277586Y-111781552D01*
X123356054Y-112080996D01*
X123436508Y-112328147D01*
X123504512Y-112485136D01*
X123539892Y-112518047D01*
X123540109Y-112420261D01*
X123495500Y-112212120D01*
X123435076Y-112001974D01*
X123334270Y-111712268D01*
X123270380Y-111583001D01*
X123249466Y-111608115D01*
X122056425Y-111608115D01*
X122116233Y-111581529D01*
X122102987Y-111556063D01*
X122002508Y-111545930D01*
X121990098Y-111556063D01*
X121778375Y-111556063D01*
X121790729Y-111504451D01*
X121793488Y-111485508D01*
X122639210Y-111485508D01*
X122681543Y-111527841D01*
X122723876Y-111485508D01*
X122681543Y-111443174D01*
X122639210Y-111485508D01*
X121793488Y-111485508D01*
X121805818Y-111400841D01*
X123147210Y-111400841D01*
X123189543Y-111443174D01*
X123231876Y-111400841D01*
X123189543Y-111358508D01*
X123147210Y-111400841D01*
X121805818Y-111400841D01*
X121827395Y-111252674D01*
X121848039Y-111035880D01*
X122047254Y-111035880D01*
X122064385Y-111224606D01*
X122107946Y-111307022D01*
X122172749Y-111278806D01*
X122199038Y-111231179D01*
X122352485Y-111231179D01*
X122425308Y-111324889D01*
X122551228Y-111379950D01*
X122638764Y-111371567D01*
X122714141Y-111326071D01*
X122628180Y-111293377D01*
X122618043Y-111291301D01*
X122584196Y-111273841D01*
X122977876Y-111273841D01*
X123008854Y-111343531D01*
X123034321Y-111330285D01*
X123044454Y-111229806D01*
X123034321Y-111217396D01*
X122983986Y-111229019D01*
X122977876Y-111273841D01*
X122584196Y-111273841D01*
X122492198Y-111226384D01*
X122469876Y-111177969D01*
X122417752Y-111132961D01*
X122386052Y-111146320D01*
X122352485Y-111231179D01*
X122199038Y-111231179D01*
X122254420Y-111130844D01*
X122270838Y-111088300D01*
X122337365Y-110934729D01*
X122375791Y-110903267D01*
X122378768Y-110919004D01*
X122436936Y-110984995D01*
X122482702Y-110969580D01*
X122511141Y-110889210D01*
X122477086Y-110850508D01*
X122808543Y-110850508D01*
X122839521Y-110920198D01*
X122864987Y-110906952D01*
X122875120Y-110806472D01*
X122864987Y-110794063D01*
X122814653Y-110805685D01*
X122808543Y-110850508D01*
X122477086Y-110850508D01*
X122431137Y-110798288D01*
X122296181Y-110735777D01*
X122165313Y-110738381D01*
X122083694Y-110846077D01*
X122047254Y-111035880D01*
X121848039Y-111035880D01*
X121877583Y-110725634D01*
X121885068Y-110585305D01*
X123206088Y-110585305D01*
X123236095Y-110636077D01*
X123238324Y-110634856D01*
X123314278Y-110668501D01*
X123358485Y-110745160D01*
X123409704Y-110832123D01*
X123460461Y-110776509D01*
X123496520Y-110689117D01*
X123561579Y-110550503D01*
X123623544Y-110559130D01*
X123686558Y-110638136D01*
X123774821Y-110738966D01*
X123822147Y-110691017D01*
X123847444Y-110602743D01*
X123956998Y-110433867D01*
X124071307Y-110368932D01*
X124190876Y-110304160D01*
X124197315Y-110262838D01*
X124332543Y-110262838D01*
X124359751Y-110339766D01*
X124422186Y-110272655D01*
X124449515Y-110211110D01*
X124455432Y-110123711D01*
X124416240Y-110131440D01*
X124335552Y-110239841D01*
X124332543Y-110262838D01*
X124197315Y-110262838D01*
X124199594Y-110248215D01*
X124078432Y-110185103D01*
X123891346Y-110179805D01*
X123730414Y-110229231D01*
X123692983Y-110265218D01*
X123608452Y-110311473D01*
X123544053Y-110265218D01*
X123387176Y-110176448D01*
X123269994Y-110247636D01*
X123214472Y-110422703D01*
X123206088Y-110585305D01*
X121885068Y-110585305D01*
X121900002Y-110305310D01*
X121894562Y-110008997D01*
X121881293Y-109947396D01*
X122667432Y-109947396D01*
X122679054Y-109997731D01*
X122723876Y-110003841D01*
X122793566Y-109972863D01*
X122780321Y-109947396D01*
X122679841Y-109937263D01*
X122667432Y-109947396D01*
X121881293Y-109947396D01*
X121861172Y-109853987D01*
X121834876Y-109834852D01*
X121790892Y-109912972D01*
X121759073Y-110119543D01*
X121745822Y-110406446D01*
X121734294Y-110778791D01*
X121709005Y-111151892D01*
X121683941Y-111379674D01*
X121663849Y-111612620D01*
X121257996Y-111612620D01*
X121284543Y-111450622D01*
X121302098Y-111235888D01*
X121347696Y-110918204D01*
X121410733Y-110555725D01*
X121480606Y-110206605D01*
X121546711Y-109928997D01*
X121583070Y-109813341D01*
X121583231Y-109810888D01*
X122304763Y-109810888D01*
X122353377Y-109897207D01*
X122448710Y-109912490D01*
X122529265Y-109890947D01*
X122490515Y-109862925D01*
X122440258Y-109792174D01*
X123909210Y-109792174D01*
X123951543Y-109834508D01*
X123993876Y-109792174D01*
X123951543Y-109749841D01*
X123909210Y-109792174D01*
X122440258Y-109792174D01*
X122426438Y-109772719D01*
X122440097Y-109729528D01*
X122442793Y-109679379D01*
X122398291Y-109699423D01*
X122304763Y-109810888D01*
X121583231Y-109810888D01*
X121591239Y-109688817D01*
X121542604Y-109665174D01*
X121488044Y-109718312D01*
X121505102Y-109764229D01*
X121509181Y-109828067D01*
X121428143Y-109810260D01*
X121288066Y-109800514D01*
X121244393Y-109830974D01*
X121256659Y-109922311D01*
X121276408Y-109933109D01*
X121296044Y-110021568D01*
X121289617Y-110232260D01*
X121262682Y-110521065D01*
X121220797Y-110843859D01*
X121169518Y-111156522D01*
X121114401Y-111414933D01*
X121072910Y-111549008D01*
X121063968Y-111670705D01*
X120402983Y-111670705D01*
X120334651Y-111558965D01*
X120330530Y-111556157D01*
X120282572Y-111556533D01*
X120299176Y-111593575D01*
X120304321Y-111707800D01*
X120279550Y-111732705D01*
X120200778Y-111701414D01*
X120145470Y-111590389D01*
X120088593Y-111482095D01*
X120046536Y-111499433D01*
X119948047Y-111556830D01*
X119745403Y-111523499D01*
X119572971Y-111478945D01*
X119541273Y-111500786D01*
X119152598Y-111500786D01*
X119167876Y-111485508D01*
X119125543Y-111443174D01*
X119083210Y-111485508D01*
X118913876Y-111485508D01*
X118871543Y-111443174D01*
X118829210Y-111485508D01*
X117421906Y-111485508D01*
X117448696Y-111300754D01*
X117479410Y-110968912D01*
X117503809Y-110586340D01*
X117520462Y-110188660D01*
X117527936Y-109811493D01*
X117524799Y-109490459D01*
X117509619Y-109261181D01*
X117480963Y-109159278D01*
X117475076Y-109157174D01*
X117419369Y-109208718D01*
X117432210Y-109241841D01*
X117413016Y-109314324D01*
X117352540Y-109326508D01*
X117236697Y-109282303D01*
X117220543Y-109241841D01*
X117160742Y-109164819D01*
X117029603Y-109164963D01*
X116899525Y-109229916D01*
X116848455Y-109305341D01*
X116821504Y-109467690D01*
X116798404Y-109733441D01*
X116787229Y-109963084D01*
X116768851Y-110256322D01*
X116738399Y-110495322D01*
X116702742Y-110656230D01*
X116668751Y-110715194D01*
X116643296Y-110648361D01*
X116633827Y-110495671D01*
X116614320Y-110281336D01*
X116573840Y-110153041D01*
X116564376Y-110143771D01*
X116546990Y-110210702D01*
X116534645Y-110415155D01*
X116527074Y-110725401D01*
X116524011Y-111109711D01*
X115321085Y-111109711D01*
X115230876Y-111072703D01*
X115120296Y-111051533D01*
X115145669Y-111087979D01*
X115243045Y-111157182D01*
X115363061Y-111267658D01*
X115373041Y-111400545D01*
X115330317Y-111532194D01*
X115236472Y-111706117D01*
X115139802Y-111781738D01*
X115136910Y-111781841D01*
X115066959Y-111854704D01*
X115014560Y-112026331D01*
X114990776Y-112226275D01*
X115006668Y-112384092D01*
X115035611Y-112426977D01*
X115100146Y-112539739D01*
X115102580Y-112570004D01*
X115069525Y-112603391D01*
X115019210Y-112543841D01*
X114952546Y-112475539D01*
X114938006Y-112559289D01*
X114538999Y-112559289D01*
X114538865Y-112416841D01*
X114765210Y-112416841D01*
X114807543Y-112459174D01*
X114849876Y-112416841D01*
X114807543Y-112374508D01*
X114765210Y-112416841D01*
X114538865Y-112416841D01*
X114538790Y-112337047D01*
X114554676Y-112162841D01*
X114765210Y-112162841D01*
X114807543Y-112205174D01*
X114849876Y-112162841D01*
X114807543Y-112120508D01*
X114765210Y-112162841D01*
X114554676Y-112162841D01*
X114569755Y-111997488D01*
X114635133Y-111762570D01*
X114724645Y-111550603D01*
X114765021Y-111390715D01*
X114765210Y-111383984D01*
X114821058Y-111246842D01*
X114956468Y-111075026D01*
X114966305Y-111065049D01*
X115054178Y-110961811D01*
X115116200Y-110835675D01*
X115159972Y-110651998D01*
X115193097Y-110376142D01*
X115223180Y-109973466D01*
X115230272Y-109862397D01*
X115232189Y-109831513D01*
X115865876Y-109831513D01*
X115939387Y-109881454D01*
X116115360Y-109924550D01*
X116326953Y-109950745D01*
X116507324Y-109949986D01*
X116564376Y-109936590D01*
X116622183Y-109839984D01*
X116627876Y-109787177D01*
X116577264Y-109677587D01*
X116470210Y-109692646D01*
X116410938Y-109758370D01*
X116292246Y-109811920D01*
X116109608Y-109802820D01*
X115937902Y-109791091D01*
X115865880Y-109831100D01*
X115865876Y-109831513D01*
X115232189Y-109831513D01*
X115262806Y-109338248D01*
X115865876Y-109338248D01*
X115938400Y-109393089D01*
X116077543Y-109411174D01*
X116236853Y-109400027D01*
X116289210Y-109378711D01*
X116257244Y-109361785D01*
X116465227Y-109361785D01*
X116480794Y-109471599D01*
X116509696Y-109472910D01*
X116529907Y-109359593D01*
X116516380Y-109310633D01*
X116478785Y-109278562D01*
X116465227Y-109361785D01*
X116257244Y-109361785D01*
X116217300Y-109340635D01*
X116077543Y-109305785D01*
X115920216Y-109299980D01*
X115865876Y-109338248D01*
X115262806Y-109338248D01*
X115266250Y-109282766D01*
X115290939Y-108850454D01*
X115294742Y-108760160D01*
X121744827Y-108760160D01*
X121766620Y-108788328D01*
X121833054Y-108888649D01*
X121824348Y-108942414D01*
X121837349Y-109077075D01*
X121871437Y-109111274D01*
X121938180Y-109229323D01*
X121961876Y-109402060D01*
X121980383Y-109594110D01*
X122018321Y-109693396D01*
X122119825Y-109746787D01*
X122190004Y-109727897D01*
X122182127Y-109679064D01*
X122147627Y-109553347D01*
X122120429Y-109338045D01*
X122117861Y-109303535D01*
X122085382Y-109118475D01*
X122030696Y-109044772D01*
X122016269Y-109048884D01*
X121969971Y-109024471D01*
X121982946Y-108916414D01*
X121984441Y-108878587D01*
X123808078Y-108878587D01*
X123840221Y-108891524D01*
X123952738Y-108766716D01*
X123961767Y-108755008D01*
X124059654Y-108656775D01*
X124133571Y-108697994D01*
X124158500Y-108733821D01*
X124186019Y-108855304D01*
X124096609Y-108918370D01*
X124016014Y-108962166D01*
X124091590Y-108979741D01*
X124142043Y-108981890D01*
X124291200Y-109042466D01*
X124332699Y-109166832D01*
X124247876Y-109284174D01*
X124166200Y-109406739D01*
X124163210Y-109434314D01*
X124198116Y-109472621D01*
X124283760Y-109395451D01*
X124338303Y-109315215D01*
X124695339Y-109315215D01*
X124718189Y-109414793D01*
X124837051Y-109435965D01*
X124952814Y-109421565D01*
X125109963Y-109387357D01*
X125106197Y-109357506D01*
X125052210Y-109343396D01*
X124867935Y-109280450D01*
X124794735Y-109237046D01*
X124716736Y-109236648D01*
X124695339Y-109315215D01*
X124338303Y-109315215D01*
X124391531Y-109236914D01*
X124484435Y-109051341D01*
X124532309Y-108908171D01*
X124840543Y-108908171D01*
X124876962Y-109043015D01*
X124925210Y-109072508D01*
X124988316Y-108999902D01*
X125009876Y-108855844D01*
X124983000Y-108711793D01*
X124925210Y-108691508D01*
X124854084Y-108810927D01*
X124840543Y-108908171D01*
X124532309Y-108908171D01*
X124540162Y-108884685D01*
X124508270Y-108823068D01*
X124468095Y-108818508D01*
X124288337Y-108749637D01*
X124203450Y-108569912D01*
X124208904Y-108522174D01*
X126110543Y-108522174D01*
X126152876Y-108564508D01*
X126195210Y-108522174D01*
X126152876Y-108479841D01*
X126110543Y-108522174D01*
X124208904Y-108522174D01*
X124220190Y-108423396D01*
X125800098Y-108423396D01*
X125811721Y-108473731D01*
X125856543Y-108479841D01*
X125926233Y-108448863D01*
X125912987Y-108423396D01*
X125812508Y-108413263D01*
X125800098Y-108423396D01*
X124220190Y-108423396D01*
X124229311Y-108343560D01*
X125529391Y-108343560D01*
X125556456Y-108392483D01*
X125593484Y-108395174D01*
X125684413Y-108327314D01*
X125722423Y-108256199D01*
X125744133Y-108164795D01*
X125671894Y-108203772D01*
X125646814Y-108224232D01*
X125529391Y-108343560D01*
X124229311Y-108343560D01*
X124232041Y-108319668D01*
X124234573Y-108312276D01*
X124287025Y-108119123D01*
X124267146Y-108065224D01*
X124186609Y-108142804D01*
X124057086Y-108344090D01*
X123981901Y-108480553D01*
X123855556Y-108738174D01*
X123808078Y-108878587D01*
X121984441Y-108878587D01*
X121988460Y-108776933D01*
X121986132Y-108776174D01*
X122300543Y-108776174D01*
X122342876Y-108818508D01*
X122385210Y-108776174D01*
X122342876Y-108733841D01*
X122300543Y-108776174D01*
X121986132Y-108776174D01*
X121875219Y-108740008D01*
X121848116Y-108740525D01*
X121744827Y-108760160D01*
X115294742Y-108760160D01*
X115303855Y-108543794D01*
X115304195Y-108439837D01*
X121665041Y-108439837D01*
X121717552Y-108485821D01*
X121844336Y-108527208D01*
X121845754Y-108522174D01*
X122131210Y-108522174D01*
X122173543Y-108564508D01*
X122215876Y-108522174D01*
X122173543Y-108479841D01*
X122131210Y-108522174D01*
X121845754Y-108522174D01*
X121864793Y-108454580D01*
X121856346Y-108437508D01*
X121961876Y-108437508D01*
X122004210Y-108479841D01*
X122046543Y-108437508D01*
X122004210Y-108395174D01*
X121961876Y-108437508D01*
X121856346Y-108437508D01*
X121837504Y-108399426D01*
X121730862Y-108348294D01*
X121692987Y-108362043D01*
X121665041Y-108439837D01*
X115304195Y-108439837D01*
X115304518Y-108341117D01*
X115292447Y-108220754D01*
X115267159Y-108161038D01*
X115228175Y-108140299D01*
X115191948Y-108137355D01*
X115027638Y-108098898D01*
X114812377Y-108011436D01*
X114807543Y-108009079D01*
X114684487Y-107941871D01*
X114695487Y-107930098D01*
X114722876Y-107937918D01*
X114920616Y-107980645D01*
X115181132Y-108014899D01*
X115215143Y-108017917D01*
X115416194Y-108026304D01*
X115478584Y-107996550D01*
X115434283Y-107919555D01*
X115326089Y-107846636D01*
X115273133Y-107887298D01*
X115169112Y-107921158D01*
X114942639Y-107867960D01*
X114775692Y-107806639D01*
X114464164Y-107689876D01*
X114298931Y-107644169D01*
X114272943Y-107668741D01*
X114379152Y-107762812D01*
X114379225Y-107762867D01*
X114472889Y-107854904D01*
X114458566Y-107887174D01*
X114353683Y-107829541D01*
X114191319Y-107684790D01*
X114124883Y-107615241D01*
X114103997Y-107590841D01*
X114172543Y-107590841D01*
X114214876Y-107633174D01*
X114257210Y-107590841D01*
X114214876Y-107548508D01*
X114172543Y-107590841D01*
X114103997Y-107590841D01*
X114006955Y-107477472D01*
X113984308Y-107430266D01*
X114017256Y-107450365D01*
X114134336Y-107507971D01*
X114200634Y-107421532D01*
X114213461Y-107383632D01*
X114244567Y-107336841D01*
X114680543Y-107336841D01*
X114722876Y-107379174D01*
X114765210Y-107336841D01*
X114722876Y-107294508D01*
X114680543Y-107336841D01*
X114244567Y-107336841D01*
X114293192Y-107263697D01*
X114462554Y-107214822D01*
X114595534Y-107209841D01*
X114842310Y-107241432D01*
X115028659Y-107319213D01*
X115049448Y-107336841D01*
X115171705Y-107441368D01*
X115249317Y-107426674D01*
X115322215Y-107274022D01*
X115350100Y-107195753D01*
X115399899Y-106968661D01*
X115347659Y-106785833D01*
X115310490Y-106724580D01*
X115178672Y-106582543D01*
X115007651Y-106561790D01*
X114925515Y-106576824D01*
X114701191Y-106588137D01*
X114561092Y-106538773D01*
X114483485Y-106511589D01*
X114430422Y-106606383D01*
X114393708Y-106788524D01*
X114321063Y-107050563D01*
X114190461Y-107173023D01*
X113971110Y-107172155D01*
X113773868Y-107115729D01*
X113543897Y-107050113D01*
X113374951Y-107024378D01*
X113350818Y-107026189D01*
X113249826Y-106978912D01*
X113062557Y-106835484D01*
X112820590Y-106621345D01*
X112753137Y-106556777D01*
X113085524Y-106556777D01*
X113106125Y-106604092D01*
X113191375Y-106694986D01*
X113240385Y-106676340D01*
X113241210Y-106664504D01*
X113181073Y-106592892D01*
X113143461Y-106566756D01*
X113085524Y-106556777D01*
X112753137Y-106556777D01*
X112683558Y-106490174D01*
X114087876Y-106490174D01*
X114130210Y-106532508D01*
X114172543Y-106490174D01*
X114130210Y-106447841D01*
X114087876Y-106490174D01*
X112683558Y-106490174D01*
X112673485Y-106480532D01*
X112448476Y-106255602D01*
X112299418Y-106099107D01*
X112243296Y-106029417D01*
X112267543Y-106041476D01*
X112493573Y-106201478D01*
X112599584Y-106251307D01*
X112592699Y-106192632D01*
X112536180Y-106104378D01*
X112466212Y-105982174D01*
X113495210Y-105982174D01*
X113537543Y-106024508D01*
X113579876Y-105982174D01*
X113537543Y-105939841D01*
X113495210Y-105982174D01*
X112466212Y-105982174D01*
X112420245Y-105901888D01*
X112423201Y-105849662D01*
X113600635Y-105849662D01*
X113612216Y-105855174D01*
X113689481Y-105795571D01*
X113706876Y-105770508D01*
X113728451Y-105691353D01*
X113716870Y-105685841D01*
X113639604Y-105745444D01*
X113622210Y-105770508D01*
X113600635Y-105849662D01*
X112423201Y-105849662D01*
X112428575Y-105754727D01*
X112516220Y-105665599D01*
X114717264Y-105665599D01*
X114800487Y-105679157D01*
X114910301Y-105663590D01*
X114911612Y-105634688D01*
X114881941Y-105629396D01*
X115386098Y-105629396D01*
X115397721Y-105679731D01*
X115442543Y-105685841D01*
X115512233Y-105654863D01*
X115498987Y-105629396D01*
X115398508Y-105619263D01*
X115386098Y-105629396D01*
X114881941Y-105629396D01*
X114798295Y-105614477D01*
X114749335Y-105628004D01*
X114717264Y-105665599D01*
X112516220Y-105665599D01*
X112573115Y-105607742D01*
X112656926Y-105546948D01*
X112811471Y-105411368D01*
X112836718Y-105319739D01*
X112824797Y-105309118D01*
X112741663Y-105304617D01*
X112733209Y-105333119D01*
X112664764Y-105435237D01*
X112512816Y-105475256D01*
X112357454Y-105434813D01*
X112341478Y-105422935D01*
X112271900Y-105286777D01*
X113762857Y-105286777D01*
X113783458Y-105334092D01*
X113868708Y-105424986D01*
X113917719Y-105406340D01*
X113918543Y-105394504D01*
X113914348Y-105389508D01*
X114003210Y-105389508D01*
X114045543Y-105431841D01*
X114087876Y-105389508D01*
X114045543Y-105347174D01*
X114003210Y-105389508D01*
X113914348Y-105389508D01*
X113858406Y-105322892D01*
X113820794Y-105296756D01*
X113762857Y-105286777D01*
X112271900Y-105286777D01*
X112263437Y-105270215D01*
X112256512Y-105220174D01*
X113410543Y-105220174D01*
X113452876Y-105262508D01*
X113495210Y-105220174D01*
X113452876Y-105177841D01*
X113410543Y-105220174D01*
X112256512Y-105220174D01*
X112229628Y-105025912D01*
X112240869Y-104762114D01*
X112297974Y-104550910D01*
X112331043Y-104500357D01*
X112391721Y-104425616D01*
X112336102Y-104458520D01*
X112286063Y-104495987D01*
X112155290Y-104562683D01*
X112048493Y-104497264D01*
X112008990Y-104449571D01*
X111903173Y-104294266D01*
X112788725Y-104294266D01*
X112854568Y-104379961D01*
X112955577Y-104540535D01*
X113055340Y-104790657D01*
X113090005Y-104909128D01*
X113154415Y-105112452D01*
X113204676Y-105183554D01*
X113223777Y-105151638D01*
X113213543Y-104979225D01*
X113149027Y-104737434D01*
X113135695Y-104701574D01*
X114110595Y-104701574D01*
X114112475Y-104743654D01*
X114209879Y-104754508D01*
X114350679Y-104708008D01*
X114379330Y-104677737D01*
X114352239Y-104634468D01*
X114257326Y-104645278D01*
X114110595Y-104701574D01*
X113135695Y-104701574D01*
X113121387Y-104663091D01*
X113033238Y-104404507D01*
X112981640Y-104180516D01*
X112977388Y-104138961D01*
X112963116Y-104024879D01*
X112935631Y-104073480D01*
X112928847Y-104098341D01*
X112856201Y-104223947D01*
X112805620Y-104246508D01*
X112788725Y-104294266D01*
X111903173Y-104294266D01*
X111884592Y-104266995D01*
X111747443Y-104031766D01*
X111627905Y-103800562D01*
X111619628Y-103780841D01*
X112817876Y-103780841D01*
X112860210Y-103823174D01*
X112902543Y-103780841D01*
X112860210Y-103738508D01*
X112817876Y-103780841D01*
X111619628Y-103780841D01*
X111556342Y-103630060D01*
X111547876Y-103588841D01*
X111618221Y-103514471D01*
X111795635Y-103410669D01*
X111892084Y-103365231D01*
X112088408Y-103265740D01*
X112188949Y-103188811D01*
X112191311Y-103168386D01*
X112099457Y-103181500D01*
X111900981Y-103258717D01*
X111638160Y-103383505D01*
X111628135Y-103388623D01*
X111359821Y-103521647D01*
X111151800Y-103616828D01*
X111048544Y-103653833D01*
X111048037Y-103653841D01*
X110989625Y-103580526D01*
X110904062Y-103391462D01*
X110860925Y-103272841D01*
X111463210Y-103272841D01*
X111505543Y-103315174D01*
X111547876Y-103272841D01*
X111505543Y-103230508D01*
X111463210Y-103272841D01*
X110860925Y-103272841D01*
X110837833Y-103209341D01*
X110805488Y-103113908D01*
X112331516Y-103113908D01*
X112405161Y-103103835D01*
X112421355Y-103097748D01*
X112539501Y-103110145D01*
X112611843Y-103265143D01*
X112674248Y-103447215D01*
X112717421Y-103465079D01*
X112724742Y-103320839D01*
X112718102Y-103251674D01*
X112675160Y-103048464D01*
X112624489Y-102934174D01*
X112559086Y-102849508D01*
X113410543Y-102849508D01*
X113452876Y-102891841D01*
X113495210Y-102849508D01*
X113452876Y-102807174D01*
X113410543Y-102849508D01*
X112559086Y-102849508D01*
X112523309Y-102803194D01*
X112429318Y-102680174D01*
X112341041Y-102568329D01*
X112343156Y-102596180D01*
X112395747Y-102706753D01*
X112447643Y-102895377D01*
X112388443Y-103026191D01*
X112331516Y-103113908D01*
X110805488Y-103113908D01*
X110746388Y-102939536D01*
X110744507Y-102934174D01*
X111209210Y-102934174D01*
X111251543Y-102976508D01*
X111293876Y-102934174D01*
X111251543Y-102891841D01*
X111209210Y-102934174D01*
X110744507Y-102934174D01*
X110671450Y-102725914D01*
X110642053Y-102647222D01*
X110641768Y-102571611D01*
X110682994Y-102584250D01*
X110783267Y-102578531D01*
X110801837Y-102547626D01*
X110879871Y-102531676D01*
X111038735Y-102619795D01*
X111073892Y-102646425D01*
X111315525Y-102836494D01*
X111217055Y-102652501D01*
X111103754Y-102510300D01*
X111015731Y-102467211D01*
X110978013Y-102435660D01*
X111039876Y-102383841D01*
X111178836Y-102316276D01*
X111265517Y-102306627D01*
X111255472Y-102353097D01*
X111209210Y-102390684D01*
X111151084Y-102445430D01*
X111236340Y-102436322D01*
X111293876Y-102421168D01*
X111402322Y-102383841D01*
X112225210Y-102383841D01*
X112256188Y-102453531D01*
X112281654Y-102440285D01*
X112291787Y-102339806D01*
X112281654Y-102327396D01*
X112231320Y-102339019D01*
X112225210Y-102383841D01*
X111402322Y-102383841D01*
X111496913Y-102351283D01*
X111683980Y-102265713D01*
X111813392Y-102187331D01*
X111843466Y-102139010D01*
X111818626Y-102133231D01*
X111765859Y-102094866D01*
X111764506Y-102087508D01*
X112055876Y-102087508D01*
X112098210Y-102129841D01*
X112140543Y-102087508D01*
X112098210Y-102045174D01*
X112055876Y-102087508D01*
X111764506Y-102087508D01*
X111742107Y-101965728D01*
X111745403Y-101718481D01*
X111766700Y-101411032D01*
X111825024Y-100692223D01*
X111480080Y-100318003D01*
X111175680Y-99935435D01*
X110928628Y-99524101D01*
X110762586Y-99130194D01*
X110701215Y-98799909D01*
X110701210Y-98797381D01*
X110743003Y-98552904D01*
X110870447Y-98451584D01*
X111086636Y-98492531D01*
X111316101Y-98620832D01*
X111650387Y-98842052D01*
X111594652Y-98432780D01*
X111589075Y-98067012D01*
X111674791Y-97834941D01*
X111829799Y-97744415D01*
X112032100Y-97803283D01*
X112259690Y-98019391D01*
X112358419Y-98160343D01*
X112517968Y-98377798D01*
X112631466Y-98435323D01*
X112713336Y-98331160D01*
X112769588Y-98110138D01*
X112851722Y-97883994D01*
X112977157Y-97733211D01*
X112988913Y-97726263D01*
X113177302Y-97704270D01*
X113345559Y-97844400D01*
G37*
D13*
%TO.C,D4*%
X117315000Y-66790000D02*
X117315000Y-68710000D01*
X117315000Y-68710000D02*
X120000000Y-68710000D01*
X120000000Y-66790000D02*
X117315000Y-66790000D01*
%TO.C,R4*%
X113310936Y-77497000D02*
X113765064Y-77497000D01*
X113310936Y-78967000D02*
X113765064Y-78967000D01*
%TO.C,J7*%
X175935000Y-60080000D02*
X174515000Y-60080000D01*
X175935000Y-54320000D02*
X175935000Y-60080000D01*
X175935000Y-52800000D02*
X175935000Y-52490000D01*
X175935000Y-52490000D02*
X151065000Y-52490000D01*
X174515000Y-60080000D02*
X174515000Y-59580000D01*
X174515000Y-59580000D02*
X152485000Y-59580000D01*
X152485000Y-60080000D02*
X151065000Y-60080000D01*
X152485000Y-59580000D02*
X152485000Y-60080000D01*
X151065000Y-60080000D02*
X151065000Y-54320000D01*
X151065000Y-52490000D02*
X151065000Y-52800000D01*
%TO.C,J6*%
X147935000Y-55565000D02*
X147935000Y-52490000D01*
X147935000Y-52490000D02*
X132065000Y-52490000D01*
X146515000Y-57080000D02*
X146515000Y-56580000D01*
X146515000Y-56580000D02*
X133485000Y-56580000D01*
X146495000Y-57080000D02*
X146515000Y-57080000D01*
X133485000Y-57080000D02*
X133505000Y-57080000D01*
X133485000Y-56580000D02*
X133485000Y-57080000D01*
X132065000Y-52490000D02*
X132065000Y-55565000D01*
%TO.C,D2*%
X117315000Y-77290000D02*
X117315000Y-79210000D01*
X117315000Y-79210000D02*
X120000000Y-79210000D01*
X120000000Y-77290000D02*
X117315000Y-77290000D01*
%TO.C,R2*%
X113765064Y-75235000D02*
X113310936Y-75235000D01*
X113765064Y-73765000D02*
X113310936Y-73765000D01*
D14*
%TO.C,RV1*%
X196500000Y-78500000D02*
X194970000Y-78500000D01*
X196500000Y-78500000D02*
X196500000Y-83005000D01*
X187500000Y-78500000D02*
X189030000Y-78500000D01*
X187500000Y-78500000D02*
X187500000Y-81805000D01*
X187500000Y-84995000D02*
X187500000Y-132005000D01*
X196500000Y-86195000D02*
X196500000Y-130805000D01*
X196500000Y-133995000D02*
X196500000Y-138500000D01*
X187500000Y-135195000D02*
X187500000Y-138500000D01*
X196500000Y-138500000D02*
X194970000Y-138500000D01*
X187500000Y-138500000D02*
X192530000Y-138500000D01*
D15*
X193850000Y-77350000D02*
G75*
G03*
X193850000Y-77350000I-100000J0D01*
G01*
D13*
%TO.C,D3*%
X117377500Y-63040000D02*
X117377500Y-64960000D01*
X117377500Y-64960000D02*
X120062500Y-64960000D01*
X120062500Y-63040000D02*
X117377500Y-63040000D01*
%TO.C,D1*%
X117315000Y-73540000D02*
X117315000Y-75460000D01*
X117315000Y-75460000D02*
X120000000Y-75460000D01*
X120000000Y-73540000D02*
X117315000Y-73540000D01*
%TO.C,R7*%
X113765064Y-68485000D02*
X113310936Y-68485000D01*
X113765064Y-67015000D02*
X113310936Y-67015000D01*
D16*
%TO.C,S1*%
X165700000Y-140000000D02*
X165700000Y-140000000D01*
X165800000Y-140000000D02*
X165800000Y-140000000D01*
D15*
X168500000Y-136500000D02*
X168500000Y-138700000D01*
X168500000Y-146500000D02*
X168500000Y-148500000D01*
X168500000Y-148500000D02*
X180500000Y-148500000D01*
X180500000Y-136500000D02*
X168500000Y-136500000D01*
X180500000Y-138700000D02*
X180500000Y-136500000D01*
X180500000Y-143700000D02*
X180500000Y-141300000D01*
X180500000Y-148500000D02*
X180500000Y-146300000D01*
D16*
X165800000Y-140000000D02*
G75*
G03*
X165700000Y-140000000I-50000J0D01*
G01*
X165700000Y-140000000D02*
G75*
G03*
X165800000Y-140000000I50000J0D01*
G01*
D13*
%TO.C,J3*%
X189935000Y-59995000D02*
X188515000Y-59995000D01*
X189935000Y-54235000D02*
X189935000Y-59995000D01*
X189935000Y-52715000D02*
X189935000Y-52405000D01*
X189935000Y-52405000D02*
X177065000Y-52405000D01*
X188515000Y-59995000D02*
X188515000Y-59495000D01*
X188515000Y-59495000D02*
X178485000Y-59495000D01*
X178485000Y-59995000D02*
X177065000Y-59995000D01*
X178485000Y-59495000D02*
X178485000Y-59995000D01*
X177065000Y-59995000D02*
X177065000Y-54235000D01*
X177065000Y-52405000D02*
X177065000Y-52715000D01*
D17*
%TO.C,SW2*%
X164508260Y-114221584D02*
G75*
G03*
X164508260Y-114221584I-13881100J0D01*
G01*
D13*
%TO.C,J2*%
X190420000Y-74935000D02*
X190420000Y-73515000D01*
X196180000Y-74935000D02*
X190420000Y-74935000D01*
X197700000Y-74935000D02*
X198010000Y-74935000D01*
X198010000Y-74935000D02*
X198010000Y-62065000D01*
X190420000Y-73515000D02*
X190920000Y-73515000D01*
X190920000Y-73515000D02*
X190920000Y-63485000D01*
X190420000Y-63485000D02*
X190420000Y-62065000D01*
X190920000Y-63485000D02*
X190420000Y-63485000D01*
X190420000Y-62065000D02*
X196180000Y-62065000D01*
X198010000Y-62065000D02*
X197700000Y-62065000D01*
%TO.C,LOGO2*%
D18*
X114456219Y-137763596D02*
X114586244Y-137810668D01*
X114613334Y-137877000D01*
X114543050Y-137980509D01*
X114446916Y-138004000D01*
X114341195Y-138035175D01*
X114274996Y-138154676D01*
X114227834Y-138401465D01*
X114224342Y-138427334D01*
X114164866Y-138713175D01*
X114081182Y-138841210D01*
X114044148Y-138850667D01*
X113973253Y-138818698D01*
X113952093Y-138698218D01*
X113974936Y-138452366D01*
X113978334Y-138427334D01*
X114004950Y-138173201D01*
X113989181Y-138045507D01*
X113923926Y-138005076D01*
X113901612Y-138004000D01*
X113784343Y-137939644D01*
X113766667Y-137877000D01*
X113811986Y-137797135D01*
X113968894Y-137758127D01*
X114190000Y-137750000D01*
X114456219Y-137763596D01*
G36*
X114456219Y-137763596D02*
G01*
X114586244Y-137810668D01*
X114613334Y-137877000D01*
X114543050Y-137980509D01*
X114446916Y-138004000D01*
X114341195Y-138035175D01*
X114274996Y-138154676D01*
X114227834Y-138401465D01*
X114224342Y-138427334D01*
X114164866Y-138713175D01*
X114081182Y-138841210D01*
X114044148Y-138850667D01*
X113973253Y-138818698D01*
X113952093Y-138698218D01*
X113974936Y-138452366D01*
X113978334Y-138427334D01*
X114004950Y-138173201D01*
X113989181Y-138045507D01*
X113923926Y-138005076D01*
X113901612Y-138004000D01*
X113784343Y-137939644D01*
X113766667Y-137877000D01*
X113811986Y-137797135D01*
X113968894Y-137758127D01*
X114190000Y-137750000D01*
X114456219Y-137763596D01*
G37*
X115417135Y-137793696D02*
X115438412Y-137855834D01*
X115335971Y-137938619D01*
X115206000Y-137961667D01*
X115023919Y-138001982D01*
X114989271Y-138098427D01*
X115107901Y-138214247D01*
X115161474Y-138241596D01*
X115335609Y-138389319D01*
X115360343Y-138578490D01*
X115233769Y-138767372D01*
X115187161Y-138803533D01*
X114976083Y-138917544D01*
X114804919Y-138909270D01*
X114708320Y-138858836D01*
X114627683Y-138757447D01*
X114682926Y-138677410D01*
X114840992Y-138651665D01*
X114907646Y-138660225D01*
X115075718Y-138650631D01*
X115121882Y-138565169D01*
X115042230Y-138449420D01*
X114931328Y-138383910D01*
X114755049Y-138234940D01*
X114712433Y-138034311D01*
X114786042Y-137872933D01*
X114914838Y-137794772D01*
X115101927Y-137754491D01*
X115288847Y-137753621D01*
X115417135Y-137793696D01*
G36*
X115417135Y-137793696D02*
G01*
X115438412Y-137855834D01*
X115335971Y-137938619D01*
X115206000Y-137961667D01*
X115023919Y-138001982D01*
X114989271Y-138098427D01*
X115107901Y-138214247D01*
X115161474Y-138241596D01*
X115335609Y-138389319D01*
X115360343Y-138578490D01*
X115233769Y-138767372D01*
X115187161Y-138803533D01*
X114976083Y-138917544D01*
X114804919Y-138909270D01*
X114708320Y-138858836D01*
X114627683Y-138757447D01*
X114682926Y-138677410D01*
X114840992Y-138651665D01*
X114907646Y-138660225D01*
X115075718Y-138650631D01*
X115121882Y-138565169D01*
X115042230Y-138449420D01*
X114931328Y-138383910D01*
X114755049Y-138234940D01*
X114712433Y-138034311D01*
X114786042Y-137872933D01*
X114914838Y-137794772D01*
X115101927Y-137754491D01*
X115288847Y-137753621D01*
X115417135Y-137793696D01*
G37*
X113578617Y-137819315D02*
X113595314Y-137898167D01*
X113571556Y-138112794D01*
X113516406Y-138372471D01*
X113447108Y-138610123D01*
X113380907Y-138758676D01*
X113371082Y-138770361D01*
X113181009Y-138865001D01*
X112932331Y-138893677D01*
X112729500Y-138845932D01*
X112630859Y-138710585D01*
X112580401Y-138486812D01*
X112575347Y-138226811D01*
X112612919Y-137982782D01*
X112690335Y-137806923D01*
X112787858Y-137750000D01*
X112847526Y-137808109D01*
X112864710Y-137996093D01*
X112852373Y-138223009D01*
X112834174Y-138490789D01*
X112846265Y-138628448D01*
X112902683Y-138674415D01*
X113014740Y-138667509D01*
X113138993Y-138625283D01*
X113217221Y-138513762D01*
X113274798Y-138289613D01*
X113291741Y-138194500D01*
X113361395Y-137908155D01*
X113445765Y-137763690D01*
X113482241Y-137750000D01*
X113578617Y-137819315D01*
G36*
X113578617Y-137819315D02*
G01*
X113595314Y-137898167D01*
X113571556Y-138112794D01*
X113516406Y-138372471D01*
X113447108Y-138610123D01*
X113380907Y-138758676D01*
X113371082Y-138770361D01*
X113181009Y-138865001D01*
X112932331Y-138893677D01*
X112729500Y-138845932D01*
X112630859Y-138710585D01*
X112580401Y-138486812D01*
X112575347Y-138226811D01*
X112612919Y-137982782D01*
X112690335Y-137806923D01*
X112787858Y-137750000D01*
X112847526Y-137808109D01*
X112864710Y-137996093D01*
X112852373Y-138223009D01*
X112834174Y-138490789D01*
X112846265Y-138628448D01*
X112902683Y-138674415D01*
X113014740Y-138667509D01*
X113138993Y-138625283D01*
X113217221Y-138513762D01*
X113274798Y-138289613D01*
X113291741Y-138194500D01*
X113361395Y-137908155D01*
X113445765Y-137763690D01*
X113482241Y-137750000D01*
X113578617Y-137819315D01*
G37*
X121275022Y-134367039D02*
X121582668Y-134449318D01*
X122209242Y-134723482D01*
X122813510Y-135143275D01*
X123362345Y-135685341D01*
X123401770Y-135731975D01*
X123614432Y-135997321D01*
X123784812Y-136229225D01*
X123892543Y-136397853D01*
X123917260Y-136473370D01*
X123908479Y-136474302D01*
X123837298Y-136420987D01*
X123668916Y-136284039D01*
X123435169Y-136089479D01*
X123349559Y-136017442D01*
X122637133Y-135488873D01*
X121919895Y-135108433D01*
X121183426Y-134874838D01*
X120413309Y-134786807D01*
X119595127Y-134843057D01*
X118714463Y-135042308D01*
X117756897Y-135383276D01*
X117490314Y-135496400D01*
X117121517Y-135651373D01*
X116896415Y-135732557D01*
X116808855Y-135745023D01*
X116852683Y-135693842D01*
X117021746Y-135584085D01*
X117309890Y-135420824D01*
X117710962Y-135209130D01*
X118042334Y-135041458D01*
X118821464Y-134684603D01*
X119507658Y-134443189D01*
X120127555Y-134312760D01*
X120707797Y-134288863D01*
X121275022Y-134367039D01*
G36*
X121275022Y-134367039D02*
G01*
X121582668Y-134449318D01*
X122209242Y-134723482D01*
X122813510Y-135143275D01*
X123362345Y-135685341D01*
X123401770Y-135731975D01*
X123614432Y-135997321D01*
X123784812Y-136229225D01*
X123892543Y-136397853D01*
X123917260Y-136473370D01*
X123908479Y-136474302D01*
X123837298Y-136420987D01*
X123668916Y-136284039D01*
X123435169Y-136089479D01*
X123349559Y-136017442D01*
X122637133Y-135488873D01*
X121919895Y-135108433D01*
X121183426Y-134874838D01*
X120413309Y-134786807D01*
X119595127Y-134843057D01*
X118714463Y-135042308D01*
X117756897Y-135383276D01*
X117490314Y-135496400D01*
X117121517Y-135651373D01*
X116896415Y-135732557D01*
X116808855Y-135745023D01*
X116852683Y-135693842D01*
X117021746Y-135584085D01*
X117309890Y-135420824D01*
X117710962Y-135209130D01*
X118042334Y-135041458D01*
X118821464Y-134684603D01*
X119507658Y-134443189D01*
X120127555Y-134312760D01*
X120707797Y-134288863D01*
X121275022Y-134367039D01*
G37*
X117388000Y-137758171D02*
X117578544Y-137785224D01*
X117642975Y-137834973D01*
X117640591Y-137855834D01*
X117537889Y-137951847D01*
X117421868Y-137988722D01*
X117278364Y-138060816D01*
X117236844Y-138242722D01*
X117207513Y-138557587D01*
X117131073Y-138771292D01*
X117019432Y-138850663D01*
X117018575Y-138850667D01*
X116958213Y-138825620D01*
X116936959Y-138730418D01*
X116955037Y-138534973D01*
X117012673Y-138209193D01*
X117023775Y-138152167D01*
X116991544Y-138027742D01*
X116898463Y-138004000D01*
X116752358Y-137958815D01*
X116712284Y-137908517D01*
X116661169Y-137928527D01*
X116556145Y-138070276D01*
X116418902Y-138303984D01*
X116403930Y-138331851D01*
X116250318Y-138590806D01*
X116110268Y-138776760D01*
X116013380Y-138850593D01*
X116011376Y-138850667D01*
X115921830Y-138773915D01*
X115821428Y-138569296D01*
X115762341Y-138393136D01*
X115673659Y-138070851D01*
X115638360Y-137877502D01*
X115656067Y-137781449D01*
X115726406Y-137751054D01*
X115754720Y-137750000D01*
X115861642Y-137822943D01*
X115931125Y-137982834D01*
X115997921Y-138252998D01*
X116057097Y-138364036D01*
X116128480Y-138323914D01*
X116231897Y-138140599D01*
X116247167Y-138109834D01*
X116424694Y-137750000D01*
X117050069Y-137750000D01*
X117388000Y-137758171D01*
G36*
X117388000Y-137758171D02*
G01*
X117578544Y-137785224D01*
X117642975Y-137834973D01*
X117640591Y-137855834D01*
X117537889Y-137951847D01*
X117421868Y-137988722D01*
X117278364Y-138060816D01*
X117236844Y-138242722D01*
X117207513Y-138557587D01*
X117131073Y-138771292D01*
X117019432Y-138850663D01*
X117018575Y-138850667D01*
X116958213Y-138825620D01*
X116936959Y-138730418D01*
X116955037Y-138534973D01*
X117012673Y-138209193D01*
X117023775Y-138152167D01*
X116991544Y-138027742D01*
X116898463Y-138004000D01*
X116752358Y-137958815D01*
X116712284Y-137908517D01*
X116661169Y-137928527D01*
X116556145Y-138070276D01*
X116418902Y-138303984D01*
X116403930Y-138331851D01*
X116250318Y-138590806D01*
X116110268Y-138776760D01*
X116013380Y-138850593D01*
X116011376Y-138850667D01*
X115921830Y-138773915D01*
X115821428Y-138569296D01*
X115762341Y-138393136D01*
X115673659Y-138070851D01*
X115638360Y-137877502D01*
X115656067Y-137781449D01*
X115726406Y-137751054D01*
X115754720Y-137750000D01*
X115861642Y-137822943D01*
X115931125Y-137982834D01*
X115997921Y-138252998D01*
X116057097Y-138364036D01*
X116128480Y-138323914D01*
X116231897Y-138140599D01*
X116247167Y-138109834D01*
X116424694Y-137750000D01*
X117050069Y-137750000D01*
X117388000Y-137758171D01*
G37*
X118948417Y-138709313D02*
X118764990Y-138843627D01*
X118494708Y-139028048D01*
X118166558Y-139243760D01*
X117809526Y-139471948D01*
X117452599Y-139693795D01*
X117124765Y-139890486D01*
X116887621Y-140025489D01*
X116140408Y-140392640D01*
X115410966Y-140671038D01*
X114722950Y-140855144D01*
X114100012Y-140939424D01*
X113565807Y-140918339D01*
X113320343Y-140860469D01*
X112836869Y-140614277D01*
X112435459Y-140222205D01*
X112149551Y-139750429D01*
X112034503Y-139483420D01*
X111951827Y-139247845D01*
X111905925Y-139068973D01*
X111901199Y-138972074D01*
X111942050Y-138982418D01*
X112032879Y-139125274D01*
X112044449Y-139147000D01*
X112377640Y-139610842D01*
X112826388Y-139984930D01*
X112962334Y-140064921D01*
X113135425Y-140146448D01*
X113320015Y-140199418D01*
X113557005Y-140229376D01*
X113887296Y-140241869D01*
X114274667Y-140242887D01*
X114736913Y-140235070D01*
X115092277Y-140210514D01*
X115403059Y-140159661D01*
X115731558Y-140072955D01*
X116052667Y-139970125D01*
X116445692Y-139824784D01*
X116927735Y-139624941D01*
X117438793Y-139396511D01*
X117918863Y-139165408D01*
X117936500Y-139156512D01*
X118320340Y-138964671D01*
X118644034Y-138807028D01*
X118880927Y-138696240D01*
X119004364Y-138644964D01*
X119016000Y-138643923D01*
X118948417Y-138709313D01*
G36*
X118948417Y-138709313D02*
G01*
X118764990Y-138843627D01*
X118494708Y-139028048D01*
X118166558Y-139243760D01*
X117809526Y-139471948D01*
X117452599Y-139693795D01*
X117124765Y-139890486D01*
X116887621Y-140025489D01*
X116140408Y-140392640D01*
X115410966Y-140671038D01*
X114722950Y-140855144D01*
X114100012Y-140939424D01*
X113565807Y-140918339D01*
X113320343Y-140860469D01*
X112836869Y-140614277D01*
X112435459Y-140222205D01*
X112149551Y-139750429D01*
X112034503Y-139483420D01*
X111951827Y-139247845D01*
X111905925Y-139068973D01*
X111901199Y-138972074D01*
X111942050Y-138982418D01*
X112032879Y-139125274D01*
X112044449Y-139147000D01*
X112377640Y-139610842D01*
X112826388Y-139984930D01*
X112962334Y-140064921D01*
X113135425Y-140146448D01*
X113320015Y-140199418D01*
X113557005Y-140229376D01*
X113887296Y-140241869D01*
X114274667Y-140242887D01*
X114736913Y-140235070D01*
X115092277Y-140210514D01*
X115403059Y-140159661D01*
X115731558Y-140072955D01*
X116052667Y-139970125D01*
X116445692Y-139824784D01*
X116927735Y-139624941D01*
X117438793Y-139396511D01*
X117918863Y-139165408D01*
X117936500Y-139156512D01*
X118320340Y-138964671D01*
X118644034Y-138807028D01*
X118880927Y-138696240D01*
X119004364Y-138644964D01*
X119016000Y-138643923D01*
X118948417Y-138709313D01*
G37*
X117003943Y-136505662D02*
X118618301Y-136559837D01*
X120386221Y-136645813D01*
X122306529Y-136763673D01*
X122572000Y-136781663D01*
X123224946Y-136827680D01*
X123915556Y-136878602D01*
X124593333Y-136930553D01*
X125207778Y-136979655D01*
X125708393Y-137022030D01*
X125747000Y-137025458D01*
X127017000Y-137138801D01*
X125112000Y-137084567D01*
X124295080Y-137064732D01*
X123409053Y-137049324D01*
X122473882Y-137038234D01*
X121509527Y-137031357D01*
X120535950Y-137028585D01*
X119573113Y-137029811D01*
X118640978Y-137034927D01*
X117759507Y-137043828D01*
X116948660Y-137056404D01*
X116228401Y-137072551D01*
X115618690Y-137092159D01*
X115139489Y-137115123D01*
X114825000Y-137139767D01*
X113850440Y-137259425D01*
X113037746Y-137392204D01*
X112379780Y-137540644D01*
X111869406Y-137707283D01*
X111499487Y-137894661D01*
X111262886Y-138105318D01*
X111152467Y-138341793D01*
X111142000Y-138450189D01*
X111191925Y-138692824D01*
X111312500Y-138936887D01*
X111317099Y-138943430D01*
X111415263Y-139095554D01*
X111425725Y-139163634D01*
X111335276Y-139145003D01*
X111130705Y-139036997D01*
X110803334Y-138839745D01*
X110374626Y-138549938D01*
X110010792Y-138255182D01*
X109738285Y-137979932D01*
X109583559Y-137748643D01*
X109564892Y-137694878D01*
X109578979Y-137435570D01*
X109758382Y-137207240D01*
X110101926Y-137009968D01*
X110608435Y-136843839D01*
X111276734Y-136708934D01*
X112105647Y-136605336D01*
X113094000Y-136533127D01*
X114240618Y-136492390D01*
X115544323Y-136483208D01*
X117003943Y-136505662D01*
G36*
X117003943Y-136505662D02*
G01*
X118618301Y-136559837D01*
X120386221Y-136645813D01*
X122306529Y-136763673D01*
X122572000Y-136781663D01*
X123224946Y-136827680D01*
X123915556Y-136878602D01*
X124593333Y-136930553D01*
X125207778Y-136979655D01*
X125708393Y-137022030D01*
X125747000Y-137025458D01*
X127017000Y-137138801D01*
X125112000Y-137084567D01*
X124295080Y-137064732D01*
X123409053Y-137049324D01*
X122473882Y-137038234D01*
X121509527Y-137031357D01*
X120535950Y-137028585D01*
X119573113Y-137029811D01*
X118640978Y-137034927D01*
X117759507Y-137043828D01*
X116948660Y-137056404D01*
X116228401Y-137072551D01*
X115618690Y-137092159D01*
X115139489Y-137115123D01*
X114825000Y-137139767D01*
X113850440Y-137259425D01*
X113037746Y-137392204D01*
X112379780Y-137540644D01*
X111869406Y-137707283D01*
X111499487Y-137894661D01*
X111262886Y-138105318D01*
X111152467Y-138341793D01*
X111142000Y-138450189D01*
X111191925Y-138692824D01*
X111312500Y-138936887D01*
X111317099Y-138943430D01*
X111415263Y-139095554D01*
X111425725Y-139163634D01*
X111335276Y-139145003D01*
X111130705Y-139036997D01*
X110803334Y-138839745D01*
X110374626Y-138549938D01*
X110010792Y-138255182D01*
X109738285Y-137979932D01*
X109583559Y-137748643D01*
X109564892Y-137694878D01*
X109578979Y-137435570D01*
X109758382Y-137207240D01*
X110101926Y-137009968D01*
X110608435Y-136843839D01*
X111276734Y-136708934D01*
X112105647Y-136605336D01*
X113094000Y-136533127D01*
X114240618Y-136492390D01*
X115544323Y-136483208D01*
X117003943Y-136505662D01*
G37*
X122226616Y-137344884D02*
X122993095Y-137426699D01*
X123664321Y-137571139D01*
X123799667Y-137612989D01*
X124436279Y-137869973D01*
X124931666Y-138167975D01*
X125281375Y-138498364D01*
X125480952Y-138852511D01*
X125525944Y-139221786D01*
X125411897Y-139597560D01*
X125134357Y-139971203D01*
X125056059Y-140047501D01*
X124596706Y-140369800D01*
X124014328Y-140611745D01*
X123338434Y-140766518D01*
X122598531Y-140827305D01*
X121843722Y-140789577D01*
X121451259Y-140725619D01*
X121045114Y-140630150D01*
X120773042Y-140544726D01*
X120404244Y-140380908D01*
X120002742Y-140161585D01*
X119619164Y-139918294D01*
X119304138Y-139682570D01*
X119143000Y-139529358D01*
X118973667Y-139335501D01*
X119227667Y-139464686D01*
X119882755Y-139727412D01*
X120626130Y-139907303D01*
X121415448Y-140002579D01*
X122208366Y-140011459D01*
X122962542Y-139932163D01*
X123635632Y-139762909D01*
X123892139Y-139660870D01*
X124318518Y-139418059D01*
X124580214Y-139158225D01*
X124680009Y-138889425D01*
X124620686Y-138619717D01*
X124405027Y-138357160D01*
X124035815Y-138109810D01*
X123515831Y-137885726D01*
X123249334Y-137799350D01*
X122433203Y-137625229D01*
X121530398Y-137552743D01*
X120588694Y-137580587D01*
X119655866Y-137707453D01*
X118814889Y-137920601D01*
X118482610Y-138023953D01*
X118217131Y-138099913D01*
X118054974Y-138138382D01*
X118022758Y-138139647D01*
X118065005Y-138085450D01*
X118238575Y-137998737D01*
X118511235Y-137890844D01*
X118850752Y-137773111D01*
X119224894Y-137656876D01*
X119601428Y-137553478D01*
X119866657Y-137491034D01*
X120612297Y-137375467D01*
X121415983Y-137327279D01*
X122226616Y-137344884D01*
G36*
X122226616Y-137344884D02*
G01*
X122993095Y-137426699D01*
X123664321Y-137571139D01*
X123799667Y-137612989D01*
X124436279Y-137869973D01*
X124931666Y-138167975D01*
X125281375Y-138498364D01*
X125480952Y-138852511D01*
X125525944Y-139221786D01*
X125411897Y-139597560D01*
X125134357Y-139971203D01*
X125056059Y-140047501D01*
X124596706Y-140369800D01*
X124014328Y-140611745D01*
X123338434Y-140766518D01*
X122598531Y-140827305D01*
X121843722Y-140789577D01*
X121451259Y-140725619D01*
X121045114Y-140630150D01*
X120773042Y-140544726D01*
X120404244Y-140380908D01*
X120002742Y-140161585D01*
X119619164Y-139918294D01*
X119304138Y-139682570D01*
X119143000Y-139529358D01*
X118973667Y-139335501D01*
X119227667Y-139464686D01*
X119882755Y-139727412D01*
X120626130Y-139907303D01*
X121415448Y-140002579D01*
X122208366Y-140011459D01*
X122962542Y-139932163D01*
X123635632Y-139762909D01*
X123892139Y-139660870D01*
X124318518Y-139418059D01*
X124580214Y-139158225D01*
X124680009Y-138889425D01*
X124620686Y-138619717D01*
X124405027Y-138357160D01*
X124035815Y-138109810D01*
X123515831Y-137885726D01*
X123249334Y-137799350D01*
X122433203Y-137625229D01*
X121530398Y-137552743D01*
X120588694Y-137580587D01*
X119655866Y-137707453D01*
X118814889Y-137920601D01*
X118482610Y-138023953D01*
X118217131Y-138099913D01*
X118054974Y-138138382D01*
X118022758Y-138139647D01*
X118065005Y-138085450D01*
X118238575Y-137998737D01*
X118511235Y-137890844D01*
X118850752Y-137773111D01*
X119224894Y-137656876D01*
X119601428Y-137553478D01*
X119866657Y-137491034D01*
X120612297Y-137375467D01*
X121415983Y-137327279D01*
X122226616Y-137344884D01*
G37*
D13*
%TO.C,J5*%
X128935000Y-55480000D02*
X128935000Y-52405000D01*
X128935000Y-52405000D02*
X113065000Y-52405000D01*
X127515000Y-56995000D02*
X127515000Y-56495000D01*
X127515000Y-56495000D02*
X114485000Y-56495000D01*
X127495000Y-56995000D02*
X127515000Y-56995000D01*
X114485000Y-56995000D02*
X114505000Y-56995000D01*
X114485000Y-56495000D02*
X114485000Y-56995000D01*
X113065000Y-52405000D02*
X113065000Y-55480000D01*
%TO.C,R5*%
X113727064Y-64735000D02*
X113272936Y-64735000D01*
X113727064Y-63265000D02*
X113272936Y-63265000D01*
%TD*%
M02*
