M48
; DRILL file {KiCad 7.0.5} date Sat Sep 23 15:40:55 2023
; FORMAT={-:-/ absolute / inch / decimal}
; #@! TF.CreationDate,2023-09-23T15:40:55-05:00
; #@! TF.GenerationSoftware,Kicad,Pcbnew,7.0.5
; #@! TF.FileFunction,Plated,1,2,PTH
FMAT,2
INCH
; #@! TA.AperFunction,Plated,PTH,ViaDrill
T1C0.0157
; #@! TA.AperFunction,Plated,PTH,ComponentDrill
T2C0.0394
; #@! TA.AperFunction,Plated,PTH,ComponentDrill
T3C0.0402
; #@! TA.AperFunction,Plated,PTH,ComponentDrill
T4C0.0472
; #@! TA.AperFunction,Plated,PTH,ComponentDrill
T5C0.0590
; #@! TA.AperFunction,Plated,PTH,ComponentDrill
T6C0.0669
%
G90
G05
T1
X4.57Y-2.7461
X4.57Y-2.8346
X6.35Y-3.1
X6.6Y-2.85
X6.8209Y-5.7087
X6.8898Y-5.4035
T2
X6.0827Y-2.1457
X6.0827Y-2.2638
X6.2008Y-2.1457
X6.2008Y-2.2638
X6.3189Y-2.1457
X6.3189Y-2.2638
X6.437Y-2.1457
X6.437Y-2.2638
X6.5551Y-2.1457
X6.5551Y-2.2638
X6.6732Y-2.1457
X6.6732Y-2.2638
X6.7913Y-2.1457
X6.7913Y-2.2638
X7.1063Y-2.1423
X7.1063Y-2.2604
X7.2244Y-2.1423
X7.2244Y-2.2604
X7.3425Y-2.1423
X7.3425Y-2.2604
X7.5984Y-2.5787
X7.5984Y-2.6969
X7.5984Y-2.815
X7.7165Y-2.5787
X7.7165Y-2.6969
X7.7165Y-2.815
T3
X4.5866Y-2.1423
X4.7047Y-2.1423
X4.8228Y-2.1423
X4.9409Y-2.1423
X5.3346Y-2.1457
X5.4528Y-2.1457
X5.5709Y-2.1457
X5.689Y-2.1457
T4
X7.4902Y-3.1201
X7.628Y-3.1201
X7.628Y-5.4232
T5
X5.5081Y-4.3838
X5.5081Y-4.61
X5.6212Y-4.1879
X5.6212Y-4.8059
X5.8171Y-4.0748
X5.8171Y-4.919
X5.8183Y-4.5988
X6.0377Y-4.3894
X6.0433Y-4.0748
X6.0433Y-4.919
X6.2392Y-4.1879
X6.2392Y-4.8059
X6.3523Y-4.3838
X6.3523Y-4.61
T6
X7.3917Y-3.2835
X7.3917Y-5.2598
X7.7264Y-3.3307
X7.7264Y-5.2126
T0
M30
