%TF.GenerationSoftware,KiCad,Pcbnew,7.0.5*%
%TF.CreationDate,2023-09-23T15:40:50-05:00*%
%TF.ProjectId,ControlsSim,436f6e74-726f-46c7-9353-696d2e6b6963,rev?*%
%TF.SameCoordinates,Original*%
%TF.FileFunction,Soldermask,Top*%
%TF.FilePolarity,Negative*%
%FSLAX46Y46*%
G04 Gerber Fmt 4.6, Leading zero omitted, Abs format (unit mm)*
G04 Created by KiCad (PCBNEW 7.0.5) date 2023-09-23 15:40:50*
%MOMM*%
%LPD*%
G01*
G04 APERTURE LIST*
G04 Aperture macros list*
%AMRoundRect*
0 Rectangle with rounded corners*
0 $1 Rounding radius*
0 $2 $3 $4 $5 $6 $7 $8 $9 X,Y pos of 4 corners*
0 Add a 4 corners polygon primitive as box body*
4,1,4,$2,$3,$4,$5,$6,$7,$8,$9,$2,$3,0*
0 Add four circle primitives for the rounded corners*
1,1,$1+$1,$2,$3*
1,1,$1+$1,$4,$5*
1,1,$1+$1,$6,$7*
1,1,$1+$1,$8,$9*
0 Add four rect primitives between the rounded corners*
20,1,$1+$1,$2,$3,$4,$5,0*
20,1,$1+$1,$4,$5,$6,$7,0*
20,1,$1+$1,$6,$7,$8,$9,0*
20,1,$1+$1,$8,$9,$2,$3,0*%
G04 Aperture macros list end*
%ADD10C,3.200000*%
%ADD11RoundRect,0.243750X-0.243750X-0.456250X0.243750X-0.456250X0.243750X0.456250X-0.243750X0.456250X0*%
%ADD12RoundRect,0.250000X-0.262500X-0.450000X0.262500X-0.450000X0.262500X0.450000X-0.262500X0.450000X0*%
%ADD13C,1.000000*%
%ADD14RoundRect,0.250001X0.499999X0.499999X-0.499999X0.499999X-0.499999X-0.499999X0.499999X-0.499999X0*%
%ADD15C,1.500000*%
%ADD16C,1.270000*%
%ADD17RoundRect,0.250001X0.499999X0.759999X-0.499999X0.759999X-0.499999X-0.759999X0.499999X-0.759999X0*%
%ADD18O,1.500000X2.020000*%
%ADD19RoundRect,0.250000X0.262500X0.450000X-0.262500X0.450000X-0.262500X-0.450000X0.262500X-0.450000X0*%
%ADD20R,1.800000X1.800000*%
%ADD21C,1.800000*%
%ADD22C,2.550000*%
%ADD23R,2.100000X2.100000*%
%ADD24C,2.006600*%
%ADD25RoundRect,0.250001X0.499999X-0.499999X0.499999X0.499999X-0.499999X0.499999X-0.499999X-0.499999X0*%
G04 APERTURE END LIST*
D10*
%TO.C,H4*%
X104000000Y-54000000D03*
%TD*%
%TO.C,H2*%
X196000000Y-54000000D03*
%TD*%
D11*
%TO.C,D4*%
X118062500Y-67750000D03*
X119937500Y-67750000D03*
%TD*%
D12*
%TO.C,R4*%
X112625500Y-78232000D03*
X114450500Y-78232000D03*
%TD*%
D13*
%TO.C,J7*%
X175500000Y-53560000D03*
X151500000Y-53560000D03*
D14*
X172500000Y-57500000D03*
D15*
X169500000Y-57500000D03*
X166500000Y-57500000D03*
X163500000Y-57500000D03*
X160500000Y-57500000D03*
X157500000Y-57500000D03*
X154500000Y-57500000D03*
X172500000Y-54500000D03*
X169500000Y-54500000D03*
X166500000Y-54500000D03*
X163500000Y-54500000D03*
X160500000Y-54500000D03*
X157500000Y-54500000D03*
X154500000Y-54500000D03*
%TD*%
D16*
%TO.C,J6*%
X147500000Y-56460000D03*
X132500000Y-56460000D03*
D17*
X144500000Y-54500000D03*
D18*
X141500000Y-54500000D03*
X138500000Y-54500000D03*
X135500000Y-54500000D03*
%TD*%
D11*
%TO.C,D2*%
X118062500Y-78250000D03*
X119937500Y-78250000D03*
%TD*%
D19*
%TO.C,R2*%
X114450500Y-74500000D03*
X112625500Y-74500000D03*
%TD*%
D20*
%TO.C,RV1*%
X193750000Y-79250000D03*
D21*
X190250000Y-79250000D03*
X193750000Y-137750000D03*
D22*
X196250000Y-84600000D03*
X187750000Y-83400000D03*
X196250000Y-132400000D03*
X187750000Y-133600000D03*
%TD*%
D11*
%TO.C,D3*%
X118125000Y-64000000D03*
X120000000Y-64000000D03*
%TD*%
%TO.C,D1*%
X118062500Y-74500000D03*
X119937500Y-74500000D03*
%TD*%
D19*
%TO.C,R7*%
X114450500Y-67750000D03*
X112625500Y-67750000D03*
%TD*%
D10*
%TO.C,H3*%
X196000000Y-146000000D03*
%TD*%
D23*
%TO.C,S1*%
X167350000Y-140000000D03*
X181650000Y-140000000D03*
X167350000Y-145000000D03*
X181650000Y-145000000D03*
%TD*%
D13*
%TO.C,J3*%
X189500000Y-53475000D03*
X177500000Y-53475000D03*
D14*
X186500000Y-57415000D03*
D15*
X183500000Y-57415000D03*
X180500000Y-57415000D03*
X186500000Y-54415000D03*
X183500000Y-54415000D03*
X180500000Y-54415000D03*
%TD*%
D24*
%TO.C,SW2*%
X153499999Y-103500000D03*
X158475905Y-106372839D03*
X161348744Y-111348744D03*
X161348744Y-117094423D03*
X158475905Y-122070328D03*
X153499999Y-124943167D03*
X147754321Y-124943167D03*
X142778416Y-122070328D03*
X139905577Y-117094423D03*
X139905577Y-111348744D03*
X142778416Y-106372839D03*
X147754321Y-103500000D03*
X153357158Y-111491586D03*
X147785000Y-116809600D03*
%TD*%
D10*
%TO.C,H1*%
X104000000Y-146000000D03*
%TD*%
D13*
%TO.C,J2*%
X196940000Y-74500000D03*
X196940000Y-62500000D03*
D25*
X193000000Y-71500000D03*
D15*
X193000000Y-68500000D03*
X193000000Y-65500000D03*
X196000000Y-71500000D03*
X196000000Y-68500000D03*
X196000000Y-65500000D03*
%TD*%
D16*
%TO.C,J5*%
X128500000Y-56375000D03*
X113500000Y-56375000D03*
D17*
X125500000Y-54415000D03*
D18*
X122500000Y-54415000D03*
X119500000Y-54415000D03*
X116500000Y-54415000D03*
%TD*%
D19*
%TO.C,R5*%
X114412500Y-64000000D03*
X112587500Y-64000000D03*
%TD*%
M02*
